{"glyphs":{"0":{"ha":833,"x_min":51,"x_max":782,"o":"m 417 -15 q 145 117 239 -15 q 51 493 51 249 q 145 866 51 738 q 417 994 239 994 q 688 866 594 994 q 782 493 782 738 q 688 117 782 249 q 417 -15 594 -15 m 417 160 q 536 240 497 160 q 575 493 575 319 q 536 743 575 667 q 417 819 497 819 q 297 743 336 819 q 258 493 258 667 q 297 240 258 319 q 417 160 336 160 z "},"1":{"ha":833,"x_min":108,"x_max":779,"o":"m 139 0 l 139 176 l 358 176 l 358 739 l 190 640 l 108 797 l 421 979 l 574 979 l 574 176 l 779 176 l 779 0 l 139 0 z "},"2":{"ha":833,"x_min":60,"x_max":768,"o":"m 103 0 l 103 160 l 410 482 q 494 594 468 546 q 519 690 519 642 q 365 815 519 815 q 246 792 306 815 q 129 722 186 769 l 60 881 q 210 964 121 933 q 394 994 300 994 q 645 922 558 994 q 732 714 732 849 q 691 544 732 625 q 557 368 650 463 l 368 176 l 768 176 l 768 0 l 103 0 z "},"3":{"ha":833,"x_min":44,"x_max":761,"o":"m 393 -15 q 197 14 290 -15 q 44 93 104 43 l 113 256 q 385 164 236 164 q 554 290 554 164 q 396 407 554 407 l 232 407 l 232 581 l 375 581 q 485 613 444 581 q 525 701 525 644 q 376 815 525 815 q 129 722 238 815 l 61 881 q 211 965 122 935 q 396 994 300 994 q 643 924 554 994 q 732 729 732 853 q 693 594 732 653 q 585 510 654 536 q 715 423 668 486 q 761 271 761 360 q 663 61 761 138 q 393 -15 564 -15 z "},"4":{"ha":833,"x_min":50,"x_max":807,"o":"m 463 0 l 463 175 l 50 175 l 50 329 l 499 979 l 674 979 l 674 344 l 807 344 l 807 175 l 674 175 l 674 0 l 463 0 m 463 344 l 463 664 l 246 344 l 463 344 z "},"5":{"ha":833,"x_min":79,"x_max":788,"o":"m 418 -15 q 228 15 321 -15 q 79 93 136 44 l 147 256 q 414 164 272 164 q 537 203 493 164 q 581 307 581 242 q 538 414 581 374 q 424 454 496 454 q 246 375 319 454 l 107 375 l 107 979 l 726 979 l 726 803 l 314 803 l 314 583 q 478 628 382 628 q 640 588 571 628 q 749 478 710 549 q 788 314 788 407 q 743 142 788 215 q 615 26 699 68 q 418 -15 532 -15 z "},"6":{"ha":833,"x_min":63,"x_max":789,"o":"m 454 -15 q 165 113 267 -15 q 63 476 63 242 q 178 858 63 722 q 497 994 293 994 q 653 967 576 994 q 789 889 731 939 l 719 729 q 612 794 669 772 q 494 815 554 815 q 267 517 267 815 l 267 490 q 357 598 296 560 q 497 636 418 636 q 645 595 581 636 q 747 483 710 554 q 785 319 785 411 q 742 147 785 222 q 626 28 700 71 q 454 -15 551 -15 m 443 153 q 547 197 507 153 q 586 311 586 240 q 547 425 586 381 q 443 469 507 469 q 338 425 378 469 q 299 311 299 381 q 338 197 299 240 q 443 153 378 153 z "},"7":{"ha":833,"x_min":65,"x_max":769,"o":"m 97 0 l 531 801 l 65 801 l 65 979 l 769 979 l 769 818 l 335 0 l 97 0 z "},"8":{"ha":833,"x_min":44,"x_max":789,"o":"m 417 -15 q 143 59 242 -15 q 44 267 44 133 q 88 415 44 353 q 204 504 132 478 q 106 594 143 535 q 69 728 69 653 q 163 924 69 853 q 417 994 257 994 q 671 924 576 994 q 765 728 765 853 q 728 592 765 651 q 631 504 692 532 q 746 414 703 476 q 789 267 789 351 q 690 59 789 133 q 417 -15 592 -15 m 417 578 q 527 612 488 578 q 567 704 567 646 q 527 796 567 763 q 417 829 488 829 q 307 796 346 829 q 268 704 268 763 q 307 612 268 646 q 417 578 346 578 m 417 150 q 592 282 592 150 q 417 413 592 413 q 287 380 332 413 q 242 282 242 347 q 287 183 242 217 q 417 150 332 150 z "},"9":{"ha":833,"x_min":44,"x_max":771,"o":"m 336 -15 q 180 13 257 -15 q 44 92 103 40 l 114 251 q 222 186 164 208 q 339 164 279 164 q 568 463 568 164 l 568 489 q 478 382 539 421 q 336 343 417 343 q 189 384 254 343 q 86 497 124 425 q 49 660 49 568 q 91 833 49 757 q 208 951 133 908 q 379 994 282 994 q 669 866 568 994 q 771 503 771 738 q 719 224 771 339 q 569 47 667 108 q 336 -15 472 -15 m 392 511 q 496 555 456 511 q 536 668 536 599 q 496 783 536 739 q 392 828 456 828 q 288 783 328 828 q 247 668 247 739 q 288 555 247 599 q 392 511 328 511 z "},"A":{"ha":1046,"x_min":-14,"x_max":1060,"o":"m -14 0 l 436 979 l 610 979 l 1060 0 l 843 0 l 751 213 l 294 213 l 204 0 l -14 0 m 521 750 l 367 381 l 681 381 l 524 750 l 521 750 z "},"Á":{"ha":1046,"x_min":-14,"x_max":1060,"o":"m -14 0 l 436 979 l 610 979 l 1060 0 l 843 0 l 751 213 l 294 213 l 204 0 l -14 0 m 521 750 l 367 381 l 681 381 l 524 750 l 521 750 m 451 1063 l 615 1306 l 828 1306 l 597 1063 l 451 1063 z "},"Ă":{"ha":1046,"x_min":-14,"x_max":1060,"o":"m -14 0 l 436 979 l 610 979 l 1060 0 l 843 0 l 751 213 l 294 213 l 204 0 l -14 0 m 521 750 l 367 381 l 681 381 l 524 750 l 521 750 m 524 1056 q 338 1120 410 1056 q 260 1293 267 1185 l 375 1308 q 419 1211 381 1246 q 524 1176 458 1176 q 627 1211 588 1176 q 674 1308 667 1246 l 789 1293 q 709 1120 781 1185 q 524 1056 638 1056 z "},"Ắ":{"ha":1046,"x_min":-14,"x_max":1060,"o":"m -14 0 l 436 979 l 610 979 l 1060 0 l 843 0 l 751 213 l 294 213 l 204 0 l -14 0 m 521 750 l 367 381 l 681 381 l 524 750 l 521 750 m 451 1243 l 543 1419 l 738 1419 l 579 1243 l 451 1243 m 524 1056 q 351 1114 418 1056 q 275 1272 285 1172 l 371 1282 q 422 1199 385 1229 q 524 1168 458 1168 q 626 1199 589 1168 q 676 1282 663 1229 l 772 1272 q 697 1114 764 1172 q 524 1056 631 1056 z "},"Ặ":{"ha":1046,"x_min":-14,"x_max":1060,"o":"m -14 0 l 436 979 l 610 979 l 1060 0 l 843 0 l 751 213 l 294 213 l 204 0 l -14 0 m 521 750 l 367 381 l 681 381 l 524 750 l 521 750 m 426 -297 l 426 -112 l 621 -112 l 621 -297 l 426 -297 m 524 1056 q 338 1120 410 1056 q 260 1293 267 1185 l 375 1308 q 419 1211 381 1246 q 524 1176 458 1176 q 627 1211 588 1176 q 674 1308 667 1246 l 789 1293 q 709 1120 781 1185 q 524 1056 638 1056 z "},"Ằ":{"ha":1046,"x_min":-14,"x_max":1060,"o":"m -14 0 l 436 979 l 610 979 l 1060 0 l 843 0 l 751 213 l 294 213 l 204 0 l -14 0 m 521 750 l 367 381 l 681 381 l 524 750 l 521 750 m 468 1243 l 311 1419 l 504 1419 l 596 1243 l 468 1243 m 524 1056 q 351 1114 418 1056 q 275 1272 285 1172 l 371 1282 q 422 1199 385 1229 q 524 1168 458 1168 q 626 1199 589 1168 q 676 1282 663 1229 l 772 1272 q 697 1114 764 1172 q 524 1056 631 1056 z "},"Ẳ":{"ha":1046,"x_min":-14,"x_max":1060,"o":"m -14 0 l 436 979 l 610 979 l 1060 0 l 843 0 l 751 213 l 294 213 l 204 0 l -14 0 m 521 750 l 367 381 l 681 381 l 524 750 l 521 750 m 469 1243 q 485 1285 469 1271 q 515 1308 500 1299 q 531 1336 531 1318 q 519 1351 531 1347 q 489 1356 507 1356 q 450 1352 469 1356 q 411 1340 431 1349 l 386 1414 q 449 1433 415 1426 q 532 1440 482 1440 q 631 1422 596 1440 q 665 1369 665 1403 q 652 1329 665 1344 q 622 1303 639 1314 q 592 1278 606 1292 q 579 1243 579 1264 l 469 1243 m 524 1056 q 351 1114 418 1056 q 275 1272 285 1172 l 371 1282 q 422 1199 385 1229 q 524 1168 458 1168 q 626 1199 589 1168 q 676 1282 663 1229 l 772 1272 q 697 1115 764 1174 q 524 1056 631 1056 z "},"Ẵ":{"ha":1046,"x_min":-14,"x_max":1060,"o":"m -14 0 l 436 979 l 610 979 l 1060 0 l 843 0 l 751 213 l 294 213 l 204 0 l -14 0 m 521 750 l 367 381 l 681 381 l 524 750 l 521 750 m 365 1281 l 274 1285 q 322 1401 278 1363 q 431 1440 367 1440 q 482 1432 457 1440 q 538 1410 507 1424 q 611 1386 588 1386 q 682 1440 671 1386 l 774 1436 q 726 1319 769 1358 q 618 1281 682 1281 q 564 1289 590 1281 q 508 1313 538 1297 q 466 1330 482 1325 q 438 1335 450 1335 q 389 1322 406 1335 q 365 1281 372 1308 m 524 1056 q 361 1099 428 1056 q 275 1217 294 1143 l 371 1244 q 426 1188 389 1208 q 524 1168 463 1168 q 622 1188 586 1168 q 676 1244 658 1208 l 772 1217 q 686 1099 753 1143 q 524 1056 619 1056 z "},"Ǎ":{"ha":1046,"x_min":-14,"x_max":1060,"o":"m -14 0 l 436 979 l 610 979 l 1060 0 l 843 0 l 751 213 l 294 213 l 204 0 l -14 0 m 521 750 l 367 381 l 681 381 l 524 750 l 521 750 m 436 1063 l 263 1306 l 406 1306 l 524 1174 l 642 1306 l 785 1306 l 611 1063 l 436 1063 z "},"Â":{"ha":1046,"x_min":-14,"x_max":1060,"o":"m -14 0 l 436 979 l 610 979 l 1060 0 l 843 0 l 751 213 l 294 213 l 204 0 l -14 0 m 521 750 l 367 381 l 681 381 l 524 750 l 521 750 m 263 1063 l 436 1306 l 611 1306 l 785 1063 l 642 1063 l 524 1194 l 406 1063 l 263 1063 z "},"Ấ":{"ha":1046,"x_min":-14,"x_max":1060,"o":"m -14 0 l 436 979 l 610 979 l 1060 0 l 843 0 l 751 213 l 294 213 l 204 0 l -14 0 m 521 750 l 367 381 l 681 381 l 524 750 l 521 750 m 686 1214 l 801 1422 l 968 1422 l 801 1214 l 686 1214 m 281 1063 l 435 1290 l 613 1290 l 767 1063 l 636 1063 l 524 1183 l 411 1063 l 281 1063 z "},"Ậ":{"ha":1046,"x_min":-14,"x_max":1060,"o":"m -14 0 l 436 979 l 610 979 l 1060 0 l 843 0 l 751 213 l 294 213 l 204 0 l -14 0 m 521 750 l 367 381 l 681 381 l 524 750 l 521 750 m 426 -297 l 426 -112 l 621 -112 l 621 -297 l 426 -297 m 263 1063 l 436 1306 l 611 1306 l 785 1063 l 642 1063 l 524 1194 l 406 1063 l 263 1063 z "},"Ầ":{"ha":1046,"x_min":-14,"x_max":1060,"o":"m -14 0 l 436 979 l 610 979 l 1060 0 l 843 0 l 751 213 l 294 213 l 204 0 l -14 0 m 521 750 l 367 381 l 681 381 l 524 750 l 521 750 m 740 1214 l 574 1422 l 740 1422 l 856 1214 l 740 1214 m 281 1063 l 435 1290 l 613 1290 l 767 1063 l 636 1063 l 524 1183 l 411 1063 l 281 1063 z "},"Ẩ":{"ha":1046,"x_min":-14,"x_max":1060,"o":"m -14 0 l 436 979 l 610 979 l 1060 0 l 843 0 l 751 213 l 294 213 l 204 0 l -14 0 m 521 750 l 367 381 l 681 381 l 524 750 l 521 750 m 686 1214 q 701 1260 686 1243 q 732 1291 717 1278 q 747 1322 747 1304 q 735 1338 747 1333 q 706 1343 724 1343 q 667 1340 686 1343 q 628 1326 647 1336 l 603 1400 q 665 1420 632 1413 q 749 1428 699 1428 q 847 1408 813 1428 q 882 1357 882 1389 q 869 1315 882 1332 q 839 1283 856 1297 q 809 1252 822 1268 q 796 1214 796 1236 l 686 1214 m 281 1063 l 435 1290 l 613 1290 l 767 1063 l 636 1063 l 524 1183 l 411 1063 l 281 1063 z "},"Ẫ":{"ha":1046,"x_min":-14,"x_max":1060,"o":"m -14 0 l 436 979 l 610 979 l 1060 0 l 843 0 l 751 213 l 294 213 l 204 0 l -14 0 m 521 750 l 367 381 l 681 381 l 524 750 l 521 750 m 365 1282 l 274 1286 q 322 1403 278 1364 q 431 1442 367 1442 q 482 1434 457 1442 q 538 1411 507 1426 q 611 1388 588 1388 q 682 1443 671 1388 l 774 1438 q 726 1321 769 1360 q 618 1282 682 1282 q 564 1291 590 1282 q 508 1314 538 1300 q 466 1332 482 1326 q 438 1338 450 1338 q 389 1324 406 1338 q 365 1282 372 1310 m 281 1063 l 435 1250 l 613 1250 l 767 1063 l 642 1063 l 524 1151 l 407 1063 l 281 1063 z "},"Ȁ":{"ha":1046,"x_min":-14,"x_max":1060,"o":"m -14 0 l 436 979 l 610 979 l 1060 0 l 843 0 l 751 213 l 294 213 l 204 0 l -14 0 m 521 750 l 367 381 l 681 381 l 524 750 l 521 750 m 575 1063 l 393 1306 l 575 1306 l 693 1063 l 575 1063 m 356 1063 l 156 1306 l 338 1306 l 472 1063 l 356 1063 z "},"Ä":{"ha":1046,"x_min":-14,"x_max":1060,"o":"m -14 0 l 436 979 l 610 979 l 1060 0 l 843 0 l 751 213 l 294 213 l 204 0 l -14 0 m 521 750 l 367 381 l 681 381 l 524 750 l 521 750 m 568 1085 l 568 1268 l 753 1268 l 753 1085 l 568 1085 m 294 1085 l 294 1268 l 479 1268 l 479 1085 l 294 1085 z "},"Ȧ":{"ha":1046,"x_min":-14,"x_max":1060,"o":"m -14 0 l 436 979 l 610 979 l 1060 0 l 843 0 l 751 213 l 294 213 l 204 0 l -14 0 m 521 750 l 367 381 l 681 381 l 524 750 l 521 750 m 426 1092 l 426 1276 l 621 1276 l 621 1092 l 426 1092 z "},"Ạ":{"ha":1046,"x_min":-14,"x_max":1060,"o":"m -14 0 l 436 979 l 610 979 l 1060 0 l 843 0 l 751 213 l 294 213 l 204 0 l -14 0 m 521 750 l 367 381 l 681 381 l 524 750 l 521 750 m 426 -297 l 426 -112 l 621 -112 l 621 -297 l 426 -297 z "},"À":{"ha":1046,"x_min":-14,"x_max":1060,"o":"m -14 0 l 436 979 l 610 979 l 1060 0 l 843 0 l 751 213 l 294 213 l 204 0 l -14 0 m 521 750 l 367 381 l 681 381 l 524 750 l 521 750 m 451 1063 l 219 1306 l 433 1306 l 597 1063 l 451 1063 z "},"Ả":{"ha":1046,"x_min":-14,"x_max":1060,"o":"m -14 0 l 436 979 l 610 979 l 1060 0 l 843 0 l 751 213 l 294 213 l 204 0 l -14 0 m 521 750 l 367 381 l 681 381 l 524 750 l 521 750 m 463 1063 l 463 1089 q 481 1136 463 1119 q 517 1165 499 1153 q 535 1196 535 1178 q 485 1221 535 1221 q 403 1204 444 1221 l 372 1286 q 538 1317 435 1317 q 649 1293 608 1317 q 690 1228 690 1269 q 674 1177 690 1196 q 638 1146 658 1158 q 601 1119 617 1133 q 586 1081 586 1104 l 586 1063 l 463 1063 z "},"Ȃ":{"ha":1046,"x_min":-14,"x_max":1060,"o":"m -14 0 l 436 979 l 610 979 l 1060 0 l 843 0 l 751 213 l 294 213 l 204 0 l -14 0 m 521 750 l 367 381 l 681 381 l 524 750 l 521 750 m 375 1056 l 260 1071 q 338 1244 267 1179 q 524 1308 410 1308 q 709 1244 638 1308 q 789 1071 781 1179 l 674 1056 q 627 1153 667 1118 q 524 1188 588 1188 q 419 1153 458 1188 q 375 1056 381 1118 z "},"Ā":{"ha":1046,"x_min":-14,"x_max":1060,"o":"m -14 0 l 436 979 l 610 979 l 1060 0 l 843 0 l 751 213 l 294 213 l 204 0 l -14 0 m 521 750 l 367 381 l 681 381 l 524 750 l 521 750 m 276 1113 l 276 1231 l 771 1231 l 771 1113 l 276 1113 z "},"Ą":{"ha":1046,"x_min":-14,"x_max":1082,"o":"m -14 0 l 436 979 l 610 979 l 1060 0 l 843 0 l 751 213 l 294 213 l 204 0 l -14 0 m 521 750 l 367 381 l 681 381 l 524 750 l 521 750 m 956 -274 q 828 -233 874 -274 q 782 -124 782 -192 q 822 -12 782 -62 q 929 63 863 38 l 988 0 q 930 -41 951 -14 q 908 -100 908 -68 q 931 -149 908 -132 q 985 -167 953 -167 q 1023 -162 1006 -167 q 1061 -151 1040 -158 l 1082 -249 q 956 -274 1025 -274 z "},"Å":{"ha":1046,"x_min":-14,"x_max":1060,"o":"m -14 0 l 436 979 l 610 979 l 1060 0 l 843 0 l 751 213 l 294 213 l 204 0 l -14 0 m 521 750 l 367 381 l 681 381 l 524 750 l 521 750 m 524 1046 q 431 1069 472 1046 q 367 1133 390 1093 q 343 1222 343 1172 q 367 1312 343 1272 q 431 1374 390 1351 q 524 1397 472 1397 q 616 1374 575 1397 q 681 1312 657 1351 q 704 1222 704 1272 q 681 1133 704 1172 q 616 1069 657 1093 q 524 1046 575 1046 m 524 1136 q 584 1160 560 1136 q 608 1222 608 1185 q 584 1283 608 1260 q 524 1307 560 1307 q 463 1283 488 1307 q 439 1222 439 1260 q 463 1160 439 1185 q 524 1136 488 1136 z "},"Ǻ":{"ha":1046,"x_min":-14,"x_max":1060,"o":"m -14 0 l 436 979 l 610 979 l 1060 0 l 843 0 l 751 213 l 294 213 l 204 0 l -14 0 m 521 750 l 367 381 l 681 381 l 524 750 l 521 750 m 524 1046 q 436 1068 475 1046 q 374 1128 397 1090 q 351 1214 351 1167 q 401 1331 351 1283 q 524 1379 451 1379 q 610 1357 569 1379 l 696 1436 l 851 1436 l 678 1286 q 696 1214 696 1253 q 673 1128 696 1167 q 611 1068 650 1090 q 524 1046 572 1046 m 524 1128 q 584 1152 560 1128 q 608 1214 608 1176 q 584 1274 608 1250 q 524 1299 560 1299 q 463 1274 488 1299 q 439 1214 439 1250 q 463 1152 439 1176 q 524 1128 488 1128 z "},"Ã":{"ha":1046,"x_min":-14,"x_max":1060,"o":"m -14 0 l 436 979 l 610 979 l 1060 0 l 843 0 l 751 213 l 294 213 l 204 0 l -14 0 m 521 750 l 367 381 l 681 381 l 524 750 l 521 750 m 301 1064 l 203 1069 q 264 1231 210 1175 q 400 1288 318 1288 q 468 1276 435 1288 q 544 1242 501 1265 q 610 1212 588 1219 q 651 1204 633 1204 q 746 1293 729 1204 l 844 1288 q 783 1126 838 1182 q 649 1069 729 1069 q 577 1082 613 1069 q 500 1117 542 1094 q 439 1145 461 1138 q 396 1153 417 1153 q 301 1064 319 1153 z "},"Æ":{"ha":1388,"x_min":-67,"x_max":1315,"o":"m -67 0 l 550 979 l 1315 979 l 1315 811 l 781 811 l 831 582 l 1286 582 l 1286 413 l 867 413 l 921 168 l 1315 168 l 1315 0 l 765 0 l 719 213 l 288 213 l 161 0 l -67 0 m 601 743 l 386 381 l 683 381 l 604 743 l 601 743 z "},"Ǽ":{"ha":1388,"x_min":-67,"x_max":1315,"o":"m -67 0 l 550 979 l 1315 979 l 1315 811 l 781 811 l 831 582 l 1286 582 l 1286 413 l 867 413 l 921 168 l 1315 168 l 1315 0 l 765 0 l 719 213 l 288 213 l 161 0 l -67 0 m 601 743 l 386 381 l 683 381 l 604 743 l 601 743 m 607 1063 l 771 1306 l 983 1306 l 753 1063 l 607 1063 z "},"B":{"ha":965,"x_min":99,"x_max":901,"o":"m 99 0 l 99 979 l 547 979 q 790 911 704 979 q 875 725 875 843 q 836 591 875 647 q 728 507 797 535 q 856 424 811 483 q 901 276 901 364 q 810 73 901 146 q 563 0 719 0 l 99 0 m 304 576 l 510 576 q 668 699 668 576 q 510 819 668 819 l 304 819 l 304 576 m 304 160 l 533 160 q 656 192 617 160 q 694 289 694 224 q 656 385 694 353 q 533 417 617 417 l 304 417 l 304 160 z "},"Ɓ":{"ha":1194,"x_min":0,"x_max":1131,"o":"m 328 0 l 328 829 l 297 829 q 204 799 233 829 q 175 703 175 769 l 175 635 l 0 635 l 0 710 q 76 910 0 842 q 306 979 151 979 l 778 979 q 1019 911 933 979 q 1106 725 1106 843 q 1066 591 1106 647 q 957 507 1026 535 q 1085 424 1040 483 q 1131 276 1131 364 q 1040 73 1131 146 q 792 0 950 0 l 328 0 m 535 576 l 739 576 q 899 699 899 576 q 739 819 899 819 l 535 819 l 535 576 m 535 160 l 764 160 q 885 192 846 160 q 924 289 924 224 q 885 385 924 353 q 764 417 846 417 l 535 417 l 535 160 z "},"C":{"ha":949,"x_min":69,"x_max":906,"o":"m 574 -15 q 303 47 415 -15 q 130 223 190 110 q 69 490 69 336 q 130 756 69 643 q 303 932 190 869 q 574 994 415 994 q 760 964 671 994 q 906 881 849 933 l 839 710 q 713 781 776 758 q 581 804 650 804 q 369 723 440 804 q 297 490 297 642 q 369 257 297 339 q 581 175 440 175 q 713 198 650 175 q 839 269 776 221 l 906 99 q 760 16 849 47 q 574 -15 671 -15 z "},"Ć":{"ha":949,"x_min":69,"x_max":906,"o":"m 574 -15 q 303 47 415 -15 q 130 223 190 110 q 69 490 69 336 q 130 756 69 643 q 303 932 190 869 q 574 994 415 994 q 760 964 671 994 q 906 881 849 933 l 839 710 q 713 781 776 758 q 581 804 650 804 q 369 723 440 804 q 297 490 297 642 q 369 257 297 339 q 581 175 440 175 q 713 198 650 175 q 839 269 776 221 l 906 99 q 760 16 849 47 q 574 -15 671 -15 m 476 1063 l 640 1306 l 853 1306 l 622 1063 l 476 1063 z "},"Č":{"ha":949,"x_min":69,"x_max":906,"o":"m 574 -15 q 303 47 415 -15 q 130 223 190 110 q 69 490 69 336 q 130 756 69 643 q 303 932 190 869 q 574 994 415 994 q 760 964 671 994 q 906 881 849 933 l 839 710 q 713 781 776 758 q 581 804 650 804 q 369 723 440 804 q 297 490 297 642 q 369 257 297 339 q 581 175 440 175 q 713 198 650 175 q 839 269 776 221 l 906 99 q 760 16 849 47 q 574 -15 671 -15 m 461 1063 l 288 1306 l 431 1306 l 549 1174 l 667 1306 l 810 1306 l 636 1063 l 461 1063 z "},"Ç":{"ha":949,"x_min":69,"x_max":906,"o":"m 574 -15 q 303 47 415 -15 q 130 223 190 110 q 69 490 69 336 q 130 756 69 643 q 303 932 190 869 q 574 994 415 994 q 760 964 671 994 q 906 881 849 933 l 839 710 q 713 781 776 758 q 581 804 650 804 q 369 723 440 804 q 297 490 297 642 q 369 257 297 339 q 581 175 440 175 q 713 198 650 175 q 839 269 776 221 l 906 99 q 760 16 849 47 q 574 -15 671 -15 m 546 -274 q 463 -266 503 -274 q 394 -243 424 -258 l 424 -154 q 474 -173 449 -167 q 526 -179 499 -179 q 599 -143 599 -179 q 547 -115 599 -115 q 523 -117 535 -115 q 494 -122 511 -118 l 467 -94 l 485 28 l 590 28 l 576 -47 q 585 -47 581 -47 q 683 -74 647 -47 q 718 -150 718 -101 q 670 -240 718 -206 q 546 -274 622 -274 z "},"Ḉ":{"ha":949,"x_min":69,"x_max":906,"o":"m 574 -15 q 303 47 415 -15 q 130 223 190 110 q 69 490 69 336 q 130 756 69 643 q 303 932 190 869 q 574 994 415 994 q 760 964 671 994 q 906 881 849 933 l 839 710 q 713 781 776 758 q 581 804 650 804 q 369 723 440 804 q 297 490 297 642 q 369 257 297 339 q 581 175 440 175 q 713 198 650 175 q 839 269 776 221 l 906 99 q 760 16 849 47 q 574 -15 671 -15 m 546 -274 q 463 -266 503 -274 q 394 -243 424 -258 l 424 -154 q 474 -173 449 -167 q 526 -179 499 -179 q 599 -143 599 -179 q 547 -115 599 -115 q 523 -117 535 -115 q 494 -122 511 -118 l 467 -94 l 485 28 l 590 28 l 576 -47 q 585 -47 581 -47 q 683 -74 647 -47 q 718 -150 718 -101 q 670 -240 718 -206 q 546 -274 622 -274 m 476 1063 l 640 1306 l 853 1306 l 622 1063 l 476 1063 z "},"Ĉ":{"ha":949,"x_min":69,"x_max":906,"o":"m 574 -15 q 303 47 415 -15 q 130 223 190 110 q 69 490 69 336 q 130 756 69 643 q 303 932 190 869 q 574 994 415 994 q 760 964 671 994 q 906 881 849 933 l 839 710 q 713 781 776 758 q 581 804 650 804 q 369 723 440 804 q 297 490 297 642 q 369 257 297 339 q 581 175 440 175 q 713 198 650 175 q 839 269 776 221 l 906 99 q 760 16 849 47 q 574 -15 671 -15 m 288 1063 l 461 1306 l 636 1306 l 810 1063 l 667 1063 l 549 1194 l 431 1063 l 288 1063 z "},"Ċ":{"ha":949,"x_min":69,"x_max":906,"o":"m 574 -15 q 303 47 415 -15 q 130 223 190 110 q 69 490 69 336 q 130 756 69 643 q 303 932 190 869 q 574 994 415 994 q 760 964 671 994 q 906 881 849 933 l 839 710 q 713 781 776 758 q 581 804 650 804 q 369 723 440 804 q 297 490 297 642 q 369 257 297 339 q 581 175 440 175 q 713 198 650 175 q 839 269 776 221 l 906 99 q 760 16 849 47 q 574 -15 671 -15 m 451 1092 l 451 1276 l 646 1276 l 646 1092 l 451 1092 z "},"D":{"ha":1075,"x_min":99,"x_max":1007,"o":"m 99 0 l 99 979 l 482 979 q 869 852 732 979 q 1007 490 1007 725 q 869 128 1007 256 q 482 0 732 0 l 99 0 m 314 176 l 469 176 q 782 490 782 176 q 469 803 782 803 l 314 803 l 314 176 z "},"Ǆ":{"ha":1908,"x_min":99,"x_max":1879,"o":"m 99 0 l 99 979 l 482 979 q 869 852 732 979 q 1007 490 1007 725 q 869 128 1007 256 q 482 0 732 0 l 99 0 m 314 176 l 469 176 q 782 490 782 176 q 469 803 782 803 l 314 803 l 314 176 z "},"Ð":{"ha":1075,"x_min":-21,"x_max":1007,"o":"m 99 0 l 99 979 l 482 979 q 869 852 732 979 q 1007 490 1007 725 q 869 128 1007 256 q 482 0 732 0 l 99 0 m 314 176 l 469 176 q 782 490 782 176 q 469 803 782 803 l 314 803 l 314 176 m -21 418 l -21 572 l 572 572 l 572 418 l -21 418 z "},"Ď":{"ha":1075,"x_min":99,"x_max":1007,"o":"m 99 0 l 99 979 l 482 979 q 869 852 732 979 q 1007 490 1007 725 q 869 128 1007 256 q 482 0 732 0 l 99 0 m 314 176 l 469 176 q 782 490 782 176 q 469 803 782 803 l 314 803 l 314 176 m 446 1063 l 272 1306 l 415 1306 l 533 1174 l 651 1306 l 794 1306 l 621 1063 l 446 1063 z "},"Đ":{"ha":1075,"x_min":-21,"x_max":1007,"o":"m 99 0 l 99 979 l 482 979 q 869 852 732 979 q 1007 490 1007 725 q 869 128 1007 256 q 482 0 732 0 l 99 0 m 314 176 l 469 176 q 782 490 782 176 q 469 803 782 803 l 314 803 l 314 176 m -21 418 l -21 572 l 572 572 l 572 418 l -21 418 z "},"Ḍ":{"ha":1075,"x_min":99,"x_max":1007,"o":"m 99 0 l 99 979 l 482 979 q 869 852 732 979 q 1007 490 1007 725 q 869 128 1007 256 q 482 0 732 0 l 99 0 m 314 176 l 469 176 q 782 490 782 176 q 469 803 782 803 l 314 803 l 314 176 m 436 -297 l 436 -112 l 631 -112 l 631 -297 l 436 -297 z "},"Ɗ":{"ha":1304,"x_min":0,"x_max":1236,"o":"m 328 0 l 328 829 l 297 829 q 204 799 233 829 q 175 703 175 769 l 175 635 l 0 635 l 0 710 q 76 910 0 842 q 300 979 151 979 l 711 979 q 1099 852 963 979 q 1236 490 1236 725 q 1099 128 1236 256 q 711 0 963 0 l 328 0 m 543 176 l 699 176 q 1011 490 1011 176 q 699 803 1011 803 l 543 803 l 543 176 z "},"Ḏ":{"ha":1075,"x_min":99,"x_max":1007,"o":"m 99 0 l 99 979 l 482 979 q 869 852 732 979 q 1007 490 1007 725 q 869 128 1007 256 q 482 0 732 0 l 99 0 m 314 176 l 469 176 q 782 490 782 176 q 469 803 782 803 l 314 803 l 314 176 m 307 -236 l 307 -118 l 760 -118 l 760 -236 l 307 -236 z "},"ǅ":{"ha":1742,"x_min":99,"x_max":1708,"o":"m 99 0 l 99 979 l 482 979 q 869 852 732 979 q 1007 490 1007 725 q 869 128 1007 256 q 482 0 732 0 l 99 0 m 314 176 l 469 176 q 782 490 782 176 q 469 803 782 803 l 314 803 l 314 176 z "},"E":{"ha":840,"x_min":99,"x_max":769,"o":"m 99 0 l 99 979 l 769 979 l 769 811 l 304 811 l 304 582 l 739 582 l 739 413 l 304 413 l 304 168 l 769 168 l 769 0 l 99 0 z "},"É":{"ha":840,"x_min":99,"x_max":769,"o":"m 99 0 l 99 979 l 769 979 l 769 811 l 304 811 l 304 582 l 739 582 l 739 413 l 304 413 l 304 168 l 769 168 l 769 0 l 99 0 m 388 1063 l 551 1306 l 764 1306 l 533 1063 l 388 1063 z "},"Ĕ":{"ha":840,"x_min":99,"x_max":769,"o":"m 99 0 l 99 979 l 769 979 l 769 811 l 304 811 l 304 582 l 739 582 l 739 413 l 304 413 l 304 168 l 769 168 l 769 0 l 99 0 m 460 1056 q 274 1120 346 1056 q 196 1293 203 1185 l 311 1308 q 356 1211 317 1246 q 460 1176 394 1176 q 563 1211 524 1176 q 610 1308 603 1246 l 725 1293 q 645 1120 717 1185 q 460 1056 574 1056 z "},"Ě":{"ha":840,"x_min":99,"x_max":769,"o":"m 99 0 l 99 979 l 769 979 l 769 811 l 304 811 l 304 582 l 739 582 l 739 413 l 304 413 l 304 168 l 769 168 l 769 0 l 99 0 m 372 1063 l 199 1306 l 342 1306 l 460 1174 l 578 1306 l 721 1306 l 547 1063 l 372 1063 z "},"Ȩ":{"ha":840,"x_min":99,"x_max":769,"o":"m 99 0 l 99 979 l 769 979 l 769 811 l 304 811 l 304 582 l 739 582 l 739 413 l 304 413 l 304 168 l 769 168 l 769 0 l 99 0 m 458 -274 q 376 -266 415 -274 q 307 -243 336 -258 l 336 -154 q 386 -173 361 -167 q 439 -179 411 -179 q 511 -143 511 -179 q 460 -115 511 -115 q 435 -117 447 -115 q 407 -122 424 -118 l 379 -94 l 397 28 l 503 28 l 489 -47 q 497 -47 493 -47 q 595 -74 560 -47 q 631 -150 631 -101 q 583 -240 631 -206 q 458 -274 535 -274 z "},"Ḝ":{"ha":840,"x_min":99,"x_max":769,"o":"m 99 0 l 99 979 l 769 979 l 769 811 l 304 811 l 304 582 l 739 582 l 739 413 l 304 413 l 304 168 l 769 168 l 769 0 l 99 0 m 458 -274 q 376 -266 415 -274 q 307 -243 336 -258 l 336 -154 q 386 -173 361 -167 q 439 -179 411 -179 q 511 -143 511 -179 q 460 -115 511 -115 q 435 -117 447 -115 q 407 -122 424 -118 l 379 -94 l 397 28 l 503 28 l 489 -47 q 497 -47 493 -47 q 595 -74 560 -47 q 631 -150 631 -101 q 583 -240 631 -206 q 458 -274 535 -274 m 460 1056 q 274 1120 346 1056 q 196 1293 203 1185 l 311 1308 q 356 1211 317 1246 q 460 1176 394 1176 q 563 1211 524 1176 q 610 1308 603 1246 l 725 1293 q 645 1120 717 1185 q 460 1056 574 1056 z "},"Ê":{"ha":840,"x_min":99,"x_max":769,"o":"m 99 0 l 99 979 l 769 979 l 769 811 l 304 811 l 304 582 l 739 582 l 739 413 l 304 413 l 304 168 l 769 168 l 769 0 l 99 0 m 199 1063 l 372 1306 l 547 1306 l 721 1063 l 578 1063 l 460 1194 l 342 1063 l 199 1063 z "},"Ế":{"ha":840,"x_min":99,"x_max":904,"o":"m 99 0 l 99 979 l 769 979 l 769 811 l 304 811 l 304 582 l 739 582 l 739 413 l 304 413 l 304 168 l 769 168 l 769 0 l 99 0 m 622 1214 l 738 1422 l 904 1422 l 738 1214 l 622 1214 m 217 1063 l 371 1290 l 549 1290 l 703 1063 l 572 1063 l 460 1183 l 347 1063 l 217 1063 z "},"Ệ":{"ha":840,"x_min":99,"x_max":769,"o":"m 99 0 l 99 979 l 769 979 l 769 811 l 304 811 l 304 582 l 739 582 l 739 413 l 304 413 l 304 168 l 769 168 l 769 0 l 99 0 m 363 -297 l 363 -112 l 557 -112 l 557 -297 l 363 -297 m 199 1063 l 372 1306 l 547 1306 l 721 1063 l 578 1063 l 460 1194 l 342 1063 l 199 1063 z "},"Ề":{"ha":840,"x_min":99,"x_max":792,"o":"m 99 0 l 99 979 l 769 979 l 769 811 l 304 811 l 304 582 l 739 582 l 739 413 l 304 413 l 304 168 l 769 168 l 769 0 l 99 0 m 676 1214 l 510 1422 l 676 1422 l 792 1214 l 676 1214 m 217 1063 l 371 1290 l 549 1290 l 703 1063 l 572 1063 l 460 1183 l 347 1063 l 217 1063 z "},"Ể":{"ha":840,"x_min":99,"x_max":818,"o":"m 99 0 l 99 979 l 769 979 l 769 811 l 304 811 l 304 582 l 739 582 l 739 413 l 304 413 l 304 168 l 769 168 l 769 0 l 99 0 m 622 1214 q 638 1260 622 1243 q 668 1291 653 1278 q 683 1322 683 1304 q 672 1338 683 1333 q 642 1343 660 1343 q 603 1340 622 1343 q 564 1326 583 1336 l 539 1400 q 601 1420 568 1413 q 685 1428 635 1428 q 783 1408 749 1428 q 818 1357 818 1389 q 805 1315 818 1332 q 775 1283 792 1297 q 745 1252 758 1268 q 732 1214 732 1236 l 622 1214 m 217 1063 l 371 1290 l 549 1290 l 703 1063 l 572 1063 l 460 1183 l 347 1063 l 217 1063 z "},"Ễ":{"ha":840,"x_min":99,"x_max":769,"o":"m 99 0 l 99 979 l 769 979 l 769 811 l 304 811 l 304 582 l 739 582 l 739 413 l 304 413 l 304 168 l 769 168 l 769 0 l 99 0 m 301 1282 l 210 1286 q 258 1403 214 1364 q 367 1442 303 1442 q 418 1434 393 1442 q 474 1411 443 1426 q 547 1388 524 1388 q 618 1443 607 1388 l 710 1438 q 662 1321 706 1360 q 554 1282 618 1282 q 500 1291 526 1282 q 444 1314 474 1300 q 402 1332 418 1326 q 374 1338 386 1338 q 325 1324 342 1338 q 301 1282 308 1310 m 217 1063 l 371 1250 l 549 1250 l 703 1063 l 578 1063 l 460 1151 l 343 1063 l 217 1063 z "},"Ȅ":{"ha":840,"x_min":92,"x_max":769,"o":"m 99 0 l 99 979 l 769 979 l 769 811 l 304 811 l 304 582 l 739 582 l 739 413 l 304 413 l 304 168 l 769 168 l 769 0 l 99 0 m 511 1063 l 329 1306 l 511 1306 l 629 1063 l 511 1063 m 292 1063 l 92 1306 l 274 1306 l 408 1063 l 292 1063 z "},"Ë":{"ha":840,"x_min":99,"x_max":769,"o":"m 99 0 l 99 979 l 769 979 l 769 811 l 304 811 l 304 582 l 739 582 l 739 413 l 304 413 l 304 168 l 769 168 l 769 0 l 99 0 m 504 1085 l 504 1268 l 689 1268 l 689 1085 l 504 1085 m 231 1085 l 231 1268 l 415 1268 l 415 1085 l 231 1085 z "},"Ė":{"ha":840,"x_min":99,"x_max":769,"o":"m 99 0 l 99 979 l 769 979 l 769 811 l 304 811 l 304 582 l 739 582 l 739 413 l 304 413 l 304 168 l 769 168 l 769 0 l 99 0 m 363 1092 l 363 1276 l 557 1276 l 557 1092 l 363 1092 z "},"Ẹ":{"ha":840,"x_min":99,"x_max":769,"o":"m 99 0 l 99 979 l 769 979 l 769 811 l 304 811 l 304 582 l 739 582 l 739 413 l 304 413 l 304 168 l 769 168 l 769 0 l 99 0 m 363 -297 l 363 -112 l 557 -112 l 557 -297 l 363 -297 z "},"È":{"ha":840,"x_min":99,"x_max":769,"o":"m 99 0 l 99 979 l 769 979 l 769 811 l 304 811 l 304 582 l 739 582 l 739 413 l 304 413 l 304 168 l 769 168 l 769 0 l 99 0 m 388 1063 l 156 1306 l 369 1306 l 533 1063 l 388 1063 z "},"Ẻ":{"ha":840,"x_min":99,"x_max":769,"o":"m 99 0 l 99 979 l 769 979 l 769 811 l 304 811 l 304 582 l 739 582 l 739 413 l 304 413 l 304 168 l 769 168 l 769 0 l 99 0 m 399 1063 l 399 1089 q 417 1136 399 1119 q 453 1165 435 1153 q 471 1196 471 1178 q 421 1221 471 1221 q 339 1204 381 1221 l 308 1286 q 474 1317 371 1317 q 585 1293 544 1317 q 626 1228 626 1269 q 610 1177 626 1196 q 574 1146 594 1158 q 538 1119 553 1133 q 522 1081 522 1104 l 522 1063 l 399 1063 z "},"Ȇ":{"ha":840,"x_min":99,"x_max":769,"o":"m 99 0 l 99 979 l 769 979 l 769 811 l 304 811 l 304 582 l 739 582 l 739 413 l 304 413 l 304 168 l 769 168 l 769 0 l 99 0 m 311 1056 l 196 1071 q 274 1244 203 1179 q 460 1308 346 1308 q 645 1244 574 1308 q 725 1071 717 1179 l 610 1056 q 563 1153 603 1118 q 460 1188 524 1188 q 356 1153 394 1188 q 311 1056 317 1118 z "},"Ē":{"ha":840,"x_min":99,"x_max":769,"o":"m 99 0 l 99 979 l 769 979 l 769 811 l 304 811 l 304 582 l 739 582 l 739 413 l 304 413 l 304 168 l 769 168 l 769 0 l 99 0 m 213 1113 l 213 1231 l 707 1231 l 707 1113 l 213 1113 z "},"Ḗ":{"ha":840,"x_min":99,"x_max":769,"o":"m 99 0 l 99 979 l 769 979 l 769 811 l 304 811 l 304 582 l 739 582 l 739 413 l 304 413 l 304 168 l 769 168 l 769 0 l 99 0 m 396 1251 l 488 1428 l 682 1428 l 524 1251 l 396 1251 m 233 1082 l 233 1200 l 686 1200 l 686 1082 l 233 1082 z "},"Ḕ":{"ha":840,"x_min":99,"x_max":769,"o":"m 99 0 l 99 979 l 769 979 l 769 811 l 304 811 l 304 582 l 739 582 l 739 413 l 304 413 l 304 168 l 769 168 l 769 0 l 99 0 m 396 1251 l 239 1428 l 432 1428 l 524 1251 l 396 1251 m 233 1082 l 233 1200 l 686 1200 l 686 1082 l 233 1082 z "},"Ę":{"ha":840,"x_min":99,"x_max":790,"o":"m 99 0 l 99 979 l 769 979 l 769 811 l 304 811 l 304 582 l 739 582 l 739 413 l 304 413 l 304 168 l 769 168 l 769 0 l 99 0 m 664 -274 q 536 -233 582 -274 q 490 -124 490 -192 q 531 -12 490 -62 q 638 63 571 38 l 696 0 q 638 -41 660 -14 q 617 -100 617 -68 q 639 -149 617 -132 q 693 -167 661 -167 q 731 -162 714 -167 q 769 -151 749 -158 l 790 -249 q 664 -274 733 -274 z "},"Ẽ":{"ha":840,"x_min":99,"x_max":781,"o":"m 99 0 l 99 979 l 769 979 l 769 811 l 304 811 l 304 582 l 739 582 l 739 413 l 304 413 l 304 168 l 769 168 l 769 0 l 99 0 m 238 1064 l 139 1069 q 200 1231 146 1175 q 336 1288 254 1288 q 404 1276 371 1288 q 481 1242 438 1265 q 547 1212 524 1219 q 588 1204 569 1204 q 682 1293 665 1204 l 781 1288 q 719 1126 774 1182 q 585 1069 665 1069 q 513 1082 549 1069 q 436 1117 478 1094 q 375 1145 397 1138 q 332 1153 353 1153 q 238 1064 256 1153 z "},"F":{"ha":792,"x_min":99,"x_max":760,"o":"m 99 0 l 99 979 l 760 979 l 760 811 l 314 811 l 314 572 l 729 572 l 729 404 l 314 404 l 314 0 l 99 0 z "},"G":{"ha":1031,"x_min":69,"x_max":939,"o":"m 583 -15 q 303 47 418 -15 q 129 222 189 110 q 69 486 69 335 q 131 756 69 642 q 310 932 193 869 q 590 994 426 994 q 785 965 693 994 q 936 888 878 936 l 867 719 q 736 787 803 767 q 592 807 669 807 q 369 724 443 807 q 294 486 294 642 q 370 249 294 329 q 594 168 446 168 q 761 193 674 168 l 761 385 l 550 385 l 550 540 l 939 540 l 939 60 q 772 4 867 24 q 583 -15 678 -15 z "},"Ğ":{"ha":1031,"x_min":69,"x_max":939,"o":"m 583 -15 q 303 47 418 -15 q 129 222 189 110 q 69 486 69 335 q 131 756 69 642 q 310 932 193 869 q 590 994 426 994 q 785 965 693 994 q 936 888 878 936 l 867 719 q 736 787 803 767 q 592 807 669 807 q 369 724 443 807 q 294 486 294 642 q 370 249 294 329 q 594 168 446 168 q 761 193 674 168 l 761 385 l 550 385 l 550 540 l 939 540 l 939 60 q 772 4 867 24 q 583 -15 678 -15 m 565 1056 q 380 1120 451 1056 q 301 1293 308 1185 l 417 1308 q 461 1211 422 1246 q 565 1176 500 1176 q 669 1211 629 1176 q 715 1308 708 1246 l 831 1293 q 751 1120 822 1185 q 565 1056 679 1056 z "},"Ǧ":{"ha":1031,"x_min":69,"x_max":939,"o":"m 583 -15 q 303 47 418 -15 q 129 222 189 110 q 69 486 69 335 q 131 756 69 642 q 310 932 193 869 q 590 994 426 994 q 785 965 693 994 q 936 888 878 936 l 867 719 q 736 787 803 767 q 592 807 669 807 q 369 724 443 807 q 294 486 294 642 q 370 249 294 329 q 594 168 446 168 q 761 193 674 168 l 761 385 l 550 385 l 550 540 l 939 540 l 939 60 q 772 4 867 24 q 583 -15 678 -15 m 478 1063 l 304 1306 l 447 1306 l 565 1174 l 683 1306 l 826 1306 l 653 1063 l 478 1063 z "},"Ĝ":{"ha":1031,"x_min":69,"x_max":939,"o":"m 583 -15 q 303 47 418 -15 q 129 222 189 110 q 69 486 69 335 q 131 756 69 642 q 310 932 193 869 q 590 994 426 994 q 785 965 693 994 q 936 888 878 936 l 867 719 q 736 787 803 767 q 592 807 669 807 q 369 724 443 807 q 294 486 294 642 q 370 249 294 329 q 594 168 446 168 q 761 193 674 168 l 761 385 l 550 385 l 550 540 l 939 540 l 939 60 q 772 4 867 24 q 583 -15 678 -15 m 304 1063 l 478 1306 l 653 1306 l 826 1063 l 683 1063 l 565 1194 l 447 1063 l 304 1063 z "},"Ģ":{"ha":1031,"x_min":69,"x_max":939,"o":"m 583 -15 q 303 47 418 -15 q 129 222 189 110 q 69 486 69 335 q 131 756 69 642 q 310 932 193 869 q 590 994 426 994 q 785 965 693 994 q 936 888 878 936 l 867 719 q 736 787 803 767 q 592 807 669 807 q 369 724 443 807 q 294 486 294 642 q 370 249 294 329 q 594 168 446 168 q 761 193 674 168 l 761 385 l 550 385 l 550 540 l 939 540 l 939 60 q 772 4 867 24 q 583 -15 678 -15 m 594 -394 l 519 -344 q 556 -300 544 -322 q 571 -254 568 -278 l 471 -254 l 471 -96 l 678 -96 l 678 -194 q 659 -305 678 -256 q 594 -394 640 -354 z "},"Ġ":{"ha":1031,"x_min":69,"x_max":939,"o":"m 583 -15 q 303 47 418 -15 q 129 222 189 110 q 69 486 69 335 q 131 756 69 642 q 310 932 193 869 q 590 994 426 994 q 785 965 693 994 q 936 888 878 936 l 867 719 q 736 787 803 767 q 592 807 669 807 q 369 724 443 807 q 294 486 294 642 q 370 249 294 329 q 594 168 446 168 q 761 193 674 168 l 761 385 l 550 385 l 550 540 l 939 540 l 939 60 q 772 4 867 24 q 583 -15 678 -15 m 468 1092 l 468 1276 l 663 1276 l 663 1092 l 468 1092 z "},"Ḡ":{"ha":1031,"x_min":69,"x_max":939,"o":"m 583 -15 q 303 47 418 -15 q 129 222 189 110 q 69 486 69 335 q 131 756 69 642 q 310 932 193 869 q 590 994 426 994 q 785 965 693 994 q 936 888 878 936 l 867 719 q 736 787 803 767 q 592 807 669 807 q 369 724 443 807 q 294 486 294 642 q 370 249 294 329 q 594 168 446 168 q 761 193 674 168 l 761 385 l 550 385 l 550 540 l 939 540 l 939 60 q 772 4 867 24 q 583 -15 678 -15 m 318 1113 l 318 1231 l 813 1231 l 813 1113 l 318 1113 z "},"H":{"ha":1083,"x_min":99,"x_max":985,"o":"m 99 0 l 99 979 l 314 979 l 314 586 l 769 586 l 769 979 l 985 979 l 985 0 l 769 0 l 769 407 l 314 407 l 314 0 l 99 0 z "},"Ħ":{"ha":1151,"x_min":19,"x_max":1132,"o":"m 132 0 l 132 703 l 19 703 l 19 858 l 132 858 l 132 979 l 347 979 l 347 858 l 803 858 l 803 979 l 1018 979 l 1018 858 l 1132 858 l 1132 703 l 1018 703 l 1018 0 l 803 0 l 803 389 l 347 389 l 347 0 l 132 0 m 347 568 l 803 568 l 803 703 l 347 703 l 347 568 z "},"Ḫ":{"ha":1083,"x_min":99,"x_max":985,"o":"m 99 0 l 99 979 l 314 979 l 314 586 l 769 586 l 769 979 l 985 979 l 985 0 l 769 0 l 769 407 l 314 407 l 314 0 l 99 0 m 542 -299 q 370 -240 436 -299 q 301 -83 304 -182 l 417 -72 q 454 -151 422 -122 q 542 -179 486 -179 q 629 -151 597 -179 q 667 -72 661 -122 l 782 -83 q 714 -240 779 -182 q 542 -299 649 -299 z "},"Ĥ":{"ha":1083,"x_min":99,"x_max":985,"o":"m 99 0 l 99 979 l 314 979 l 314 586 l 769 586 l 769 979 l 985 979 l 985 0 l 769 0 l 769 407 l 314 407 l 314 0 l 99 0 m 279 1063 l 453 1306 l 628 1306 l 801 1063 l 658 1063 l 540 1194 l 422 1063 l 279 1063 z "},"Ḥ":{"ha":1083,"x_min":99,"x_max":985,"o":"m 99 0 l 99 979 l 314 979 l 314 586 l 769 586 l 769 979 l 985 979 l 985 0 l 769 0 l 769 407 l 314 407 l 314 0 l 99 0 m 444 -297 l 444 -112 l 639 -112 l 639 -297 l 444 -297 z "},"I":{"ha":411,"x_min":99,"x_max":314,"o":"m 99 0 l 99 979 l 314 979 l 314 0 l 99 0 z "},"Ĳ":{"ha":929,"x_min":99,"x_max":831,"o":"m 99 0 l 99 979 l 314 979 l 314 0 l 99 0 m 413 -14 l 397 161 l 504 167 q 615 283 615 174 l 615 979 l 831 979 l 831 286 q 539 -8 831 11 l 413 -14 z "},"Í":{"ha":411,"x_min":99,"x_max":510,"o":"m 99 0 l 99 979 l 314 979 l 314 0 l 99 0 m 133 1063 l 297 1306 l 510 1306 l 279 1063 l 133 1063 z "},"Ĭ":{"ha":411,"x_min":-58,"x_max":471,"o":"m 99 0 l 99 979 l 314 979 l 314 0 l 99 0 m 206 1056 q 20 1120 92 1056 q -58 1293 -51 1185 l 57 1308 q 101 1211 63 1246 q 206 1176 140 1176 q 309 1211 269 1176 q 356 1308 349 1246 l 471 1293 q 391 1120 463 1185 q 206 1056 319 1056 z "},"Î":{"ha":411,"x_min":-56,"x_max":467,"o":"m 99 0 l 99 979 l 314 979 l 314 0 l 99 0 m -56 1063 l 118 1306 l 293 1306 l 467 1063 l 324 1063 l 206 1194 l 88 1063 l -56 1063 z "},"Ȉ":{"ha":411,"x_min":-162,"x_max":375,"o":"m 99 0 l 99 979 l 314 979 l 314 0 l 99 0 m 257 1063 l 75 1306 l 257 1306 l 375 1063 l 257 1063 m 38 1063 l -162 1306 l 19 1306 l 154 1063 l 38 1063 z "},"Ï":{"ha":411,"x_min":-24,"x_max":435,"o":"m 99 0 l 99 979 l 314 979 l 314 0 l 99 0 m 250 1085 l 250 1268 l 435 1268 l 435 1085 l 250 1085 m -24 1085 l -24 1268 l 161 1268 l 161 1085 l -24 1085 z "},"Ḯ":{"ha":411,"x_min":-24,"x_max":435,"o":"m 99 0 l 99 979 l 314 979 l 314 0 l 99 0 m 142 1251 l 233 1428 l 428 1428 l 269 1251 l 142 1251 m -24 1069 l -24 1203 l 161 1203 l 161 1069 l -24 1069 m 250 1069 l 250 1203 l 435 1203 l 435 1069 l 250 1069 z "},"İ":{"ha":411,"x_min":99,"x_max":314,"o":"m 99 0 l 99 979 l 314 979 l 314 0 l 99 0 m 108 1092 l 108 1276 l 303 1276 l 303 1092 l 108 1092 z "},"Ị":{"ha":411,"x_min":99,"x_max":314,"o":"m 99 0 l 99 979 l 314 979 l 314 0 l 99 0 m 108 -297 l 108 -112 l 303 -112 l 303 -297 l 108 -297 z "},"Ì":{"ha":411,"x_min":-99,"x_max":314,"o":"m 99 0 l 99 979 l 314 979 l 314 0 l 99 0 m 133 1063 l -99 1306 l 115 1306 l 279 1063 l 133 1063 z "},"Ỉ":{"ha":411,"x_min":54,"x_max":372,"o":"m 99 0 l 99 979 l 314 979 l 314 0 l 99 0 m 144 1063 l 144 1089 q 163 1136 144 1119 q 199 1165 181 1153 q 217 1196 217 1178 q 167 1221 217 1221 q 85 1204 126 1221 l 54 1286 q 219 1317 117 1317 q 331 1293 290 1317 q 372 1228 372 1269 q 356 1177 372 1196 q 319 1146 340 1158 q 283 1119 299 1133 q 268 1081 268 1104 l 268 1063 l 144 1063 z "},"Ȋ":{"ha":411,"x_min":-58,"x_max":471,"o":"m 99 0 l 99 979 l 314 979 l 314 0 l 99 0 m 57 1056 l -58 1071 q 20 1244 -51 1179 q 206 1308 92 1308 q 391 1244 319 1308 q 471 1071 463 1179 l 356 1056 q 309 1153 349 1118 q 206 1188 269 1188 q 101 1153 140 1188 q 57 1056 63 1118 z "},"Ī":{"ha":411,"x_min":-42,"x_max":453,"o":"m 99 0 l 99 979 l 314 979 l 314 0 l 99 0 m -42 1113 l -42 1231 l 453 1231 l 453 1113 l -42 1113 z "},"Į":{"ha":411,"x_min":58,"x_max":358,"o":"m 99 0 l 99 979 l 314 979 l 314 0 l 99 0 m 232 -274 q 104 -233 150 -274 q 58 -124 58 -192 q 99 -12 58 -62 q 206 63 139 38 l 264 0 q 206 -41 228 -14 q 185 -100 185 -68 q 207 -149 185 -132 q 261 -167 229 -167 q 299 -162 282 -167 q 338 -151 317 -158 l 358 -249 q 232 -274 301 -274 z "},"Ĩ":{"ha":411,"x_min":-115,"x_max":526,"o":"m 99 0 l 99 979 l 314 979 l 314 0 l 99 0 m -17 1064 l -115 1069 q -54 1231 -108 1175 q 82 1288 0 1288 q 150 1276 117 1288 q 226 1242 183 1265 q 292 1212 269 1219 q 333 1204 315 1204 q 428 1293 411 1204 l 526 1288 q 465 1126 519 1182 q 331 1069 411 1069 q 259 1082 294 1069 q 182 1117 224 1094 q 121 1145 143 1138 q 78 1153 99 1153 q -17 1064 1 1153 z "},"J":{"ha":518,"x_min":-14,"x_max":419,"o":"m 1 -14 l -14 161 l 93 167 q 204 283 204 174 l 204 979 l 419 979 l 419 286 q 128 -8 419 11 l 1 -14 z "},"Ĵ":{"ha":518,"x_min":-14,"x_max":571,"o":"m 1 -14 l -14 161 l 93 167 q 204 283 204 174 l 204 979 l 419 979 l 419 286 q 128 -8 419 11 l 1 -14 m 49 1063 l 222 1306 l 397 1306 l 571 1063 l 428 1063 l 310 1194 l 192 1063 l 49 1063 z "},"K":{"ha":954,"x_min":99,"x_max":1001,"o":"m 99 0 l 99 979 l 314 979 l 314 553 l 317 553 l 724 979 l 982 979 l 526 511 l 1001 0 l 740 0 l 317 447 l 314 447 l 314 0 l 99 0 z "},"Ķ":{"ha":954,"x_min":99,"x_max":1001,"o":"m 99 0 l 99 979 l 314 979 l 314 553 l 317 553 l 724 979 l 982 979 l 526 511 l 1001 0 l 740 0 l 317 447 l 314 447 l 314 0 l 99 0 m 493 -394 l 418 -344 q 455 -300 443 -322 q 469 -254 467 -278 l 369 -254 l 369 -96 l 576 -96 l 576 -194 q 558 -305 576 -256 q 493 -394 539 -354 z "},"L":{"ha":796,"x_min":99,"x_max":767,"o":"m 99 0 l 99 979 l 314 979 l 314 182 l 767 182 l 767 0 l 99 0 z "},"Ǉ":{"ha":1369,"x_min":99,"x_max":1271,"o":"m 99 0 l 99 979 l 314 979 l 314 182 l 767 182 l 767 0 l 99 0 m 853 -14 l 838 161 l 944 167 q 1056 283 1056 174 l 1056 979 l 1271 979 l 1271 286 q 979 -8 1271 11 l 853 -14 z "},"Ĺ":{"ha":796,"x_min":99,"x_max":767,"o":"m 99 0 l 99 979 l 314 979 l 314 182 l 767 182 l 767 0 l 99 0 m 133 1063 l 297 1306 l 510 1306 l 279 1063 l 133 1063 z "},"Ľ":{"ha":796,"x_min":99,"x_max":767,"o":"m 99 0 l 99 979 l 314 979 l 314 182 l 767 182 l 767 0 l 99 0 m 454 642 l 454 979 l 610 979 l 576 642 l 454 642 z "},"Ļ":{"ha":796,"x_min":99,"x_max":767,"o":"m 99 0 l 99 979 l 314 979 l 314 182 l 767 182 l 767 0 l 99 0 m 453 -394 l 378 -344 q 415 -300 403 -322 q 429 -254 426 -278 l 329 -254 l 329 -96 l 536 -96 l 536 -194 q 517 -305 536 -256 q 453 -394 499 -354 z "},"Ŀ":{"ha":796,"x_min":99,"x_max":767,"o":"m 99 0 l 99 979 l 314 979 l 314 182 l 767 182 l 767 0 l 99 0 m 494 453 l 494 647 l 721 647 l 721 453 l 494 453 z "},"Ḷ":{"ha":796,"x_min":99,"x_max":767,"o":"m 99 0 l 99 979 l 314 979 l 314 182 l 767 182 l 767 0 l 99 0 m 336 -297 l 336 -112 l 531 -112 l 531 -297 l 336 -297 z "},"ǈ":{"ha":1175,"x_min":99,"x_max":1100,"o":"m 99 0 l 99 979 l 314 979 l 314 182 l 767 182 l 767 0 l 99 0 m 874 814 l 874 1010 l 1100 1010 l 1100 814 l 874 814 m 738 -268 l 724 -118 l 789 -111 q 883 -3 883 -100 l 883 682 l 1093 682 l 1093 25 q 1065 -132 1093 -71 q 972 -225 1036 -193 q 797 -264 907 -257 l 738 -268 z "},"Ḻ":{"ha":796,"x_min":99,"x_max":767,"o":"m 99 0 l 99 979 l 314 979 l 314 182 l 767 182 l 767 0 l 99 0 m 207 -236 l 207 -118 l 660 -118 l 660 -236 l 207 -236 z "},"Ł":{"ha":796,"x_min":-62,"x_max":767,"o":"m 99 0 l 99 979 l 314 979 l 314 182 l 767 182 l 767 0 l 99 0 m 15 297 l -62 438 l 526 776 l 604 636 l 15 297 z "},"M":{"ha":1217,"x_min":101,"x_max":1117,"o":"m 101 0 l 101 979 l 281 979 l 611 378 l 940 979 l 1117 979 l 1117 0 l 921 0 l 921 597 l 668 147 l 547 147 l 296 593 l 296 0 l 101 0 z "},"Ṃ":{"ha":1217,"x_min":101,"x_max":1117,"o":"m 101 0 l 101 979 l 281 979 l 611 378 l 940 979 l 1117 979 l 1117 0 l 921 0 l 921 597 l 668 147 l 547 147 l 296 593 l 296 0 l 101 0 m 513 -297 l 513 -112 l 707 -112 l 707 -297 l 513 -297 z "},"N":{"ha":1046,"x_min":99,"x_max":947,"o":"m 99 0 l 99 979 l 258 979 l 747 356 l 747 979 l 947 979 l 947 0 l 789 0 l 299 625 l 299 0 l 99 0 z "},"Ǌ":{"ha":1563,"x_min":99,"x_max":1465,"o":"m 99 0 l 99 979 l 258 979 l 747 356 l 747 979 l 947 979 l 947 0 l 789 0 l 299 625 l 299 0 l 99 0 m 1047 -14 l 1032 161 l 1139 167 q 1250 283 1250 174 l 1250 979 l 1465 979 l 1465 286 q 1174 -8 1465 11 l 1047 -14 z "},"Ń":{"ha":1046,"x_min":99,"x_max":947,"o":"m 99 0 l 99 979 l 258 979 l 747 356 l 747 979 l 947 979 l 947 0 l 789 0 l 299 625 l 299 0 l 99 0 m 450 1063 l 614 1306 l 826 1306 l 596 1063 l 450 1063 z "},"Ň":{"ha":1046,"x_min":99,"x_max":947,"o":"m 99 0 l 99 979 l 258 979 l 747 356 l 747 979 l 947 979 l 947 0 l 789 0 l 299 625 l 299 0 l 99 0 m 435 1063 l 261 1306 l 404 1306 l 522 1174 l 640 1306 l 783 1306 l 610 1063 l 435 1063 z "},"Ņ":{"ha":1046,"x_min":99,"x_max":947,"o":"m 99 0 l 99 979 l 258 979 l 747 356 l 747 979 l 947 979 l 947 0 l 789 0 l 299 625 l 299 0 l 99 0 m 543 -394 l 468 -344 q 505 -300 493 -322 q 519 -254 517 -278 l 419 -254 l 419 -96 l 626 -96 l 626 -194 q 608 -305 626 -256 q 543 -394 589 -354 z "},"Ṅ":{"ha":1046,"x_min":99,"x_max":947,"o":"m 99 0 l 99 979 l 258 979 l 747 356 l 747 979 l 947 979 l 947 0 l 789 0 l 299 625 l 299 0 l 99 0 m 425 1092 l 425 1276 l 619 1276 l 619 1092 l 425 1092 z "},"Ṇ":{"ha":1046,"x_min":99,"x_max":947,"o":"m 99 0 l 99 979 l 258 979 l 747 356 l 747 979 l 947 979 l 947 0 l 789 0 l 299 625 l 299 0 l 99 0 m 426 -297 l 426 -112 l 621 -112 l 621 -297 l 426 -297 z "},"Ŋ":{"ha":1046,"x_min":99,"x_max":947,"o":"m 592 -268 l 578 -118 l 647 -111 q 747 -3 747 -100 l 747 53 l 299 625 l 299 0 l 99 0 l 99 979 l 258 979 l 747 356 l 747 979 l 947 979 l 947 25 q 919 -132 947 -71 q 826 -225 890 -193 q 653 -264 761 -257 l 592 -268 z "},"ǋ":{"ha":1424,"x_min":99,"x_max":1350,"o":"m 99 0 l 99 979 l 258 979 l 747 356 l 747 979 l 947 979 l 947 0 l 789 0 l 299 625 l 299 0 l 99 0 m 1124 814 l 1124 1010 l 1350 1010 l 1350 814 l 1124 814 m 988 -268 l 974 -118 l 1039 -111 q 1133 -3 1133 -100 l 1133 682 l 1343 682 l 1343 25 q 1315 -132 1343 -71 q 1222 -225 1286 -193 q 1047 -264 1157 -257 l 988 -268 z "},"Ṉ":{"ha":1046,"x_min":99,"x_max":947,"o":"m 99 0 l 99 979 l 258 979 l 747 356 l 747 979 l 947 979 l 947 0 l 789 0 l 299 625 l 299 0 l 99 0 m 297 -236 l 297 -118 l 750 -118 l 750 -236 l 297 -236 z "},"Ñ":{"ha":1046,"x_min":99,"x_max":947,"o":"m 99 0 l 99 979 l 258 979 l 747 356 l 747 979 l 947 979 l 947 0 l 789 0 l 299 625 l 299 0 l 99 0 m 300 1064 l 201 1069 q 263 1231 208 1175 q 399 1288 317 1288 q 467 1276 433 1288 q 543 1242 500 1265 q 609 1212 586 1219 q 650 1204 632 1204 q 744 1293 728 1204 l 843 1288 q 782 1126 836 1182 q 647 1069 728 1069 q 576 1082 611 1069 q 499 1117 540 1094 q 438 1145 460 1138 q 394 1153 415 1153 q 300 1064 318 1153 z "},"O":{"ha":1106,"x_min":69,"x_max":1038,"o":"m 553 -15 q 299 48 408 -15 q 130 224 190 111 q 69 490 69 338 q 130 756 69 643 q 299 932 190 869 q 553 994 407 994 q 808 932 699 994 q 977 756 917 869 q 1038 492 1038 643 q 977 225 1038 339 q 808 48 917 111 q 553 -15 699 -15 m 553 168 q 744 253 675 168 q 813 490 813 339 q 744 727 813 643 q 553 811 676 811 q 363 727 432 811 q 294 490 294 643 q 363 253 294 339 q 553 168 432 168 z "},"Ó":{"ha":1106,"x_min":69,"x_max":1038,"o":"m 553 -15 q 299 48 408 -15 q 130 224 190 111 q 69 490 69 338 q 130 756 69 643 q 299 932 190 869 q 553 994 407 994 q 808 932 699 994 q 977 756 917 869 q 1038 492 1038 643 q 977 225 1038 339 q 808 48 917 111 q 553 -15 699 -15 m 553 168 q 744 253 675 168 q 813 490 813 339 q 744 727 813 643 q 553 811 676 811 q 363 727 432 811 q 294 490 294 643 q 363 253 294 339 q 553 168 432 168 m 479 1063 l 643 1306 l 856 1306 l 625 1063 l 479 1063 z "},"Ŏ":{"ha":1106,"x_min":69,"x_max":1038,"o":"m 553 -15 q 299 48 408 -15 q 130 224 190 111 q 69 490 69 338 q 130 756 69 643 q 299 932 190 869 q 553 994 407 994 q 808 932 699 994 q 977 756 917 869 q 1038 492 1038 643 q 977 225 1038 339 q 808 48 917 111 q 553 -15 699 -15 m 553 168 q 744 253 675 168 q 813 490 813 339 q 744 727 813 643 q 553 811 676 811 q 363 727 432 811 q 294 490 294 643 q 363 253 294 339 q 553 168 432 168 m 551 1056 q 366 1120 438 1056 q 288 1293 294 1185 l 403 1308 q 447 1211 408 1246 q 551 1176 486 1176 q 655 1211 615 1176 q 701 1308 694 1246 l 817 1293 q 737 1120 808 1185 q 551 1056 665 1056 z "},"Ô":{"ha":1106,"x_min":69,"x_max":1038,"o":"m 553 -15 q 299 48 408 -15 q 130 224 190 111 q 69 490 69 338 q 130 756 69 643 q 299 932 190 869 q 553 994 407 994 q 808 932 699 994 q 977 756 917 869 q 1038 492 1038 643 q 977 225 1038 339 q 808 48 917 111 q 553 -15 699 -15 m 553 168 q 744 253 675 168 q 813 490 813 339 q 744 727 813 643 q 553 811 676 811 q 363 727 432 811 q 294 490 294 643 q 363 253 294 339 q 553 168 432 168 m 290 1063 l 464 1306 l 639 1306 l 813 1063 l 669 1063 l 551 1194 l 433 1063 l 290 1063 z "},"Ố":{"ha":1106,"x_min":69,"x_max":1038,"o":"m 553 -15 q 299 48 408 -15 q 130 224 190 111 q 69 490 69 338 q 130 756 69 643 q 299 932 190 869 q 553 994 407 994 q 808 932 699 994 q 977 756 917 869 q 1038 492 1038 643 q 977 225 1038 339 q 808 48 917 111 q 553 -15 699 -15 m 553 168 q 744 253 675 168 q 813 490 813 339 q 744 727 813 643 q 553 811 676 811 q 363 727 432 811 q 294 490 294 643 q 363 253 294 339 q 553 168 432 168 m 714 1214 l 829 1422 l 996 1422 l 829 1214 l 714 1214 m 308 1063 l 463 1290 l 640 1290 l 794 1063 l 664 1063 l 551 1183 l 439 1063 l 308 1063 z "},"Ộ":{"ha":1106,"x_min":69,"x_max":1038,"o":"m 553 -15 q 299 48 408 -15 q 130 224 190 111 q 69 490 69 338 q 130 756 69 643 q 299 932 190 869 q 553 994 407 994 q 808 932 699 994 q 977 756 917 869 q 1038 492 1038 643 q 977 225 1038 339 q 808 48 917 111 q 553 -15 699 -15 m 553 168 q 744 253 675 168 q 813 490 813 339 q 744 727 813 643 q 553 811 676 811 q 363 727 432 811 q 294 490 294 643 q 363 253 294 339 q 553 168 432 168 m 454 -297 l 454 -112 l 649 -112 l 649 -297 l 454 -297 m 290 1063 l 464 1306 l 639 1306 l 813 1063 l 669 1063 l 551 1194 l 433 1063 l 290 1063 z "},"Ồ":{"ha":1106,"x_min":69,"x_max":1038,"o":"m 553 -15 q 299 48 408 -15 q 130 224 190 111 q 69 490 69 338 q 130 756 69 643 q 299 932 190 869 q 553 994 407 994 q 808 932 699 994 q 977 756 917 869 q 1038 492 1038 643 q 977 225 1038 339 q 808 48 917 111 q 553 -15 699 -15 m 553 168 q 744 253 675 168 q 813 490 813 339 q 744 727 813 643 q 553 811 676 811 q 363 727 432 811 q 294 490 294 643 q 363 253 294 339 q 553 168 432 168 m 768 1214 l 601 1422 l 768 1422 l 883 1214 l 768 1214 m 308 1063 l 463 1290 l 640 1290 l 794 1063 l 664 1063 l 551 1183 l 439 1063 l 308 1063 z "},"Ổ":{"ha":1106,"x_min":69,"x_max":1038,"o":"m 553 -15 q 299 48 408 -15 q 130 224 190 111 q 69 490 69 338 q 130 756 69 643 q 299 932 190 869 q 553 994 407 994 q 808 932 699 994 q 977 756 917 869 q 1038 492 1038 643 q 977 225 1038 339 q 808 48 917 111 q 553 -15 699 -15 m 553 168 q 744 253 675 168 q 813 490 813 339 q 744 727 813 643 q 553 811 676 811 q 363 727 432 811 q 294 490 294 643 q 363 253 294 339 q 553 168 432 168 m 714 1214 q 729 1260 714 1243 q 760 1291 744 1278 q 775 1322 775 1304 q 763 1338 775 1333 q 733 1343 751 1343 q 694 1340 714 1343 q 656 1326 675 1336 l 631 1400 q 693 1420 660 1413 q 776 1428 726 1428 q 875 1408 840 1428 q 910 1357 910 1389 q 897 1315 910 1332 q 867 1283 883 1297 q 837 1252 850 1268 q 824 1214 824 1236 l 714 1214 m 308 1063 l 463 1290 l 640 1290 l 794 1063 l 664 1063 l 551 1183 l 439 1063 l 308 1063 z "},"Ỗ":{"ha":1106,"x_min":69,"x_max":1038,"o":"m 553 -15 q 299 48 408 -15 q 130 224 190 111 q 69 490 69 338 q 130 756 69 643 q 299 932 190 869 q 553 994 407 994 q 808 932 699 994 q 977 756 917 869 q 1038 492 1038 643 q 977 225 1038 339 q 808 48 917 111 q 553 -15 699 -15 m 553 168 q 744 253 675 168 q 813 490 813 339 q 744 727 813 643 q 553 811 676 811 q 363 727 432 811 q 294 490 294 643 q 363 253 294 339 q 553 168 432 168 m 393 1282 l 301 1286 q 350 1403 306 1364 q 458 1442 394 1442 q 510 1434 485 1442 q 565 1411 535 1426 q 639 1388 615 1388 q 710 1443 699 1388 l 801 1438 q 753 1321 797 1360 q 646 1282 710 1282 q 592 1291 618 1282 q 536 1314 565 1300 q 494 1332 510 1326 q 465 1338 478 1338 q 417 1324 433 1338 q 393 1282 400 1310 m 308 1063 l 463 1250 l 640 1250 l 794 1063 l 669 1063 l 551 1151 l 435 1063 l 308 1063 z "},"Ȍ":{"ha":1106,"x_min":69,"x_max":1038,"o":"m 553 -15 q 299 48 408 -15 q 130 224 190 111 q 69 490 69 338 q 130 756 69 643 q 299 932 190 869 q 553 994 407 994 q 808 932 699 994 q 977 756 917 869 q 1038 492 1038 643 q 977 225 1038 339 q 808 48 917 111 q 553 -15 699 -15 m 553 168 q 744 253 675 168 q 813 490 813 339 q 744 727 813 643 q 553 811 676 811 q 363 727 432 811 q 294 490 294 643 q 363 253 294 339 q 553 168 432 168 m 603 1063 l 421 1306 l 603 1306 l 721 1063 l 603 1063 m 383 1063 l 183 1306 l 365 1306 l 500 1063 l 383 1063 z "},"Ö":{"ha":1106,"x_min":69,"x_max":1038,"o":"m 553 -15 q 299 48 408 -15 q 130 224 190 111 q 69 490 69 338 q 130 756 69 643 q 299 932 190 869 q 553 994 407 994 q 808 932 699 994 q 977 756 917 869 q 1038 492 1038 643 q 977 225 1038 339 q 808 48 917 111 q 553 -15 699 -15 m 553 168 q 744 253 675 168 q 813 490 813 339 q 744 727 813 643 q 553 811 676 811 q 363 727 432 811 q 294 490 294 643 q 363 253 294 339 q 553 168 432 168 m 596 1085 l 596 1268 l 781 1268 l 781 1085 l 596 1085 m 322 1085 l 322 1268 l 507 1268 l 507 1085 l 322 1085 z "},"Ȫ":{"ha":1106,"x_min":69,"x_max":1038,"o":"m 553 -15 q 299 48 408 -15 q 130 224 190 111 q 69 490 69 338 q 130 756 69 643 q 299 932 190 869 q 553 994 407 994 q 808 932 699 994 q 977 756 917 869 q 1038 492 1038 643 q 977 225 1038 339 q 808 48 917 111 q 553 -15 699 -15 m 553 168 q 744 253 675 168 q 813 490 813 339 q 744 727 813 643 q 553 811 676 811 q 363 727 432 811 q 294 490 294 643 q 363 253 294 339 q 553 168 432 168 m 325 1282 l 325 1400 l 778 1400 l 778 1282 l 325 1282 m 322 1085 l 322 1219 l 507 1219 l 507 1085 l 322 1085 m 596 1085 l 596 1219 l 781 1219 l 781 1085 l 596 1085 z "},"Ȱ":{"ha":1106,"x_min":69,"x_max":1038,"o":"m 553 -15 q 299 48 408 -15 q 130 224 190 111 q 69 490 69 338 q 130 756 69 643 q 299 932 190 869 q 553 994 407 994 q 808 932 699 994 q 977 756 917 869 q 1038 492 1038 643 q 977 225 1038 339 q 808 48 917 111 q 553 -15 699 -15 m 553 168 q 744 253 675 168 q 813 490 813 339 q 744 727 813 643 q 553 811 676 811 q 363 727 432 811 q 294 490 294 643 q 363 253 294 339 q 553 168 432 168 m 325 1282 l 325 1400 l 778 1400 l 778 1282 l 325 1282 m 460 1085 l 460 1219 l 643 1219 l 643 1085 l 460 1085 z "},"Ọ":{"ha":1106,"x_min":69,"x_max":1038,"o":"m 553 -15 q 299 48 408 -15 q 130 224 190 111 q 69 490 69 338 q 130 756 69 643 q 299 932 190 869 q 553 994 407 994 q 808 932 699 994 q 977 756 917 869 q 1038 492 1038 643 q 977 225 1038 339 q 808 48 917 111 q 553 -15 699 -15 m 553 168 q 744 253 675 168 q 813 490 813 339 q 744 727 813 643 q 553 811 676 811 q 363 727 432 811 q 294 490 294 643 q 363 253 294 339 q 553 168 432 168 m 454 -297 l 454 -112 l 649 -112 l 649 -297 l 454 -297 z "},"Ò":{"ha":1106,"x_min":69,"x_max":1038,"o":"m 553 -15 q 299 48 408 -15 q 130 224 190 111 q 69 490 69 338 q 130 756 69 643 q 299 932 190 869 q 553 994 407 994 q 808 932 699 994 q 977 756 917 869 q 1038 492 1038 643 q 977 225 1038 339 q 808 48 917 111 q 553 -15 699 -15 m 553 168 q 744 253 675 168 q 813 490 813 339 q 744 727 813 643 q 553 811 676 811 q 363 727 432 811 q 294 490 294 643 q 363 253 294 339 q 553 168 432 168 m 479 1063 l 247 1306 l 461 1306 l 625 1063 l 479 1063 z "},"Ỏ":{"ha":1106,"x_min":69,"x_max":1038,"o":"m 553 -15 q 299 48 408 -15 q 130 224 190 111 q 69 490 69 338 q 130 756 69 643 q 299 932 190 869 q 553 994 407 994 q 808 932 699 994 q 977 756 917 869 q 1038 492 1038 643 q 977 225 1038 339 q 808 48 917 111 q 553 -15 699 -15 m 553 168 q 744 253 675 168 q 813 490 813 339 q 744 727 813 643 q 553 811 676 811 q 363 727 432 811 q 294 490 294 643 q 363 253 294 339 q 553 168 432 168 m 490 1063 l 490 1089 q 508 1136 490 1119 q 544 1165 526 1153 q 563 1196 563 1178 q 513 1221 563 1221 q 431 1204 472 1221 l 400 1286 q 565 1317 463 1317 q 677 1293 636 1317 q 718 1228 718 1269 q 702 1177 718 1196 q 665 1146 686 1158 q 629 1119 644 1133 q 614 1081 614 1104 l 614 1063 l 490 1063 z "},"Ơ":{"ha":1106,"x_min":69,"x_max":1038,"o":"m 553 -15 q 299 48 408 -15 q 130 224 190 111 q 69 490 69 338 q 130 756 69 643 q 299 932 190 869 q 553 994 407 994 q 808 932 699 994 q 977 756 917 869 q 1038 492 1038 643 q 977 225 1038 339 q 808 48 917 111 q 553 -15 699 -15 m 553 168 q 744 253 675 168 q 813 490 813 339 q 744 727 813 643 q 553 811 676 811 q 363 727 432 811 q 294 490 294 643 q 363 253 294 339 q 553 168 432 168 m 690 879 l 635 985 q 682 981 658 983 q 722 979 706 979 q 819 1007 788 979 q 850 1121 850 1035 l 850 1153 l 1031 1153 l 1031 1094 q 1005 988 1031 1036 q 935 909 979 939 q 833 879 890 879 l 690 879 z "},"Ớ":{"ha":1106,"x_min":69,"x_max":1038,"o":"m 553 -15 q 299 48 408 -15 q 130 224 190 111 q 69 490 69 338 q 130 756 69 643 q 299 932 190 869 q 553 994 407 994 q 808 932 699 994 q 977 756 917 869 q 1038 492 1038 643 q 977 225 1038 339 q 808 48 917 111 q 553 -15 699 -15 m 553 168 q 744 253 675 168 q 813 490 813 339 q 744 727 813 643 q 553 811 676 811 q 363 727 432 811 q 294 490 294 643 q 363 253 294 339 q 553 168 432 168 m 690 879 l 635 985 q 682 981 658 983 q 722 979 706 979 q 819 1007 788 979 q 850 1121 850 1035 l 850 1153 l 1031 1153 l 1031 1094 q 1005 988 1031 1036 q 935 909 979 939 q 833 879 890 879 l 690 879 m 474 1063 l 638 1306 l 850 1306 l 619 1063 l 474 1063 z "},"Ợ":{"ha":1106,"x_min":69,"x_max":1038,"o":"m 553 -15 q 299 48 408 -15 q 130 224 190 111 q 69 490 69 338 q 130 756 69 643 q 299 932 190 869 q 553 994 407 994 q 808 932 699 994 q 977 756 917 869 q 1038 492 1038 643 q 977 225 1038 339 q 808 48 917 111 q 553 -15 699 -15 m 553 168 q 744 253 675 168 q 813 490 813 339 q 744 727 813 643 q 553 811 676 811 q 363 727 432 811 q 294 490 294 643 q 363 253 294 339 q 553 168 432 168 m 690 879 l 635 985 q 682 981 658 983 q 722 979 706 979 q 819 1007 788 979 q 850 1121 850 1035 l 850 1153 l 1031 1153 l 1031 1094 q 1005 988 1031 1036 q 935 909 979 939 q 833 879 890 879 l 690 879 m 450 -297 l 450 -112 l 644 -112 l 644 -297 l 450 -297 z "},"Ờ":{"ha":1106,"x_min":69,"x_max":1038,"o":"m 553 -15 q 299 48 408 -15 q 130 224 190 111 q 69 490 69 338 q 130 756 69 643 q 299 932 190 869 q 553 994 407 994 q 808 932 699 994 q 977 756 917 869 q 1038 492 1038 643 q 977 225 1038 339 q 808 48 917 111 q 553 -15 699 -15 m 553 168 q 744 253 675 168 q 813 490 813 339 q 744 727 813 643 q 553 811 676 811 q 363 727 432 811 q 294 490 294 643 q 363 253 294 339 q 553 168 432 168 m 690 879 l 635 985 q 682 981 658 983 q 722 979 706 979 q 819 1007 788 979 q 850 1121 850 1035 l 850 1153 l 1031 1153 l 1031 1094 q 1005 988 1031 1036 q 935 909 979 939 q 833 879 890 879 l 690 879 m 474 1063 l 242 1306 l 456 1306 l 619 1063 l 474 1063 z "},"Ở":{"ha":1106,"x_min":69,"x_max":1038,"o":"m 553 -15 q 299 48 408 -15 q 130 224 190 111 q 69 490 69 338 q 130 756 69 643 q 299 932 190 869 q 553 994 407 994 q 808 932 699 994 q 977 756 917 869 q 1038 492 1038 643 q 977 225 1038 339 q 808 48 917 111 q 553 -15 699 -15 m 553 168 q 744 253 675 168 q 813 490 813 339 q 744 727 813 643 q 553 811 676 811 q 363 727 432 811 q 294 490 294 643 q 363 253 294 339 q 553 168 432 168 m 690 879 l 635 985 q 682 981 658 983 q 722 979 706 979 q 819 1007 788 979 q 850 1121 850 1035 l 850 1153 l 1031 1153 l 1031 1094 q 1005 988 1031 1036 q 935 909 979 939 q 833 879 890 879 l 690 879 m 485 1063 l 485 1089 q 503 1136 485 1119 q 539 1165 521 1153 q 557 1196 557 1178 q 507 1221 557 1221 q 425 1204 467 1221 l 394 1286 q 560 1317 457 1317 q 672 1293 631 1317 q 713 1228 713 1269 q 697 1177 713 1196 q 660 1146 681 1158 q 624 1119 639 1133 q 608 1081 608 1104 l 608 1063 l 485 1063 z "},"Ỡ":{"ha":1106,"x_min":69,"x_max":1038,"o":"m 553 -15 q 299 48 408 -15 q 130 224 190 111 q 69 490 69 338 q 130 756 69 643 q 299 932 190 869 q 553 994 407 994 q 808 932 699 994 q 977 756 917 869 q 1038 492 1038 643 q 977 225 1038 339 q 808 48 917 111 q 553 -15 699 -15 m 553 168 q 744 253 675 168 q 813 490 813 339 q 744 727 813 643 q 553 811 676 811 q 363 727 432 811 q 294 490 294 643 q 363 253 294 339 q 553 168 432 168 m 690 879 l 635 985 q 682 981 658 983 q 722 979 706 979 q 819 1007 788 979 q 850 1121 850 1035 l 850 1153 l 1031 1153 l 1031 1094 q 1005 988 1031 1036 q 935 909 979 939 q 833 879 890 879 l 690 879 m 338 1064 l 239 1069 q 295 1231 244 1175 q 421 1288 346 1288 q 483 1275 454 1288 q 543 1240 511 1263 q 590 1213 571 1222 q 631 1204 610 1204 q 718 1293 701 1204 l 817 1288 q 760 1126 810 1182 q 635 1069 710 1069 q 570 1083 600 1069 q 510 1118 540 1097 q 465 1144 485 1136 q 426 1153 446 1153 q 338 1064 354 1153 z "},"Ő":{"ha":1106,"x_min":69,"x_max":1038,"o":"m 553 -15 q 299 48 408 -15 q 130 224 190 111 q 69 490 69 338 q 130 756 69 643 q 299 932 190 869 q 553 994 407 994 q 808 932 699 994 q 977 756 917 869 q 1038 492 1038 643 q 977 225 1038 339 q 808 48 917 111 q 553 -15 699 -15 m 553 168 q 744 253 675 168 q 813 490 813 339 q 744 727 813 643 q 553 811 676 811 q 363 727 432 811 q 294 490 294 643 q 363 253 294 339 q 553 168 432 168 m 383 1063 l 501 1306 l 683 1306 l 500 1063 l 383 1063 m 603 1063 l 739 1306 l 921 1306 l 721 1063 l 603 1063 z "},"Ȏ":{"ha":1106,"x_min":69,"x_max":1038,"o":"m 553 -15 q 299 48 408 -15 q 130 224 190 111 q 69 490 69 338 q 130 756 69 643 q 299 932 190 869 q 553 994 407 994 q 808 932 699 994 q 977 756 917 869 q 1038 492 1038 643 q 977 225 1038 339 q 808 48 917 111 q 553 -15 699 -15 m 553 168 q 744 253 675 168 q 813 490 813 339 q 744 727 813 643 q 553 811 676 811 q 363 727 432 811 q 294 490 294 643 q 363 253 294 339 q 553 168 432 168 m 403 1056 l 288 1071 q 366 1244 294 1179 q 551 1308 438 1308 q 737 1244 665 1308 q 817 1071 808 1179 l 701 1056 q 655 1153 694 1118 q 551 1188 615 1188 q 447 1153 486 1188 q 403 1056 408 1118 z "},"Ō":{"ha":1106,"x_min":69,"x_max":1038,"o":"m 553 -15 q 299 48 408 -15 q 130 224 190 111 q 69 490 69 338 q 130 756 69 643 q 299 932 190 869 q 553 994 407 994 q 808 932 699 994 q 977 756 917 869 q 1038 492 1038 643 q 977 225 1038 339 q 808 48 917 111 q 553 -15 699 -15 m 553 168 q 744 253 675 168 q 813 490 813 339 q 744 727 813 643 q 553 811 676 811 q 363 727 432 811 q 294 490 294 643 q 363 253 294 339 q 553 168 432 168 m 304 1113 l 304 1231 l 799 1231 l 799 1113 l 304 1113 z "},"Ṓ":{"ha":1106,"x_min":69,"x_max":1038,"o":"m 553 -15 q 299 48 408 -15 q 130 224 190 111 q 69 490 69 338 q 130 756 69 643 q 299 932 190 869 q 553 994 407 994 q 808 932 699 994 q 977 756 917 869 q 1038 492 1038 643 q 977 225 1038 339 q 808 48 917 111 q 553 -15 699 -15 m 553 168 q 744 253 675 168 q 813 490 813 339 q 744 727 813 643 q 553 811 676 811 q 363 727 432 811 q 294 490 294 643 q 363 253 294 339 q 553 168 432 168 m 488 1251 l 579 1428 l 774 1428 l 615 1251 l 488 1251 m 325 1082 l 325 1200 l 778 1200 l 778 1082 l 325 1082 z "},"Ṑ":{"ha":1106,"x_min":69,"x_max":1038,"o":"m 553 -15 q 299 48 408 -15 q 130 224 190 111 q 69 490 69 338 q 130 756 69 643 q 299 932 190 869 q 553 994 407 994 q 808 932 699 994 q 977 756 917 869 q 1038 492 1038 643 q 977 225 1038 339 q 808 48 917 111 q 553 -15 699 -15 m 553 168 q 744 253 675 168 q 813 490 813 339 q 744 727 813 643 q 553 811 676 811 q 363 727 432 811 q 294 490 294 643 q 363 253 294 339 q 553 168 432 168 m 488 1251 l 331 1428 l 524 1428 l 615 1251 l 488 1251 m 325 1082 l 325 1200 l 778 1200 l 778 1082 l 325 1082 z "},"Ǫ":{"ha":1106,"x_min":69,"x_max":1038,"o":"m 553 -15 q 299 48 408 -15 q 130 224 190 111 q 69 490 69 338 q 130 756 69 643 q 299 932 190 869 q 553 994 407 994 q 808 932 699 994 q 977 756 917 869 q 1038 492 1038 643 q 977 225 1038 339 q 808 48 917 111 q 553 -15 699 -15 m 553 168 q 744 253 675 168 q 813 490 813 339 q 744 727 813 643 q 553 811 676 811 q 363 727 432 811 q 294 490 294 643 q 363 253 294 339 q 553 168 432 168 m 606 -274 q 478 -233 524 -274 q 432 -124 432 -192 q 472 -12 432 -62 q 579 63 513 38 l 638 0 q 580 -41 601 -14 q 558 -100 558 -68 q 581 -149 558 -132 q 635 -167 603 -167 q 673 -162 656 -167 q 711 -151 690 -158 l 732 -249 q 606 -274 675 -274 z "},"Ø":{"ha":1106,"x_min":69,"x_max":1038,"o":"m 553 -15 q 299 48 408 -15 q 130 224 190 111 q 69 490 69 338 q 130 756 69 643 q 299 932 190 869 q 553 994 407 994 q 808 932 699 994 q 977 756 917 869 q 1038 492 1038 643 q 977 225 1038 339 q 808 48 917 111 q 553 -15 699 -15 m 553 168 q 744 253 675 168 q 813 490 813 339 q 744 727 813 643 q 553 811 676 811 q 363 727 432 811 q 294 490 294 643 q 363 253 294 339 q 553 168 432 168 m 306 -94 l 168 -12 l 264 151 l 328 246 l 667 828 l 704 910 l 800 1074 l 938 992 l 842 828 l 776 733 l 439 153 l 401 71 l 306 -94 z "},"Ǿ":{"ha":1106,"x_min":69,"x_max":1038,"o":"m 553 -15 q 299 48 408 -15 q 130 224 190 111 q 69 490 69 338 q 130 756 69 643 q 299 932 190 869 q 553 994 407 994 q 808 932 699 994 q 977 756 917 869 q 1038 492 1038 643 q 977 225 1038 339 q 808 48 917 111 q 553 -15 699 -15 m 553 168 q 744 253 675 168 q 813 490 813 339 q 744 727 813 643 q 553 811 676 811 q 363 727 432 811 q 294 490 294 643 q 363 253 294 339 q 553 168 432 168 m 306 -94 l 168 -12 l 264 151 l 328 246 l 667 828 l 704 910 l 800 1074 l 938 992 l 842 828 l 776 733 l 439 153 l 401 71 l 306 -94 m 479 1063 l 643 1306 l 856 1306 l 625 1063 l 479 1063 z "},"Õ":{"ha":1106,"x_min":69,"x_max":1038,"o":"m 553 -15 q 299 48 408 -15 q 130 224 190 111 q 69 490 69 338 q 130 756 69 643 q 299 932 190 869 q 553 994 407 994 q 808 932 699 994 q 977 756 917 869 q 1038 492 1038 643 q 977 225 1038 339 q 808 48 917 111 q 553 -15 699 -15 m 553 168 q 744 253 675 168 q 813 490 813 339 q 744 727 813 643 q 553 811 676 811 q 363 727 432 811 q 294 490 294 643 q 363 253 294 339 q 553 168 432 168 m 329 1064 l 231 1069 q 292 1231 238 1175 q 428 1288 346 1288 q 496 1276 463 1288 q 572 1242 529 1265 q 638 1212 615 1219 q 679 1204 661 1204 q 774 1293 757 1204 l 872 1288 q 811 1126 865 1182 q 676 1069 757 1069 q 605 1082 640 1069 q 528 1117 569 1094 q 467 1145 489 1138 q 424 1153 444 1153 q 329 1064 347 1153 z "},"Ṍ":{"ha":1106,"x_min":69,"x_max":1038,"o":"m 553 -15 q 299 48 408 -15 q 130 224 190 111 q 69 490 69 338 q 130 756 69 643 q 299 932 190 869 q 553 994 407 994 q 808 932 699 994 q 977 756 917 869 q 1038 492 1038 643 q 977 225 1038 339 q 808 48 917 111 q 553 -15 699 -15 m 553 168 q 744 253 675 168 q 813 490 813 339 q 744 727 813 643 q 553 811 676 811 q 363 727 432 811 q 294 490 294 643 q 363 253 294 339 q 553 168 432 168 m 488 1251 l 579 1428 l 774 1428 l 615 1251 l 488 1251 m 646 1064 q 592 1072 618 1064 q 536 1096 567 1081 q 495 1114 511 1108 q 465 1119 479 1119 q 417 1106 433 1119 q 393 1064 400 1092 l 301 1068 q 350 1185 306 1146 q 458 1224 394 1224 q 506 1217 482 1224 q 565 1193 531 1210 q 639 1169 613 1169 q 710 1225 699 1169 l 801 1219 q 753 1103 797 1142 q 646 1064 710 1064 z "},"Ṏ":{"ha":1106,"x_min":69,"x_max":1038,"o":"m 553 -15 q 299 48 408 -15 q 130 224 190 111 q 69 490 69 338 q 130 756 69 643 q 299 932 190 869 q 553 994 407 994 q 808 932 699 994 q 977 756 917 869 q 1038 492 1038 643 q 977 225 1038 339 q 808 48 917 111 q 553 -15 699 -15 m 553 168 q 744 253 675 168 q 813 490 813 339 q 744 727 813 643 q 553 811 676 811 q 363 727 432 811 q 294 490 294 643 q 363 253 294 339 q 553 168 432 168 m 322 1269 l 322 1403 l 507 1403 l 507 1269 l 322 1269 m 596 1269 l 596 1403 l 781 1403 l 781 1269 l 596 1269 m 646 1064 q 592 1072 618 1064 q 536 1096 567 1081 q 495 1114 511 1108 q 465 1119 479 1119 q 417 1106 433 1119 q 393 1064 400 1092 l 301 1068 q 350 1185 306 1146 q 458 1224 394 1224 q 506 1217 482 1224 q 565 1193 531 1210 q 639 1169 613 1169 q 710 1225 699 1169 l 801 1219 q 753 1103 797 1142 q 646 1064 710 1064 z "},"Ȭ":{"ha":1106,"x_min":69,"x_max":1038,"o":"m 553 -15 q 299 48 408 -15 q 130 224 190 111 q 69 490 69 338 q 130 756 69 643 q 299 932 190 869 q 553 994 407 994 q 808 932 699 994 q 977 756 917 869 q 1038 492 1038 643 q 977 225 1038 339 q 808 48 917 111 q 553 -15 699 -15 m 553 168 q 744 253 675 168 q 813 490 813 339 q 744 727 813 643 q 553 811 676 811 q 363 727 432 811 q 294 490 294 643 q 363 253 294 339 q 553 168 432 168 m 325 1282 l 325 1400 l 778 1400 l 778 1282 l 325 1282 m 646 1064 q 592 1072 618 1064 q 536 1096 567 1081 q 495 1114 511 1108 q 465 1119 479 1119 q 417 1106 433 1119 q 393 1064 400 1092 l 301 1068 q 350 1185 306 1146 q 458 1224 394 1224 q 506 1217 482 1224 q 565 1193 531 1210 q 639 1169 613 1169 q 710 1225 699 1169 l 801 1219 q 753 1103 797 1142 q 646 1064 710 1064 z "},"Œ":{"ha":1475,"x_min":69,"x_max":1403,"o":"m 593 0 q 206 128 343 0 q 69 490 69 256 q 206 852 69 725 q 593 979 343 979 l 1403 979 l 1403 811 l 939 811 l 939 582 l 1372 582 l 1372 413 l 939 413 l 939 168 l 1403 168 l 1403 0 l 593 0 m 607 176 l 732 176 l 732 803 l 607 803 q 294 490 294 803 q 607 176 294 176 z "},"P":{"ha":922,"x_min":99,"x_max":888,"o":"m 99 0 l 99 979 l 546 979 q 799 897 710 979 q 888 667 888 814 q 799 436 888 519 q 546 353 710 353 l 314 353 l 314 0 l 99 0 m 314 519 l 510 519 q 681 667 681 519 q 510 811 681 811 l 314 811 l 314 519 z "},"Þ":{"ha":925,"x_min":99,"x_max":892,"o":"m 99 0 l 99 979 l 314 979 l 314 824 l 550 824 q 803 740 714 824 q 892 510 892 657 q 803 279 892 363 q 550 196 714 196 l 314 196 l 314 0 l 99 0 m 314 364 l 513 364 q 685 510 685 364 q 513 656 685 656 l 314 656 l 314 364 z "},"Q":{"ha":1106,"x_min":69,"x_max":1038,"o":"m 817 -306 l 671 -69 q 551 -15 635 -15 l 551 -15 q 299 49 407 -14 q 130 225 190 111 q 69 490 69 339 q 130 756 69 643 q 299 932 190 869 q 553 994 407 994 q 808 932 699 994 q 977 756 917 869 q 1038 492 1038 643 q 972 215 1038 332 q 789 39 906 97 q 894 -51 853 19 l 1000 -221 l 817 -306 m 553 168 q 744 253 675 168 q 813 490 813 339 q 744 727 813 643 q 553 811 676 811 q 363 727 432 811 q 294 490 294 643 q 363 253 294 339 q 553 168 432 168 z "},"R":{"ha":967,"x_min":99,"x_max":950,"o":"m 99 0 l 99 979 l 546 979 q 799 900 710 979 q 888 679 888 821 q 831 497 888 569 q 671 397 775 424 q 792 290 744 375 l 950 0 l 713 0 l 543 313 q 492 365 522 350 q 419 379 461 379 l 314 379 l 314 0 l 99 0 m 314 535 l 507 535 q 681 674 681 535 q 507 811 681 811 l 314 811 l 314 535 z "},"Ŕ":{"ha":967,"x_min":99,"x_max":950,"o":"m 99 0 l 99 979 l 546 979 q 799 900 710 979 q 888 679 888 821 q 831 497 888 569 q 671 397 775 424 q 792 290 744 375 l 950 0 l 713 0 l 543 313 q 492 365 522 350 q 419 379 461 379 l 314 379 l 314 0 l 99 0 m 314 535 l 507 535 q 681 674 681 535 q 507 811 681 811 l 314 811 l 314 535 m 417 1063 l 581 1306 l 793 1306 l 563 1063 l 417 1063 z "},"Ř":{"ha":967,"x_min":99,"x_max":950,"o":"m 99 0 l 99 979 l 546 979 q 799 900 710 979 q 888 679 888 821 q 831 497 888 569 q 671 397 775 424 q 792 290 744 375 l 950 0 l 713 0 l 543 313 q 492 365 522 350 q 419 379 461 379 l 314 379 l 314 0 l 99 0 m 314 535 l 507 535 q 681 674 681 535 q 507 811 681 811 l 314 811 l 314 535 m 401 1063 l 228 1306 l 371 1306 l 489 1174 l 607 1306 l 750 1306 l 576 1063 l 401 1063 z "},"Ŗ":{"ha":967,"x_min":99,"x_max":950,"o":"m 99 0 l 99 979 l 546 979 q 799 900 710 979 q 888 679 888 821 q 831 497 888 569 q 671 397 775 424 q 792 290 744 375 l 950 0 l 713 0 l 543 313 q 492 365 522 350 q 419 379 461 379 l 314 379 l 314 0 l 99 0 m 314 535 l 507 535 q 681 674 681 535 q 507 811 681 811 l 314 811 l 314 535 m 510 -394 l 435 -344 q 472 -300 460 -322 q 486 -254 483 -278 l 386 -254 l 386 -96 l 593 -96 l 593 -194 q 574 -305 593 -256 q 510 -394 556 -354 z "},"Ȑ":{"ha":967,"x_min":99,"x_max":950,"o":"m 99 0 l 99 979 l 546 979 q 799 900 710 979 q 888 679 888 821 q 831 497 888 569 q 671 397 775 424 q 792 290 744 375 l 950 0 l 713 0 l 543 313 q 492 365 522 350 q 419 379 461 379 l 314 379 l 314 0 l 99 0 m 314 535 l 507 535 q 681 674 681 535 q 507 811 681 811 l 314 811 l 314 535 m 540 1063 l 358 1306 l 540 1306 l 658 1063 l 540 1063 m 321 1063 l 121 1306 l 303 1306 l 438 1063 l 321 1063 z "},"Ṛ":{"ha":967,"x_min":99,"x_max":950,"o":"m 99 0 l 99 979 l 546 979 q 799 900 710 979 q 888 679 888 821 q 831 497 888 569 q 671 397 775 424 q 792 290 744 375 l 950 0 l 713 0 l 543 313 q 492 365 522 350 q 419 379 461 379 l 314 379 l 314 0 l 99 0 m 314 535 l 507 535 q 681 674 681 535 q 507 811 681 811 l 314 811 l 314 535 m 393 -297 l 393 -112 l 588 -112 l 588 -297 l 393 -297 z "},"Ȓ":{"ha":967,"x_min":99,"x_max":950,"o":"m 99 0 l 99 979 l 546 979 q 799 900 710 979 q 888 679 888 821 q 831 497 888 569 q 671 397 775 424 q 792 290 744 375 l 950 0 l 713 0 l 543 313 q 492 365 522 350 q 419 379 461 379 l 314 379 l 314 0 l 99 0 m 314 535 l 507 535 q 681 674 681 535 q 507 811 681 811 l 314 811 l 314 535 m 340 1056 l 225 1071 q 303 1244 232 1179 q 489 1308 375 1308 q 674 1244 603 1308 q 754 1071 746 1179 l 639 1056 q 592 1153 632 1118 q 489 1188 553 1188 q 385 1153 424 1188 q 340 1056 346 1118 z "},"Ṟ":{"ha":967,"x_min":99,"x_max":950,"o":"m 99 0 l 99 979 l 546 979 q 799 900 710 979 q 888 679 888 821 q 831 497 888 569 q 671 397 775 424 q 792 290 744 375 l 950 0 l 713 0 l 543 313 q 492 365 522 350 q 419 379 461 379 l 314 379 l 314 0 l 99 0 m 314 535 l 507 535 q 681 674 681 535 q 507 811 681 811 l 314 811 l 314 535 m 264 -236 l 264 -118 l 717 -118 l 717 -236 l 264 -236 z "},"S":{"ha":890,"x_min":61,"x_max":849,"o":"m 449 -15 q 231 14 333 -15 q 61 93 129 43 l 124 263 q 273 190 189 217 q 449 164 357 164 q 592 195 549 164 q 636 274 636 226 q 606 338 636 314 q 499 378 575 361 l 342 411 q 79 683 79 467 q 129 847 79 776 q 269 956 179 917 q 476 994 358 994 q 667 965 578 994 q 814 883 756 936 l 751 725 q 475 815 638 815 q 340 781 388 815 q 292 693 292 747 q 321 628 292 653 q 422 588 350 603 l 579 554 q 849 290 849 496 q 799 130 849 199 q 660 23 750 61 q 449 -15 571 -15 z "},"Ś":{"ha":890,"x_min":61,"x_max":849,"o":"m 449 -15 q 231 14 333 -15 q 61 93 129 43 l 124 263 q 273 190 189 217 q 449 164 357 164 q 592 195 549 164 q 636 274 636 226 q 606 338 636 314 q 499 378 575 361 l 342 411 q 79 683 79 467 q 129 847 79 776 q 269 956 179 917 q 476 994 358 994 q 667 965 578 994 q 814 883 756 936 l 751 725 q 475 815 638 815 q 340 781 388 815 q 292 693 292 747 q 321 628 292 653 q 422 588 350 603 l 579 554 q 849 290 849 496 q 799 130 849 199 q 660 23 750 61 q 449 -15 571 -15 m 388 1063 l 551 1306 l 764 1306 l 533 1063 l 388 1063 z "},"Ṥ":{"ha":890,"x_min":61,"x_max":849,"o":"m 449 -15 q 231 14 333 -15 q 61 93 129 43 l 124 263 q 273 190 189 217 q 449 164 357 164 q 592 195 549 164 q 636 274 636 226 q 606 338 636 314 q 499 378 575 361 l 342 411 q 79 683 79 467 q 129 847 79 776 q 269 956 179 917 q 476 994 358 994 q 667 965 578 994 q 814 883 756 936 l 751 725 q 475 815 638 815 q 340 781 388 815 q 292 693 292 747 q 321 628 292 653 q 422 588 350 603 l 579 554 q 849 290 849 496 q 799 130 849 199 q 660 23 750 61 q 449 -15 571 -15 m 276 1290 l 276 1424 l 460 1424 l 460 1290 l 276 1290 m 388 1063 l 551 1306 l 764 1306 l 533 1063 l 388 1063 z "},"Š":{"ha":890,"x_min":61,"x_max":849,"o":"m 449 -15 q 231 14 333 -15 q 61 93 129 43 l 124 263 q 273 190 189 217 q 449 164 357 164 q 592 195 549 164 q 636 274 636 226 q 606 338 636 314 q 499 378 575 361 l 342 411 q 79 683 79 467 q 129 847 79 776 q 269 956 179 917 q 476 994 358 994 q 667 965 578 994 q 814 883 756 936 l 751 725 q 475 815 638 815 q 340 781 388 815 q 292 693 292 747 q 321 628 292 653 q 422 588 350 603 l 579 554 q 849 290 849 496 q 799 130 849 199 q 660 23 750 61 q 449 -15 571 -15 m 372 1063 l 199 1306 l 342 1306 l 460 1174 l 578 1306 l 721 1306 l 547 1063 l 372 1063 z "},"Ṧ":{"ha":890,"x_min":61,"x_max":849,"o":"m 449 -15 q 231 14 333 -15 q 61 93 129 43 l 124 263 q 273 190 189 217 q 449 164 357 164 q 592 195 549 164 q 636 274 636 226 q 606 338 636 314 q 499 378 575 361 l 342 411 q 79 683 79 467 q 129 847 79 776 q 269 956 179 917 q 476 994 358 994 q 667 965 578 994 q 814 883 756 936 l 751 725 q 475 815 638 815 q 340 781 388 815 q 292 693 292 747 q 321 628 292 653 q 422 588 350 603 l 579 554 q 849 290 849 496 q 799 130 849 199 q 660 23 750 61 q 449 -15 571 -15 m 368 1332 l 368 1465 l 551 1465 l 551 1332 l 368 1332 m 371 1063 l 217 1282 l 347 1282 l 460 1171 l 572 1282 l 703 1282 l 549 1063 l 371 1063 z "},"Ş":{"ha":890,"x_min":61,"x_max":849,"o":"m 449 -15 q 231 14 333 -15 q 61 93 129 43 l 124 263 q 273 190 189 217 q 449 164 357 164 q 592 195 549 164 q 636 274 636 226 q 606 338 636 314 q 499 378 575 361 l 342 411 q 79 683 79 467 q 129 847 79 776 q 269 956 179 917 q 476 994 358 994 q 667 965 578 994 q 814 883 756 936 l 751 725 q 475 815 638 815 q 340 781 388 815 q 292 693 292 747 q 321 628 292 653 q 422 588 350 603 l 579 554 q 849 290 849 496 q 799 130 849 199 q 660 23 750 61 q 449 -15 571 -15 m 453 -274 q 370 -266 410 -274 q 301 -243 331 -258 l 331 -154 q 381 -173 356 -167 q 433 -179 406 -179 q 506 -143 506 -179 q 454 -115 506 -115 q 430 -117 442 -115 q 401 -122 418 -118 l 374 -94 l 392 28 l 497 28 l 483 -47 q 492 -47 488 -47 q 590 -74 554 -47 q 625 -150 625 -101 q 577 -240 625 -206 q 453 -274 529 -274 z "},"Ŝ":{"ha":890,"x_min":61,"x_max":849,"o":"m 449 -15 q 231 14 333 -15 q 61 93 129 43 l 124 263 q 273 190 189 217 q 449 164 357 164 q 592 195 549 164 q 636 274 636 226 q 606 338 636 314 q 499 378 575 361 l 342 411 q 79 683 79 467 q 129 847 79 776 q 269 956 179 917 q 476 994 358 994 q 667 965 578 994 q 814 883 756 936 l 751 725 q 475 815 638 815 q 340 781 388 815 q 292 693 292 747 q 321 628 292 653 q 422 588 350 603 l 579 554 q 849 290 849 496 q 799 130 849 199 q 660 23 750 61 q 449 -15 571 -15 m 199 1063 l 372 1306 l 547 1306 l 721 1063 l 578 1063 l 460 1194 l 342 1063 l 199 1063 z "},"Ș":{"ha":890,"x_min":61,"x_max":849,"o":"m 449 -15 q 231 14 333 -15 q 61 93 129 43 l 124 263 q 273 190 189 217 q 449 164 357 164 q 592 195 549 164 q 636 274 636 226 q 606 338 636 314 q 499 378 575 361 l 342 411 q 79 683 79 467 q 129 847 79 776 q 269 956 179 917 q 476 994 358 994 q 667 965 578 994 q 814 883 756 936 l 751 725 q 475 815 638 815 q 340 781 388 815 q 292 693 292 747 q 321 628 292 653 q 422 588 350 603 l 579 554 q 849 290 849 496 q 799 130 849 199 q 660 23 750 61 q 449 -15 571 -15 m 474 -394 l 399 -344 q 435 -300 424 -322 q 450 -254 447 -278 l 350 -254 l 350 -96 l 557 -96 l 557 -194 q 538 -305 557 -256 q 474 -394 519 -354 z "},"Ṡ":{"ha":890,"x_min":61,"x_max":849,"o":"m 449 -15 q 231 14 333 -15 q 61 93 129 43 l 124 263 q 273 190 189 217 q 449 164 357 164 q 592 195 549 164 q 636 274 636 226 q 606 338 636 314 q 499 378 575 361 l 342 411 q 79 683 79 467 q 129 847 79 776 q 269 956 179 917 q 476 994 358 994 q 667 965 578 994 q 814 883 756 936 l 751 725 q 475 815 638 815 q 340 781 388 815 q 292 693 292 747 q 321 628 292 653 q 422 588 350 603 l 579 554 q 849 290 849 496 q 799 130 849 199 q 660 23 750 61 q 449 -15 571 -15 m 363 1092 l 363 1276 l 557 1276 l 557 1092 l 363 1092 z "},"Ṣ":{"ha":890,"x_min":61,"x_max":849,"o":"m 449 -15 q 231 14 333 -15 q 61 93 129 43 l 124 263 q 273 190 189 217 q 449 164 357 164 q 592 195 549 164 q 636 274 636 226 q 606 338 636 314 q 499 378 575 361 l 342 411 q 79 683 79 467 q 129 847 79 776 q 269 956 179 917 q 476 994 358 994 q 667 965 578 994 q 814 883 756 936 l 751 725 q 475 815 638 815 q 340 781 388 815 q 292 693 292 747 q 321 628 292 653 q 422 588 350 603 l 579 554 q 849 290 849 496 q 799 130 849 199 q 660 23 750 61 q 449 -15 571 -15 m 357 -297 l 357 -112 l 551 -112 l 551 -297 l 357 -297 z "},"Ṩ":{"ha":890,"x_min":61,"x_max":849,"o":"m 449 -15 q 231 14 333 -15 q 61 93 129 43 l 124 263 q 273 190 189 217 q 449 164 357 164 q 592 195 549 164 q 636 274 636 226 q 606 338 636 314 q 499 378 575 361 l 342 411 q 79 683 79 467 q 129 847 79 776 q 269 956 179 917 q 476 994 358 994 q 667 965 578 994 q 814 883 756 936 l 751 725 q 475 815 638 815 q 340 781 388 815 q 292 693 292 747 q 321 628 292 653 q 422 588 350 603 l 579 554 q 849 290 849 496 q 799 130 849 199 q 660 23 750 61 q 449 -15 571 -15 m 357 -297 l 357 -112 l 551 -112 l 551 -297 l 357 -297 m 363 1092 l 363 1276 l 557 1276 l 557 1092 l 363 1092 z "},"ẞ":{"ha":1029,"x_min":99,"x_max":964,"o":"m 644 -15 q 375 64 482 -15 l 436 217 q 526 170 482 185 q 621 156 569 156 q 722 190 685 156 q 758 282 758 224 q 715 376 758 344 q 578 407 671 407 l 444 407 l 444 572 l 556 572 q 667 604 626 572 q 707 697 707 636 q 533 821 707 821 q 314 615 314 821 l 314 0 l 99 0 l 99 617 q 214 897 99 801 q 544 993 329 993 q 815 922 715 993 q 914 726 914 850 q 880 598 914 654 q 783 510 846 542 q 915 424 867 488 q 964 267 964 360 q 879 60 964 135 q 644 -15 794 -15 z "},"Ə":{"ha":1106,"x_min":69,"x_max":1038,"o":"m 564 -15 q 292 51 401 -15 q 126 233 182 117 q 69 503 69 350 l 69 575 l 806 575 q 493 811 764 811 q 183 719 318 811 l 111 883 q 290 965 186 936 q 521 994 394 994 q 792 933 676 994 q 973 758 908 872 q 1038 489 1038 644 q 977 223 1038 336 q 810 47 917 110 q 564 -15 703 -15 m 553 160 q 725 222 660 160 q 807 406 790 283 l 294 406 q 553 160 325 160 z "},"T":{"ha":878,"x_min":8,"x_max":871,"o":"m 332 0 l 332 801 l 8 801 l 8 979 l 871 979 l 871 801 l 547 801 l 547 0 l 332 0 z "},"Ŧ":{"ha":878,"x_min":8,"x_max":871,"o":"m 332 0 l 332 801 l 8 801 l 8 979 l 871 979 l 871 801 l 547 801 l 547 0 l 332 0 m 142 418 l 142 572 l 735 572 l 735 418 l 142 418 z "},"Ť":{"ha":878,"x_min":8,"x_max":871,"o":"m 332 0 l 332 801 l 8 801 l 8 979 l 871 979 l 871 801 l 547 801 l 547 0 l 332 0 m 351 1063 l 178 1306 l 321 1306 l 439 1174 l 557 1306 l 700 1306 l 526 1063 l 351 1063 z "},"Ţ":{"ha":878,"x_min":8,"x_max":871,"o":"m 332 0 l 332 801 l 8 801 l 8 979 l 871 979 l 871 801 l 547 801 l 547 0 l 332 0 m 439 -274 q 356 -266 396 -274 q 288 -243 317 -258 l 317 -154 q 367 -173 342 -167 q 419 -179 392 -179 q 492 -143 492 -179 q 440 -115 492 -115 q 416 -117 428 -115 q 388 -122 404 -118 l 360 -94 l 378 28 l 483 28 l 469 -47 q 478 -47 474 -47 q 576 -74 540 -47 q 611 -150 611 -101 q 563 -240 611 -206 q 439 -274 515 -274 z "},"Ț":{"ha":878,"x_min":8,"x_max":871,"o":"m 332 0 l 332 801 l 8 801 l 8 979 l 871 979 l 871 801 l 547 801 l 547 0 l 332 0 m 460 -394 l 385 -344 q 422 -300 410 -322 q 436 -254 433 -278 l 336 -254 l 336 -96 l 543 -96 l 543 -194 q 524 -305 543 -256 q 460 -394 506 -354 z "},"Ṭ":{"ha":878,"x_min":8,"x_max":871,"o":"m 332 0 l 332 801 l 8 801 l 8 979 l 871 979 l 871 801 l 547 801 l 547 0 l 332 0 m 343 -297 l 343 -112 l 538 -112 l 538 -297 l 343 -297 z "},"Ṯ":{"ha":878,"x_min":8,"x_max":871,"o":"m 332 0 l 332 801 l 8 801 l 8 979 l 871 979 l 871 801 l 547 801 l 547 0 l 332 0 m 214 -236 l 214 -118 l 667 -118 l 667 -236 l 214 -236 z "},"U":{"ha":1032,"x_min":92,"x_max":940,"o":"m 518 -15 q 201 92 310 -15 q 92 410 92 199 l 92 979 l 307 979 l 307 408 q 361 228 307 289 q 518 168 415 168 q 728 408 728 168 l 728 979 l 940 979 l 940 410 q 833 92 940 199 q 518 -15 726 -15 z "},"Ú":{"ha":1032,"x_min":92,"x_max":940,"o":"m 518 -15 q 201 92 310 -15 q 92 410 92 199 l 92 979 l 307 979 l 307 408 q 361 228 307 289 q 518 168 415 168 q 728 408 728 168 l 728 979 l 940 979 l 940 410 q 833 92 940 199 q 518 -15 726 -15 m 446 1063 l 610 1306 l 822 1306 l 592 1063 l 446 1063 z "},"Ŭ":{"ha":1032,"x_min":92,"x_max":940,"o":"m 518 -15 q 201 92 310 -15 q 92 410 92 199 l 92 979 l 307 979 l 307 408 q 361 228 307 289 q 518 168 415 168 q 728 408 728 168 l 728 979 l 940 979 l 940 410 q 833 92 940 199 q 518 -15 726 -15 m 518 1056 q 333 1120 404 1056 q 254 1293 261 1185 l 369 1308 q 414 1211 375 1246 q 518 1176 453 1176 q 622 1211 582 1176 q 668 1308 661 1246 l 783 1293 q 703 1120 775 1185 q 518 1056 632 1056 z "},"Û":{"ha":1032,"x_min":92,"x_max":940,"o":"m 518 -15 q 201 92 310 -15 q 92 410 92 199 l 92 979 l 307 979 l 307 408 q 361 228 307 289 q 518 168 415 168 q 728 408 728 168 l 728 979 l 940 979 l 940 410 q 833 92 940 199 q 518 -15 726 -15 m 257 1063 l 431 1306 l 606 1306 l 779 1063 l 636 1063 l 518 1194 l 400 1063 l 257 1063 z "},"Ȕ":{"ha":1032,"x_min":92,"x_max":940,"o":"m 518 -15 q 201 92 310 -15 q 92 410 92 199 l 92 979 l 307 979 l 307 408 q 361 228 307 289 q 518 168 415 168 q 728 408 728 168 l 728 979 l 940 979 l 940 410 q 833 92 940 199 q 518 -15 726 -15 m 569 1063 l 388 1306 l 569 1306 l 688 1063 l 569 1063 m 350 1063 l 150 1306 l 332 1306 l 467 1063 l 350 1063 z "},"Ü":{"ha":1032,"x_min":92,"x_max":940,"o":"m 518 -15 q 201 92 310 -15 q 92 410 92 199 l 92 979 l 307 979 l 307 408 q 361 228 307 289 q 518 168 415 168 q 728 408 728 168 l 728 979 l 940 979 l 940 410 q 833 92 940 199 q 518 -15 726 -15 m 563 1085 l 563 1268 l 747 1268 l 747 1085 l 563 1085 m 289 1085 l 289 1268 l 474 1268 l 474 1085 l 289 1085 z "},"Ụ":{"ha":1032,"x_min":92,"x_max":940,"o":"m 518 -15 q 201 92 310 -15 q 92 410 92 199 l 92 979 l 307 979 l 307 408 q 361 228 307 289 q 518 168 415 168 q 728 408 728 168 l 728 979 l 940 979 l 940 410 q 833 92 940 199 q 518 -15 726 -15 m 421 -297 l 421 -112 l 615 -112 l 615 -297 l 421 -297 z "},"Ù":{"ha":1032,"x_min":92,"x_max":940,"o":"m 518 -15 q 201 92 310 -15 q 92 410 92 199 l 92 979 l 307 979 l 307 408 q 361 228 307 289 q 518 168 415 168 q 728 408 728 168 l 728 979 l 940 979 l 940 410 q 833 92 940 199 q 518 -15 726 -15 m 446 1063 l 214 1306 l 428 1306 l 592 1063 l 446 1063 z "},"Ủ":{"ha":1032,"x_min":92,"x_max":940,"o":"m 518 -15 q 201 92 310 -15 q 92 410 92 199 l 92 979 l 307 979 l 307 408 q 361 228 307 289 q 518 168 415 168 q 728 408 728 168 l 728 979 l 940 979 l 940 410 q 833 92 940 199 q 518 -15 726 -15 m 457 1063 l 457 1089 q 475 1136 457 1119 q 511 1165 493 1153 q 529 1196 529 1178 q 479 1221 529 1221 q 397 1204 439 1221 l 367 1286 q 532 1317 429 1317 q 644 1293 603 1317 q 685 1228 685 1269 q 669 1177 685 1196 q 632 1146 653 1158 q 596 1119 611 1133 q 581 1081 581 1104 l 581 1063 l 457 1063 z "},"Ư":{"ha":1032,"x_min":92,"x_max":1096,"o":"m 518 -15 q 201 92 310 -15 q 92 410 92 199 l 92 979 l 307 979 l 307 408 q 361 228 307 289 q 518 168 415 168 q 728 408 728 168 l 728 979 l 940 979 l 940 410 q 833 92 940 199 q 518 -15 726 -15 m 913 879 l 789 956 l 789 979 q 885 1008 854 981 q 915 1121 915 1036 l 915 1153 l 1096 1153 l 1096 1094 q 1046 948 1096 1007 q 913 879 996 889 z "},"Ứ":{"ha":1032,"x_min":92,"x_max":1096,"o":"m 518 -15 q 201 92 310 -15 q 92 410 92 199 l 92 979 l 307 979 l 307 408 q 361 228 307 289 q 518 168 415 168 q 728 408 728 168 l 728 979 l 940 979 l 940 410 q 833 92 940 199 q 518 -15 726 -15 m 913 879 l 789 956 l 789 979 q 885 1008 854 981 q 915 1121 915 1036 l 915 1153 l 1096 1153 l 1096 1094 q 1046 948 1096 1007 q 913 879 996 889 m 446 1063 l 610 1306 l 822 1306 l 592 1063 l 446 1063 z "},"Ự":{"ha":1032,"x_min":92,"x_max":1096,"o":"m 518 -15 q 201 92 310 -15 q 92 410 92 199 l 92 979 l 307 979 l 307 408 q 361 228 307 289 q 518 168 415 168 q 728 408 728 168 l 728 979 l 940 979 l 940 410 q 833 92 940 199 q 518 -15 726 -15 m 913 879 l 789 956 l 789 979 q 885 1008 854 981 q 915 1121 915 1036 l 915 1153 l 1096 1153 l 1096 1094 q 1046 948 1096 1007 q 913 879 996 889 m 421 -297 l 421 -112 l 615 -112 l 615 -297 l 421 -297 z "},"Ừ":{"ha":1032,"x_min":92,"x_max":1096,"o":"m 518 -15 q 201 92 310 -15 q 92 410 92 199 l 92 979 l 307 979 l 307 408 q 361 228 307 289 q 518 168 415 168 q 728 408 728 168 l 728 979 l 940 979 l 940 410 q 833 92 940 199 q 518 -15 726 -15 m 913 879 l 789 956 l 789 979 q 885 1008 854 981 q 915 1121 915 1036 l 915 1153 l 1096 1153 l 1096 1094 q 1046 948 1096 1007 q 913 879 996 889 m 446 1063 l 214 1306 l 428 1306 l 592 1063 l 446 1063 z "},"Ử":{"ha":1032,"x_min":92,"x_max":1096,"o":"m 518 -15 q 201 92 310 -15 q 92 410 92 199 l 92 979 l 307 979 l 307 408 q 361 228 307 289 q 518 168 415 168 q 728 408 728 168 l 728 979 l 940 979 l 940 410 q 833 92 940 199 q 518 -15 726 -15 m 913 879 l 789 956 l 789 979 q 885 1008 854 981 q 915 1121 915 1036 l 915 1153 l 1096 1153 l 1096 1094 q 1046 948 1096 1007 q 913 879 996 889 m 457 1063 l 457 1089 q 475 1136 457 1119 q 511 1165 493 1153 q 529 1196 529 1178 q 479 1221 529 1221 q 397 1204 439 1221 l 367 1286 q 532 1317 429 1317 q 644 1293 603 1317 q 685 1228 685 1269 q 669 1177 685 1196 q 632 1146 653 1158 q 596 1119 611 1133 q 581 1081 581 1104 l 581 1063 l 457 1063 z "},"Ữ":{"ha":1032,"x_min":92,"x_max":1096,"o":"m 518 -15 q 201 92 310 -15 q 92 410 92 199 l 92 979 l 307 979 l 307 408 q 361 228 307 289 q 518 168 415 168 q 728 408 728 168 l 728 979 l 940 979 l 940 410 q 833 92 940 199 q 518 -15 726 -15 m 913 879 l 789 956 l 789 979 q 885 1008 854 981 q 915 1121 915 1036 l 915 1153 l 1096 1153 l 1096 1094 q 1046 948 1096 1007 q 913 879 996 889 m 310 1064 l 211 1069 q 267 1231 217 1175 q 393 1288 318 1288 q 455 1275 426 1288 q 515 1240 483 1263 q 563 1213 543 1222 q 603 1204 582 1204 q 690 1293 674 1204 l 789 1288 q 732 1126 782 1182 q 607 1069 682 1069 q 542 1083 572 1069 q 482 1118 513 1097 q 438 1144 457 1136 q 399 1153 418 1153 q 310 1064 326 1153 z "},"Ű":{"ha":1032,"x_min":92,"x_max":940,"o":"m 518 -15 q 201 92 310 -15 q 92 410 92 199 l 92 979 l 307 979 l 307 408 q 361 228 307 289 q 518 168 415 168 q 728 408 728 168 l 728 979 l 940 979 l 940 410 q 833 92 940 199 q 518 -15 726 -15 m 350 1063 l 468 1306 l 650 1306 l 467 1063 l 350 1063 m 569 1063 l 706 1306 l 888 1306 l 688 1063 l 569 1063 z "},"Ȗ":{"ha":1032,"x_min":92,"x_max":940,"o":"m 518 -15 q 201 92 310 -15 q 92 410 92 199 l 92 979 l 307 979 l 307 408 q 361 228 307 289 q 518 168 415 168 q 728 408 728 168 l 728 979 l 940 979 l 940 410 q 833 92 940 199 q 518 -15 726 -15 m 369 1056 l 254 1071 q 333 1244 261 1179 q 518 1308 404 1308 q 703 1244 632 1308 q 783 1071 775 1179 l 668 1056 q 622 1153 661 1118 q 518 1188 582 1188 q 414 1153 453 1188 q 369 1056 375 1118 z "},"Ū":{"ha":1032,"x_min":92,"x_max":940,"o":"m 518 -15 q 201 92 310 -15 q 92 410 92 199 l 92 979 l 307 979 l 307 408 q 361 228 307 289 q 518 168 415 168 q 728 408 728 168 l 728 979 l 940 979 l 940 410 q 833 92 940 199 q 518 -15 726 -15 m 271 1113 l 271 1231 l 765 1231 l 765 1113 l 271 1113 z "},"Ṻ":{"ha":1032,"x_min":92,"x_max":940,"o":"m 518 -15 q 201 92 310 -15 q 92 410 92 199 l 92 979 l 307 979 l 307 408 q 361 228 307 289 q 518 168 415 168 q 728 408 728 168 l 728 979 l 940 979 l 940 410 q 833 92 940 199 q 518 -15 726 -15 m 289 1268 l 289 1400 l 474 1400 l 474 1268 l 289 1268 m 563 1268 l 563 1400 l 747 1400 l 747 1268 l 563 1268 m 292 1086 l 292 1204 l 744 1204 l 744 1086 l 292 1086 z "},"Ų":{"ha":1032,"x_min":92,"x_max":940,"o":"m 518 -15 q 201 92 310 -15 q 92 410 92 199 l 92 979 l 307 979 l 307 408 q 361 228 307 289 q 518 168 415 168 q 728 408 728 168 l 728 979 l 940 979 l 940 410 q 833 92 940 199 q 518 -15 726 -15 m 565 -274 q 438 -233 483 -274 q 392 -124 392 -192 q 432 -12 392 -62 q 539 63 472 38 l 597 0 q 540 -41 561 -14 q 518 -100 518 -68 q 540 -149 518 -132 q 594 -167 563 -167 q 633 -162 615 -167 q 671 -151 650 -158 l 692 -249 q 565 -274 635 -274 z "},"Ů":{"ha":1032,"x_min":92,"x_max":940,"o":"m 518 -15 q 201 92 310 -15 q 92 410 92 199 l 92 979 l 307 979 l 307 408 q 361 228 307 289 q 518 168 415 168 q 728 408 728 168 l 728 979 l 940 979 l 940 410 q 833 92 940 199 q 518 -15 726 -15 m 518 1046 q 426 1069 467 1046 q 361 1133 385 1093 q 338 1222 338 1172 q 361 1312 338 1272 q 426 1374 385 1351 q 518 1397 467 1397 q 610 1374 569 1397 q 675 1312 651 1351 q 699 1222 699 1272 q 675 1133 699 1172 q 610 1069 651 1093 q 518 1046 569 1046 m 518 1136 q 578 1160 554 1136 q 603 1222 603 1185 q 578 1283 603 1260 q 518 1307 554 1307 q 458 1283 482 1307 q 433 1222 433 1260 q 458 1160 433 1185 q 518 1136 482 1136 z "},"Ũ":{"ha":1032,"x_min":92,"x_max":940,"o":"m 518 -15 q 201 92 310 -15 q 92 410 92 199 l 92 979 l 307 979 l 307 408 q 361 228 307 289 q 518 168 415 168 q 728 408 728 168 l 728 979 l 940 979 l 940 410 q 833 92 940 199 q 518 -15 726 -15 m 296 1064 l 197 1069 q 258 1231 204 1175 q 394 1288 313 1288 q 463 1276 429 1288 q 539 1242 496 1265 q 605 1212 582 1219 q 646 1204 628 1204 q 740 1293 724 1204 l 839 1288 q 778 1126 832 1182 q 643 1069 724 1069 q 572 1082 607 1069 q 494 1117 536 1094 q 433 1145 456 1138 q 390 1153 411 1153 q 296 1064 314 1153 z "},"Ṹ":{"ha":1032,"x_min":92,"x_max":940,"o":"m 518 -15 q 201 92 310 -15 q 92 410 92 199 l 92 979 l 307 979 l 307 408 q 361 228 307 289 q 518 168 415 168 q 728 408 728 168 l 728 979 l 940 979 l 940 410 q 833 92 940 199 q 518 -15 726 -15 m 454 1251 l 546 1428 l 740 1428 l 582 1251 l 454 1251 m 613 1064 q 559 1072 585 1064 q 503 1096 533 1081 q 462 1114 478 1108 q 432 1119 446 1119 q 383 1106 400 1119 q 360 1064 367 1092 l 268 1068 q 317 1185 272 1146 q 425 1224 361 1224 q 473 1217 449 1224 q 532 1193 497 1210 q 606 1169 579 1169 q 676 1225 665 1169 l 768 1219 q 720 1103 764 1142 q 613 1064 676 1064 z "},"V":{"ha":1010,"x_min":-24,"x_max":1033,"o":"m 417 0 l -24 979 l 207 979 l 510 276 l 813 979 l 1033 979 l 593 0 l 417 0 z "},"W":{"ha":1556,"x_min":24,"x_max":1535,"o":"m 372 0 l 24 979 l 244 979 l 469 310 l 707 979 l 863 979 l 1093 299 l 1326 979 l 1535 979 l 1183 0 l 1008 0 l 779 650 l 547 0 l 372 0 z "},"Ẃ":{"ha":1556,"x_min":24,"x_max":1535,"o":"m 372 0 l 24 979 l 244 979 l 469 310 l 707 979 l 863 979 l 1093 299 l 1326 979 l 1535 979 l 1183 0 l 1008 0 l 779 650 l 547 0 l 372 0 m 707 1063 l 871 1306 l 1083 1306 l 853 1063 l 707 1063 z "},"Ŵ":{"ha":1556,"x_min":24,"x_max":1535,"o":"m 372 0 l 24 979 l 244 979 l 469 310 l 707 979 l 863 979 l 1093 299 l 1326 979 l 1535 979 l 1183 0 l 1008 0 l 779 650 l 547 0 l 372 0 m 518 1063 l 692 1306 l 867 1306 l 1040 1063 l 897 1063 l 779 1194 l 661 1063 l 518 1063 z "},"Ẅ":{"ha":1556,"x_min":24,"x_max":1535,"o":"m 372 0 l 24 979 l 244 979 l 469 310 l 707 979 l 863 979 l 1093 299 l 1326 979 l 1535 979 l 1183 0 l 1008 0 l 779 650 l 547 0 l 372 0 m 824 1085 l 824 1268 l 1008 1268 l 1008 1085 l 824 1085 m 550 1085 l 550 1268 l 735 1268 l 735 1085 l 550 1085 z "},"Ẁ":{"ha":1556,"x_min":24,"x_max":1535,"o":"m 372 0 l 24 979 l 244 979 l 469 310 l 707 979 l 863 979 l 1093 299 l 1326 979 l 1535 979 l 1183 0 l 1008 0 l 779 650 l 547 0 l 372 0 m 707 1063 l 475 1306 l 689 1306 l 853 1063 l 707 1063 z "},"X":{"ha":951,"x_min":-21,"x_max":972,"o":"m -21 0 l 353 496 l -10 979 l 240 979 l 476 653 l 711 979 l 963 979 l 599 496 l 972 0 l 721 0 l 475 338 l 232 0 l -21 0 z "},"Y":{"ha":876,"x_min":-47,"x_max":921,"o":"m 331 0 l 331 442 l -47 979 l 203 979 l 442 635 l 681 979 l 921 979 l 546 440 l 546 0 l 331 0 z "},"Ý":{"ha":876,"x_min":-47,"x_max":921,"o":"m 331 0 l 331 442 l -47 979 l 203 979 l 442 635 l 681 979 l 921 979 l 546 440 l 546 0 l 331 0 m 365 1063 l 529 1306 l 742 1306 l 511 1063 l 365 1063 z "},"Ŷ":{"ha":876,"x_min":-47,"x_max":921,"o":"m 331 0 l 331 442 l -47 979 l 203 979 l 442 635 l 681 979 l 921 979 l 546 440 l 546 0 l 331 0 m 176 1063 l 350 1306 l 525 1306 l 699 1063 l 556 1063 l 438 1194 l 319 1063 l 176 1063 z "},"Ÿ":{"ha":876,"x_min":-47,"x_max":921,"o":"m 331 0 l 331 442 l -47 979 l 203 979 l 442 635 l 681 979 l 921 979 l 546 440 l 546 0 l 331 0 m 482 1085 l 482 1268 l 667 1268 l 667 1085 l 482 1085 m 208 1085 l 208 1268 l 393 1268 l 393 1085 l 208 1085 z "},"Ẏ":{"ha":876,"x_min":-47,"x_max":921,"o":"m 331 0 l 331 442 l -47 979 l 203 979 l 442 635 l 681 979 l 921 979 l 546 440 l 546 0 l 331 0 m 340 1092 l 340 1276 l 535 1276 l 535 1092 l 340 1092 z "},"Ỵ":{"ha":876,"x_min":-47,"x_max":921,"o":"m 331 0 l 331 442 l -47 979 l 203 979 l 442 635 l 681 979 l 921 979 l 546 440 l 546 0 l 331 0 m 342 -297 l 342 -112 l 536 -112 l 536 -297 l 342 -297 z "},"Ỳ":{"ha":876,"x_min":-47,"x_max":921,"o":"m 331 0 l 331 442 l -47 979 l 203 979 l 442 635 l 681 979 l 921 979 l 546 440 l 546 0 l 331 0 m 365 1063 l 133 1306 l 347 1306 l 511 1063 l 365 1063 z "},"Ƴ":{"ha":894,"x_min":-47,"x_max":961,"o":"m 331 0 l 331 442 l -47 979 l 203 979 l 442 633 l 590 853 q 702 958 639 924 q 856 993 765 993 q 914 988 885 993 q 961 975 943 983 l 961 829 q 893 839 935 839 q 829 824 860 839 q 775 774 799 810 l 546 442 l 546 0 l 331 0 z "},"Ỷ":{"ha":876,"x_min":-47,"x_max":921,"o":"m 331 0 l 331 442 l -47 979 l 203 979 l 442 635 l 681 979 l 921 979 l 546 440 l 546 0 l 331 0 m 376 1063 l 376 1089 q 394 1136 376 1119 q 431 1165 413 1153 q 449 1196 449 1178 q 399 1221 449 1221 q 317 1204 358 1221 l 286 1286 q 451 1317 349 1317 q 563 1293 522 1317 q 604 1228 604 1269 q 588 1177 604 1196 q 551 1146 572 1158 q 515 1119 531 1133 q 500 1081 500 1104 l 500 1063 l 376 1063 z "},"Ȳ":{"ha":876,"x_min":-47,"x_max":921,"o":"m 331 0 l 331 442 l -47 979 l 203 979 l 442 635 l 681 979 l 921 979 l 546 440 l 546 0 l 331 0 m 190 1113 l 190 1231 l 685 1231 l 685 1113 l 190 1113 z "},"Ỹ":{"ha":876,"x_min":-47,"x_max":921,"o":"m 331 0 l 331 442 l -47 979 l 203 979 l 442 635 l 681 979 l 921 979 l 546 440 l 546 0 l 331 0 m 215 1064 l 117 1069 q 178 1231 124 1175 q 314 1288 232 1288 q 382 1276 349 1288 q 458 1242 415 1265 q 524 1212 501 1219 q 565 1204 547 1204 q 660 1293 643 1204 l 758 1288 q 697 1126 751 1182 q 563 1069 643 1069 q 491 1082 526 1069 q 414 1117 456 1094 q 353 1145 375 1138 q 310 1153 331 1153 q 215 1064 233 1153 z "},"Z":{"ha":854,"x_min":64,"x_max":825,"o":"m 64 0 l 64 158 l 553 800 l 64 800 l 64 979 l 804 979 l 804 821 l 314 179 l 825 179 l 825 0 l 64 0 z "},"Ź":{"ha":854,"x_min":64,"x_max":825,"o":"m 64 0 l 64 158 l 553 800 l 64 800 l 64 979 l 804 979 l 804 821 l 314 179 l 825 179 l 825 0 l 64 0 m 368 1063 l 532 1306 l 744 1306 l 514 1063 l 368 1063 z "},"Ž":{"ha":854,"x_min":64,"x_max":825,"o":"m 64 0 l 64 158 l 553 800 l 64 800 l 64 979 l 804 979 l 804 821 l 314 179 l 825 179 l 825 0 l 64 0 m 353 1063 l 179 1306 l 322 1306 l 440 1174 l 558 1306 l 701 1306 l 528 1063 l 353 1063 z "},"Ż":{"ha":854,"x_min":64,"x_max":825,"o":"m 64 0 l 64 158 l 553 800 l 64 800 l 64 979 l 804 979 l 804 821 l 314 179 l 825 179 l 825 0 l 64 0 m 343 1092 l 343 1276 l 538 1276 l 538 1092 l 343 1092 z "},"Ẓ":{"ha":854,"x_min":64,"x_max":825,"o":"m 64 0 l 64 158 l 553 800 l 64 800 l 64 979 l 804 979 l 804 821 l 314 179 l 825 179 l 825 0 l 64 0 m 344 -297 l 344 -112 l 539 -112 l 539 -297 l 344 -297 z "},"a":{"ha":774,"x_min":50,"x_max":697,"o":"m 311 -15 q 176 14 235 -15 q 84 93 118 43 q 50 206 50 143 q 89 324 50 279 q 215 387 128 368 q 447 406 303 406 l 497 406 l 497 429 q 469 516 497 490 q 375 542 442 542 q 258 524 319 542 q 135 472 196 507 l 78 613 q 166 656 114 636 q 275 685 218 675 q 383 696 332 696 q 619 624 542 696 q 697 403 697 553 l 697 0 l 501 0 l 501 103 q 431 17 481 49 q 311 -15 382 -15 m 358 125 q 457 165 417 125 q 497 269 497 206 l 497 297 l 449 297 q 297 278 342 297 q 253 214 253 260 q 280 150 253 175 q 358 125 307 125 z "},"á":{"ha":774,"x_min":50,"x_max":697,"o":"m 311 -15 q 176 14 235 -15 q 84 93 118 43 q 50 206 50 143 q 89 324 50 279 q 215 387 128 368 q 447 406 303 406 l 497 406 l 497 429 q 469 516 497 490 q 375 542 442 542 q 258 524 319 542 q 135 472 196 507 l 78 613 q 166 656 114 636 q 275 685 218 675 q 383 696 332 696 q 619 624 542 696 q 697 403 697 553 l 697 0 l 501 0 l 501 103 q 431 17 481 49 q 311 -15 382 -15 m 358 125 q 457 165 417 125 q 497 269 497 206 l 497 297 l 449 297 q 297 278 342 297 q 253 214 253 260 q 280 150 253 175 q 358 125 307 125 m 324 771 l 467 1056 l 667 1056 l 463 771 l 324 771 z "},"ă":{"ha":774,"x_min":50,"x_max":697,"o":"m 311 -15 q 176 14 235 -15 q 84 93 118 43 q 50 206 50 143 q 89 324 50 279 q 215 387 128 368 q 447 406 303 406 l 497 406 l 497 429 q 469 516 497 490 q 375 542 442 542 q 258 524 319 542 q 135 472 196 507 l 78 613 q 166 656 114 636 q 275 685 218 675 q 383 696 332 696 q 619 624 542 696 q 697 403 697 553 l 697 0 l 501 0 l 501 103 q 431 17 481 49 q 311 -15 382 -15 m 358 125 q 457 165 417 125 q 497 269 497 206 l 497 297 l 449 297 q 297 278 342 297 q 253 214 253 260 q 280 150 253 175 q 358 125 307 125 m 393 767 q 222 840 288 767 q 153 1038 156 913 l 268 1049 q 306 930 274 971 q 393 889 338 889 q 481 930 449 889 q 518 1049 513 971 l 633 1038 q 565 840 631 913 q 393 767 500 767 z "},"ắ":{"ha":774,"x_min":50,"x_max":697,"o":"m 311 -15 q 176 14 235 -15 q 84 93 118 43 q 50 206 50 143 q 89 324 50 279 q 215 387 128 368 q 447 406 303 406 l 497 406 l 497 429 q 469 516 497 490 q 375 542 442 542 q 258 524 319 542 q 135 472 196 507 l 78 613 q 166 656 114 636 q 275 685 218 675 q 383 696 332 696 q 619 624 542 696 q 697 403 697 553 l 697 0 l 501 0 l 501 103 q 431 17 481 49 q 311 -15 382 -15 m 358 125 q 457 165 417 125 q 497 269 497 206 l 497 297 l 449 297 q 297 278 342 297 q 253 214 253 260 q 280 150 253 175 q 358 125 307 125 m 321 953 l 413 1129 l 607 1129 l 449 953 l 321 953 m 393 767 q 221 825 288 767 q 144 982 154 883 l 240 993 q 291 909 254 939 q 393 879 328 879 q 495 909 458 879 q 546 993 532 939 l 642 982 q 567 825 633 883 q 393 767 500 767 z "},"ặ":{"ha":774,"x_min":50,"x_max":697,"o":"m 311 -15 q 176 14 235 -15 q 84 93 118 43 q 50 206 50 143 q 89 324 50 279 q 215 387 128 368 q 447 406 303 406 l 497 406 l 497 429 q 469 516 497 490 q 375 542 442 542 q 258 524 319 542 q 135 472 196 507 l 78 613 q 166 656 114 636 q 275 685 218 675 q 383 696 332 696 q 619 624 542 696 q 697 403 697 553 l 697 0 l 501 0 l 501 103 q 431 17 481 49 q 311 -15 382 -15 m 358 125 q 457 165 417 125 q 497 269 497 206 l 497 297 l 449 297 q 297 278 342 297 q 253 214 253 260 q 280 150 253 175 q 358 125 307 125 m 290 -297 l 290 -112 l 485 -112 l 485 -297 l 290 -297 m 393 767 q 222 840 288 767 q 153 1038 156 913 l 268 1049 q 306 930 274 971 q 393 889 338 889 q 481 930 449 889 q 518 1049 513 971 l 633 1038 q 565 840 631 913 q 393 767 500 767 z "},"ằ":{"ha":774,"x_min":50,"x_max":697,"o":"m 311 -15 q 176 14 235 -15 q 84 93 118 43 q 50 206 50 143 q 89 324 50 279 q 215 387 128 368 q 447 406 303 406 l 497 406 l 497 429 q 469 516 497 490 q 375 542 442 542 q 258 524 319 542 q 135 472 196 507 l 78 613 q 166 656 114 636 q 275 685 218 675 q 383 696 332 696 q 619 624 542 696 q 697 403 697 553 l 697 0 l 501 0 l 501 103 q 431 17 481 49 q 311 -15 382 -15 m 358 125 q 457 165 417 125 q 497 269 497 206 l 497 297 l 449 297 q 297 278 342 297 q 253 214 253 260 q 280 150 253 175 q 358 125 307 125 m 338 953 l 181 1129 l 374 1129 l 465 953 l 338 953 m 393 767 q 221 825 288 767 q 144 982 154 883 l 240 993 q 291 909 254 939 q 393 879 328 879 q 495 909 458 879 q 546 993 532 939 l 642 982 q 567 825 633 883 q 393 767 500 767 z "},"ẳ":{"ha":774,"x_min":50,"x_max":697,"o":"m 311 -15 q 176 14 235 -15 q 84 93 118 43 q 50 206 50 143 q 89 324 50 279 q 215 387 128 368 q 447 406 303 406 l 497 406 l 497 429 q 469 516 497 490 q 375 542 442 542 q 258 524 319 542 q 135 472 196 507 l 78 613 q 166 656 114 636 q 275 685 218 675 q 383 696 332 696 q 619 624 542 696 q 697 403 697 553 l 697 0 l 501 0 l 501 103 q 431 17 481 49 q 311 -15 382 -15 m 358 125 q 457 165 417 125 q 497 269 497 206 l 497 297 l 449 297 q 297 278 342 297 q 253 214 253 260 q 280 150 253 175 q 358 125 307 125 m 339 953 q 354 996 339 982 q 385 1019 369 1010 q 400 1046 400 1029 q 388 1063 400 1058 q 358 1067 376 1067 q 319 1063 339 1067 q 281 1050 300 1060 l 256 1124 q 318 1144 285 1136 q 401 1151 351 1151 q 500 1132 465 1151 q 535 1081 535 1113 q 522 1040 535 1056 q 492 1014 508 1025 q 462 989 475 1003 q 449 953 449 975 l 339 953 m 393 767 q 221 825 288 767 q 144 982 154 883 l 240 993 q 291 909 254 939 q 393 879 328 879 q 495 909 458 879 q 546 993 532 939 l 642 982 q 567 825 633 883 q 393 767 500 767 z "},"ẵ":{"ha":774,"x_min":50,"x_max":697,"o":"m 311 -15 q 176 14 235 -15 q 84 93 118 43 q 50 206 50 143 q 89 324 50 279 q 215 387 128 368 q 447 406 303 406 l 497 406 l 497 429 q 469 516 497 490 q 375 542 442 542 q 258 524 319 542 q 135 472 196 507 l 78 613 q 166 656 114 636 q 275 685 218 675 q 383 696 332 696 q 619 624 542 696 q 697 403 697 553 l 697 0 l 501 0 l 501 103 q 431 17 481 49 q 311 -15 382 -15 m 358 125 q 457 165 417 125 q 497 269 497 206 l 497 297 l 449 297 q 297 278 342 297 q 253 214 253 260 q 280 150 253 175 q 358 125 307 125 m 235 990 l 143 994 q 192 1111 147 1072 q 300 1150 236 1150 q 351 1142 326 1150 q 407 1119 376 1135 q 481 1096 457 1096 q 551 1151 540 1096 l 643 1146 q 595 1029 639 1068 q 488 990 551 990 q 433 999 460 990 q 378 1022 407 1008 q 335 1040 351 1035 q 307 1046 319 1046 q 258 1032 275 1046 q 235 990 242 1018 m 393 767 q 231 810 297 767 q 144 926 164 853 l 240 956 q 295 899 258 919 q 393 879 332 879 q 492 899 456 879 q 546 956 528 919 l 642 926 q 556 810 622 853 q 393 767 489 767 z "},"ǎ":{"ha":774,"x_min":50,"x_max":697,"o":"m 311 -15 q 176 14 235 -15 q 84 93 118 43 q 50 206 50 143 q 89 324 50 279 q 215 387 128 368 q 447 406 303 406 l 497 406 l 497 429 q 469 516 497 490 q 375 542 442 542 q 258 524 319 542 q 135 472 196 507 l 78 613 q 166 656 114 636 q 275 685 218 675 q 383 696 332 696 q 619 624 542 696 q 697 403 697 553 l 697 0 l 501 0 l 501 103 q 431 17 481 49 q 311 -15 382 -15 m 358 125 q 457 165 417 125 q 497 269 497 206 l 497 297 l 449 297 q 297 278 342 297 q 253 214 253 260 q 280 150 253 175 q 358 125 307 125 m 304 771 l 150 1056 l 281 1056 l 393 885 l 506 1056 l 636 1056 l 482 771 l 304 771 z "},"â":{"ha":774,"x_min":50,"x_max":697,"o":"m 311 -15 q 176 14 235 -15 q 84 93 118 43 q 50 206 50 143 q 89 324 50 279 q 215 387 128 368 q 447 406 303 406 l 497 406 l 497 429 q 469 516 497 490 q 375 542 442 542 q 258 524 319 542 q 135 472 196 507 l 78 613 q 166 656 114 636 q 275 685 218 675 q 383 696 332 696 q 619 624 542 696 q 697 403 697 553 l 697 0 l 501 0 l 501 103 q 431 17 481 49 q 311 -15 382 -15 m 358 125 q 457 165 417 125 q 497 269 497 206 l 497 297 l 449 297 q 297 278 342 297 q 253 214 253 260 q 280 150 253 175 q 358 125 307 125 m 150 771 l 304 1056 l 482 1056 l 636 771 l 506 771 l 393 942 l 281 771 l 150 771 z "},"ấ":{"ha":774,"x_min":50,"x_max":838,"o":"m 311 -15 q 176 14 235 -15 q 84 93 118 43 q 50 206 50 143 q 89 324 50 279 q 215 387 128 368 q 447 406 303 406 l 497 406 l 497 429 q 469 516 497 490 q 375 542 442 542 q 258 524 319 542 q 135 472 196 507 l 78 613 q 166 656 114 636 q 275 685 218 675 q 383 696 332 696 q 619 624 542 696 q 697 403 697 553 l 697 0 l 501 0 l 501 103 q 431 17 481 49 q 311 -15 382 -15 m 358 125 q 457 165 417 125 q 497 269 497 206 l 497 297 l 449 297 q 297 278 342 297 q 253 214 253 260 q 280 150 253 175 q 358 125 307 125 m 556 921 l 671 1129 l 838 1129 l 671 921 l 556 921 m 150 771 l 304 1000 l 482 1000 l 636 771 l 506 771 l 393 892 l 281 771 l 150 771 z "},"ậ":{"ha":774,"x_min":50,"x_max":697,"o":"m 311 -15 q 176 14 235 -15 q 84 93 118 43 q 50 206 50 143 q 89 324 50 279 q 215 387 128 368 q 447 406 303 406 l 497 406 l 497 429 q 469 516 497 490 q 375 542 442 542 q 258 524 319 542 q 135 472 196 507 l 78 613 q 166 656 114 636 q 275 685 218 675 q 383 696 332 696 q 619 624 542 696 q 697 403 697 553 l 697 0 l 501 0 l 501 103 q 431 17 481 49 q 311 -15 382 -15 m 358 125 q 457 165 417 125 q 497 269 497 206 l 497 297 l 449 297 q 297 278 342 297 q 253 214 253 260 q 280 150 253 175 q 358 125 307 125 m 290 -297 l 290 -112 l 485 -112 l 485 -297 l 290 -297 m 150 771 l 304 1056 l 482 1056 l 636 771 l 506 771 l 393 942 l 281 771 l 150 771 z "},"ầ":{"ha":774,"x_min":50,"x_max":725,"o":"m 311 -15 q 176 14 235 -15 q 84 93 118 43 q 50 206 50 143 q 89 324 50 279 q 215 387 128 368 q 447 406 303 406 l 497 406 l 497 429 q 469 516 497 490 q 375 542 442 542 q 258 524 319 542 q 135 472 196 507 l 78 613 q 166 656 114 636 q 275 685 218 675 q 383 696 332 696 q 619 624 542 696 q 697 403 697 553 l 697 0 l 501 0 l 501 103 q 431 17 481 49 q 311 -15 382 -15 m 358 125 q 457 165 417 125 q 497 269 497 206 l 497 297 l 449 297 q 297 278 342 297 q 253 214 253 260 q 280 150 253 175 q 358 125 307 125 m 610 921 l 443 1129 l 610 1129 l 725 921 l 610 921 m 150 771 l 304 1000 l 482 1000 l 636 771 l 506 771 l 393 892 l 281 771 l 150 771 z "},"ẩ":{"ha":774,"x_min":50,"x_max":751,"o":"m 311 -15 q 176 14 235 -15 q 84 93 118 43 q 50 206 50 143 q 89 324 50 279 q 215 387 128 368 q 447 406 303 406 l 497 406 l 497 429 q 469 516 497 490 q 375 542 442 542 q 258 524 319 542 q 135 472 196 507 l 78 613 q 166 656 114 636 q 275 685 218 675 q 383 696 332 696 q 619 624 542 696 q 697 403 697 553 l 697 0 l 501 0 l 501 103 q 431 17 481 49 q 311 -15 382 -15 m 358 125 q 457 165 417 125 q 497 269 497 206 l 497 297 l 449 297 q 297 278 342 297 q 253 214 253 260 q 280 150 253 175 q 358 125 307 125 m 556 917 q 571 965 556 947 q 601 995 586 982 q 617 1026 617 1008 q 605 1042 617 1038 q 575 1047 593 1047 q 536 1044 556 1047 q 497 1032 517 1040 l 472 1104 q 535 1124 501 1117 q 618 1131 568 1131 q 717 1112 682 1131 q 751 1060 751 1093 q 738 1018 751 1035 q 708 987 725 1001 q 678 956 692 972 q 665 917 665 940 l 556 917 m 150 767 l 304 996 l 482 996 l 636 767 l 506 767 l 393 888 l 281 767 l 150 767 z "},"ẫ":{"ha":774,"x_min":50,"x_max":697,"o":"m 311 -15 q 176 14 235 -15 q 84 93 118 43 q 50 206 50 143 q 89 324 50 279 q 215 387 128 368 q 447 406 303 406 l 497 406 l 497 429 q 469 516 497 490 q 375 542 442 542 q 258 524 319 542 q 135 472 196 507 l 78 613 q 166 656 114 636 q 275 685 218 675 q 383 696 332 696 q 619 624 542 696 q 697 403 697 553 l 697 0 l 501 0 l 501 103 q 431 17 481 49 q 311 -15 382 -15 m 358 125 q 457 165 417 125 q 497 269 497 206 l 497 297 l 449 297 q 297 278 342 297 q 253 214 253 260 q 280 150 253 175 q 358 125 307 125 m 235 990 l 143 994 q 192 1111 147 1072 q 300 1150 236 1150 q 351 1142 326 1150 q 407 1119 376 1135 q 481 1096 457 1096 q 551 1151 540 1096 l 643 1146 q 595 1029 639 1068 q 488 990 551 990 q 433 999 460 990 q 378 1022 407 1008 q 335 1040 351 1035 q 307 1046 319 1046 q 258 1032 275 1046 q 235 990 242 1018 m 150 771 l 304 958 l 482 958 l 636 771 l 510 771 l 393 861 l 276 771 l 150 771 z "},"ȁ":{"ha":774,"x_min":50,"x_max":697,"o":"m 311 -15 q 176 14 235 -15 q 84 93 118 43 q 50 206 50 143 q 89 324 50 279 q 215 387 128 368 q 447 406 303 406 l 497 406 l 497 429 q 469 516 497 490 q 375 542 442 542 q 258 524 319 542 q 135 472 196 507 l 78 613 q 166 656 114 636 q 275 685 218 675 q 383 696 332 696 q 619 624 542 696 q 697 403 697 553 l 697 0 l 501 0 l 501 103 q 431 17 481 49 q 311 -15 382 -15 m 358 125 q 457 165 417 125 q 497 269 497 206 l 497 297 l 449 297 q 297 278 342 297 q 253 214 253 260 q 280 150 253 175 q 358 125 307 125 m 454 771 l 326 1056 l 497 1056 l 563 771 l 454 771 m 231 771 l 103 1056 l 274 1056 l 339 771 l 231 771 z "},"ä":{"ha":774,"x_min":50,"x_max":697,"o":"m 311 -15 q 176 14 235 -15 q 84 93 118 43 q 50 206 50 143 q 89 324 50 279 q 215 387 128 368 q 447 406 303 406 l 497 406 l 497 429 q 469 516 497 490 q 375 542 442 542 q 258 524 319 542 q 135 472 196 507 l 78 613 q 166 656 114 636 q 275 685 218 675 q 383 696 332 696 q 619 624 542 696 q 697 403 697 553 l 697 0 l 501 0 l 501 103 q 431 17 481 49 q 311 -15 382 -15 m 358 125 q 457 165 417 125 q 497 269 497 206 l 497 297 l 449 297 q 297 278 342 297 q 253 214 253 260 q 280 150 253 175 q 358 125 307 125 m 438 819 l 438 1003 l 622 1003 l 622 819 l 438 819 m 164 819 l 164 1003 l 349 1003 l 349 819 l 164 819 z "},"ȧ":{"ha":774,"x_min":50,"x_max":697,"o":"m 311 -15 q 176 14 235 -15 q 84 93 118 43 q 50 206 50 143 q 89 324 50 279 q 215 387 128 368 q 447 406 303 406 l 497 406 l 497 429 q 469 516 497 490 q 375 542 442 542 q 258 524 319 542 q 135 472 196 507 l 78 613 q 166 656 114 636 q 275 685 218 675 q 383 696 332 696 q 619 624 542 696 q 697 403 697 553 l 697 0 l 501 0 l 501 103 q 431 17 481 49 q 311 -15 382 -15 m 358 125 q 457 165 417 125 q 497 269 497 206 l 497 297 l 449 297 q 297 278 342 297 q 253 214 253 260 q 280 150 253 175 q 358 125 307 125 m 296 819 l 296 1004 l 490 1004 l 490 819 l 296 819 z "},"ạ":{"ha":774,"x_min":50,"x_max":697,"o":"m 311 -15 q 176 14 235 -15 q 84 93 118 43 q 50 206 50 143 q 89 324 50 279 q 215 387 128 368 q 447 406 303 406 l 497 406 l 497 429 q 469 516 497 490 q 375 542 442 542 q 258 524 319 542 q 135 472 196 507 l 78 613 q 166 656 114 636 q 275 685 218 675 q 383 696 332 696 q 619 624 542 696 q 697 403 697 553 l 697 0 l 501 0 l 501 103 q 431 17 481 49 q 311 -15 382 -15 m 358 125 q 457 165 417 125 q 497 269 497 206 l 497 297 l 449 297 q 297 278 342 297 q 253 214 253 260 q 280 150 253 175 q 358 125 307 125 m 290 -297 l 290 -112 l 485 -112 l 485 -297 l 290 -297 z "},"à":{"ha":774,"x_min":50,"x_max":697,"o":"m 311 -15 q 176 14 235 -15 q 84 93 118 43 q 50 206 50 143 q 89 324 50 279 q 215 387 128 368 q 447 406 303 406 l 497 406 l 497 429 q 469 516 497 490 q 375 542 442 542 q 258 524 319 542 q 135 472 196 507 l 78 613 q 166 656 114 636 q 275 685 218 675 q 383 696 332 696 q 619 624 542 696 q 697 403 697 553 l 697 0 l 501 0 l 501 103 q 431 17 481 49 q 311 -15 382 -15 m 358 125 q 457 165 417 125 q 497 269 497 206 l 497 297 l 449 297 q 297 278 342 297 q 253 214 253 260 q 280 150 253 175 q 358 125 307 125 m 324 771 l 119 1056 l 321 1056 l 463 771 l 324 771 z "},"ả":{"ha":774,"x_min":50,"x_max":697,"o":"m 311 -15 q 176 14 235 -15 q 84 93 118 43 q 50 206 50 143 q 89 324 50 279 q 215 387 128 368 q 447 406 303 406 l 497 406 l 497 429 q 469 516 497 490 q 375 542 442 542 q 258 524 319 542 q 135 472 196 507 l 78 613 q 166 656 114 636 q 275 685 218 675 q 383 696 332 696 q 619 624 542 696 q 697 403 697 553 l 697 0 l 501 0 l 501 103 q 431 17 481 49 q 311 -15 382 -15 m 358 125 q 457 165 417 125 q 497 269 497 206 l 497 297 l 449 297 q 297 278 342 297 q 253 214 253 260 q 280 150 253 175 q 358 125 307 125 m 332 771 l 332 801 q 350 859 332 838 q 386 897 368 881 q 404 936 404 913 q 354 968 404 968 q 272 947 311 968 l 242 1032 q 403 1067 304 1067 q 518 1040 476 1067 q 560 964 560 1014 q 544 906 560 928 q 507 869 528 885 q 470 838 486 854 q 454 794 454 821 l 454 771 l 332 771 z "},"ȃ":{"ha":774,"x_min":50,"x_max":697,"o":"m 311 -15 q 176 14 235 -15 q 84 93 118 43 q 50 206 50 143 q 89 324 50 279 q 215 387 128 368 q 447 406 303 406 l 497 406 l 497 429 q 469 516 497 490 q 375 542 442 542 q 258 524 319 542 q 135 472 196 507 l 78 613 q 166 656 114 636 q 275 685 218 675 q 383 696 332 696 q 619 624 542 696 q 697 403 697 553 l 697 0 l 501 0 l 501 103 q 431 17 481 49 q 311 -15 382 -15 m 358 125 q 457 165 417 125 q 497 269 497 206 l 497 297 l 449 297 q 297 278 342 297 q 253 214 253 260 q 280 150 253 175 q 358 125 307 125 m 268 767 l 153 776 q 222 975 156 901 q 393 1049 288 1049 q 565 975 500 1049 q 633 776 631 901 l 518 767 q 481 884 513 843 q 393 925 449 925 q 306 884 338 925 q 268 767 274 843 z "},"ā":{"ha":774,"x_min":50,"x_max":697,"o":"m 311 -15 q 176 14 235 -15 q 84 93 118 43 q 50 206 50 143 q 89 324 50 279 q 215 387 128 368 q 447 406 303 406 l 497 406 l 497 429 q 469 516 497 490 q 375 542 442 542 q 258 524 319 542 q 135 472 196 507 l 78 613 q 166 656 114 636 q 275 685 218 675 q 383 696 332 696 q 619 624 542 696 q 697 403 697 553 l 697 0 l 501 0 l 501 103 q 431 17 481 49 q 311 -15 382 -15 m 358 125 q 457 165 417 125 q 497 269 497 206 l 497 297 l 449 297 q 297 278 342 297 q 253 214 253 260 q 280 150 253 175 q 358 125 307 125 m 167 849 l 167 967 l 619 967 l 619 849 l 167 849 z "},"ą":{"ha":774,"x_min":50,"x_max":728,"o":"m 311 -15 q 176 14 235 -15 q 84 93 118 43 q 50 206 50 143 q 89 324 50 279 q 215 387 128 368 q 447 406 303 406 l 497 406 l 497 429 q 469 516 497 490 q 375 542 442 542 q 258 524 319 542 q 135 472 196 507 l 78 613 q 166 656 114 636 q 275 685 218 675 q 383 696 332 696 q 619 624 542 696 q 697 403 697 553 l 697 0 l 501 0 l 501 103 q 431 17 481 49 q 311 -15 382 -15 m 358 125 q 457 165 417 125 q 497 269 497 206 l 497 297 l 449 297 q 297 278 342 297 q 253 214 253 260 q 280 150 253 175 q 358 125 307 125 m 601 -274 q 474 -233 519 -274 q 428 -124 428 -192 q 468 -12 428 -62 q 575 63 508 38 l 633 0 q 576 -41 597 -14 q 554 -100 554 -68 q 576 -149 554 -132 q 631 -167 599 -167 q 669 -162 651 -167 q 707 -151 686 -158 l 728 -249 q 601 -274 671 -274 z "},"å":{"ha":774,"x_min":50,"x_max":697,"o":"m 311 -15 q 176 14 235 -15 q 84 93 118 43 q 50 206 50 143 q 89 324 50 279 q 215 387 128 368 q 447 406 303 406 l 497 406 l 497 429 q 469 516 497 490 q 375 542 442 542 q 258 524 319 542 q 135 472 196 507 l 78 613 q 166 656 114 636 q 275 685 218 675 q 383 696 332 696 q 619 624 542 696 q 697 403 697 553 l 697 0 l 501 0 l 501 103 q 431 17 481 49 q 311 -15 382 -15 m 358 125 q 457 165 417 125 q 497 269 497 206 l 497 297 l 449 297 q 297 278 342 297 q 253 214 253 260 q 280 150 253 175 q 358 125 307 125 m 393 757 q 301 781 342 757 q 236 844 260 804 q 213 933 213 883 q 236 1023 213 983 q 301 1085 260 1063 q 393 1108 342 1108 q 485 1085 444 1108 q 550 1023 526 1063 q 574 933 574 983 q 550 844 574 883 q 485 781 526 804 q 393 757 444 757 m 393 847 q 453 872 429 847 q 478 933 478 896 q 453 994 478 969 q 393 1018 429 1018 q 333 994 357 1018 q 308 933 308 969 q 333 872 308 896 q 393 847 357 847 z "},"ǻ":{"ha":774,"x_min":50,"x_max":721,"o":"m 311 -15 q 176 14 235 -15 q 84 93 118 43 q 50 206 50 143 q 89 324 50 279 q 215 387 128 368 q 447 406 303 406 l 497 406 l 497 429 q 469 516 497 490 q 375 542 442 542 q 258 524 319 542 q 135 472 196 507 l 78 613 q 166 656 114 636 q 275 685 218 675 q 383 696 332 696 q 619 624 542 696 q 697 403 697 553 l 697 0 l 501 0 l 501 103 q 431 17 481 49 q 311 -15 382 -15 m 358 125 q 457 165 417 125 q 497 269 497 206 l 497 297 l 449 297 q 297 278 342 297 q 253 214 253 260 q 280 150 253 175 q 358 125 307 125 m 393 749 q 271 797 321 749 q 221 914 221 844 q 244 999 221 961 q 306 1060 267 1038 q 393 1082 344 1082 q 438 1076 417 1082 q 479 1058 460 1069 l 565 1138 l 721 1138 l 547 988 q 565 914 565 953 q 515 797 565 844 q 393 749 465 749 m 393 831 q 453 854 429 831 q 478 914 478 878 q 453 975 478 951 q 393 999 429 999 q 333 975 357 999 q 308 914 308 951 q 333 854 308 878 q 393 831 357 831 z "},"ã":{"ha":774,"x_min":50,"x_max":697,"o":"m 311 -15 q 176 14 235 -15 q 84 93 118 43 q 50 206 50 143 q 89 324 50 279 q 215 387 128 368 q 447 406 303 406 l 497 406 l 497 429 q 469 516 497 490 q 375 542 442 542 q 258 524 319 542 q 135 472 196 507 l 78 613 q 166 656 114 636 q 275 685 218 675 q 383 696 332 696 q 619 624 542 696 q 697 403 697 553 l 697 0 l 501 0 l 501 103 q 431 17 481 49 q 311 -15 382 -15 m 358 125 q 457 165 417 125 q 497 269 497 206 l 497 297 l 449 297 q 297 278 342 297 q 253 214 253 260 q 280 150 253 175 q 358 125 307 125 m 211 807 l 113 813 q 167 973 119 915 q 289 1031 215 1031 q 348 1018 322 1031 q 407 983 374 1006 q 454 955 436 963 q 490 947 472 947 q 575 1036 560 947 l 674 1031 q 620 870 668 928 q 497 813 572 813 q 442 823 468 813 q 379 860 415 833 q 296 896 328 896 q 211 807 226 896 z "},"æ":{"ha":1206,"x_min":50,"x_max":1164,"o":"m 329 -15 q 181 14 243 -15 q 85 93 119 43 q 50 206 50 143 q 90 324 50 279 q 217 387 129 368 q 453 406 306 406 l 496 406 l 496 431 q 467 515 496 489 q 375 542 439 542 q 258 525 319 542 q 135 472 196 508 l 78 613 q 166 656 114 636 q 275 685 218 675 q 383 696 332 696 q 524 674 464 696 q 618 603 583 651 q 719 673 660 650 q 842 696 778 696 q 1013 653 940 696 q 1124 533 1085 611 q 1164 349 1164 456 l 1164 297 l 699 297 q 753 179 708 217 q 885 142 799 142 q 1097 210 1003 142 l 1153 69 q 1027 8 1101 31 q 879 -15 953 -15 q 699 20 778 -15 q 579 126 621 56 q 483 22 547 58 q 329 -15 419 -15 m 850 557 q 699 406 717 557 l 990 406 q 850 557 982 557 m 358 125 q 458 167 419 125 q 496 274 496 208 l 496 297 l 449 297 q 297 278 342 297 q 253 214 253 260 q 280 150 253 175 q 358 125 307 125 z "},"ǽ":{"ha":1206,"x_min":50,"x_max":1164,"o":"m 329 -15 q 181 14 243 -15 q 85 93 119 43 q 50 206 50 143 q 90 324 50 279 q 217 387 129 368 q 453 406 306 406 l 496 406 l 496 431 q 467 515 496 489 q 375 542 439 542 q 258 525 319 542 q 135 472 196 508 l 78 613 q 166 656 114 636 q 275 685 218 675 q 383 696 332 696 q 524 674 464 696 q 618 603 583 651 q 719 673 660 650 q 842 696 778 696 q 1013 653 940 696 q 1124 533 1085 611 q 1164 349 1164 456 l 1164 297 l 699 297 q 753 179 708 217 q 885 142 799 142 q 1097 210 1003 142 l 1153 69 q 1027 8 1101 31 q 879 -15 953 -15 q 699 20 778 -15 q 579 126 621 56 q 483 22 547 58 q 329 -15 419 -15 m 850 557 q 699 406 717 557 l 990 406 q 850 557 982 557 m 358 125 q 458 167 419 125 q 496 274 496 208 l 496 297 l 449 297 q 297 278 342 297 q 253 214 253 260 q 280 150 253 175 q 358 125 307 125 m 507 771 l 650 1056 l 850 1056 l 646 771 l 507 771 z "},"b":{"ha":847,"x_min":81,"x_max":800,"o":"m 501 -15 q 372 17 429 -15 q 286 101 314 49 l 286 0 l 81 0 l 81 979 l 290 979 l 290 590 q 377 667 321 639 q 501 696 433 696 q 658 653 590 696 q 763 531 725 610 q 800 342 800 451 q 763 152 800 232 q 658 28 725 72 q 501 -15 590 -15 m 439 142 q 547 190 506 142 q 589 342 589 239 q 547 491 589 443 q 439 539 506 539 q 329 491 371 539 q 288 342 288 443 q 329 190 288 239 q 439 142 371 142 z "},"ɓ":{"ha":847,"x_min":81,"x_max":800,"o":"m 501 -15 q 372 17 429 -15 q 286 101 314 49 l 286 0 l 81 0 l 81 707 q 156 916 81 838 q 379 994 231 994 q 429 990 401 994 q 478 979 457 986 l 454 824 q 425 829 438 828 q 399 831 413 831 q 290 704 290 831 l 290 590 q 377 667 321 639 q 501 696 433 696 q 658 653 590 696 q 763 531 725 610 q 800 342 800 451 q 763 152 800 232 q 658 28 725 72 q 501 -15 590 -15 m 439 142 q 547 190 506 142 q 589 342 589 239 q 547 491 589 443 q 439 539 506 539 q 329 491 371 539 q 288 342 288 443 q 329 190 288 239 q 439 142 371 142 z "},"c":{"ha":664,"x_min":47,"x_max":653,"o":"m 413 -15 q 219 28 301 -15 q 92 153 136 72 q 47 343 47 233 q 92 532 47 453 q 219 653 136 611 q 413 696 301 696 q 544 676 478 696 q 653 621 611 657 l 594 476 q 517 520 560 504 q 433 536 474 536 q 306 485 351 536 q 261 342 261 435 q 306 198 261 250 q 433 146 351 146 q 516 161 472 146 q 594 206 560 176 l 653 61 q 544 5 611 25 q 413 -15 478 -15 z "},"ć":{"ha":664,"x_min":47,"x_max":671,"o":"m 413 -15 q 219 28 301 -15 q 92 153 136 72 q 47 343 47 233 q 92 532 47 453 q 219 653 136 611 q 413 696 301 696 q 544 676 478 696 q 653 621 611 657 l 594 476 q 517 520 560 504 q 433 536 474 536 q 306 485 351 536 q 261 342 261 435 q 306 198 261 250 q 433 146 351 146 q 516 161 472 146 q 594 206 560 176 l 653 61 q 544 5 611 25 q 413 -15 478 -15 m 328 771 l 471 1056 l 671 1056 l 467 771 l 328 771 z "},"č":{"ha":664,"x_min":47,"x_max":653,"o":"m 413 -15 q 219 28 301 -15 q 92 153 136 72 q 47 343 47 233 q 92 532 47 453 q 219 653 136 611 q 413 696 301 696 q 544 676 478 696 q 653 621 611 657 l 594 476 q 517 520 560 504 q 433 536 474 536 q 306 485 351 536 q 261 342 261 435 q 306 198 261 250 q 433 146 351 146 q 516 161 472 146 q 594 206 560 176 l 653 61 q 544 5 611 25 q 413 -15 478 -15 m 308 771 l 154 1056 l 285 1056 l 397 885 l 510 1056 l 640 1056 l 486 771 l 308 771 z "},"ç":{"ha":664,"x_min":47,"x_max":653,"o":"m 413 -15 q 219 28 301 -15 q 92 153 136 72 q 47 343 47 233 q 92 532 47 453 q 219 653 136 611 q 413 696 301 696 q 544 676 478 696 q 653 621 611 657 l 594 476 q 517 520 560 504 q 433 536 474 536 q 306 485 351 536 q 261 342 261 435 q 306 198 261 250 q 433 146 351 146 q 516 161 472 146 q 594 206 560 176 l 653 61 q 544 5 611 25 q 413 -15 478 -15 m 396 -274 q 313 -266 353 -274 q 244 -243 274 -258 l 274 -154 q 324 -173 299 -167 q 376 -179 349 -179 q 449 -143 449 -179 q 397 -115 449 -115 q 373 -117 385 -115 q 344 -122 361 -118 l 317 -94 l 335 28 l 440 28 l 426 -47 q 435 -47 431 -47 q 533 -74 497 -47 q 568 -150 568 -101 q 520 -240 568 -206 q 396 -274 472 -274 z "},"ḉ":{"ha":664,"x_min":47,"x_max":671,"o":"m 413 -15 q 219 28 301 -15 q 92 153 136 72 q 47 343 47 233 q 92 532 47 453 q 219 653 136 611 q 413 696 301 696 q 544 676 478 696 q 653 621 611 657 l 594 476 q 517 520 560 504 q 433 536 474 536 q 306 485 351 536 q 261 342 261 435 q 306 198 261 250 q 433 146 351 146 q 516 161 472 146 q 594 206 560 176 l 653 61 q 544 5 611 25 q 413 -15 478 -15 m 396 -274 q 313 -266 353 -274 q 244 -243 274 -258 l 274 -154 q 324 -173 299 -167 q 376 -179 349 -179 q 449 -143 449 -179 q 397 -115 449 -115 q 373 -117 385 -115 q 344 -122 361 -118 l 317 -94 l 335 28 l 440 28 l 426 -47 q 435 -47 431 -47 q 533 -74 497 -47 q 568 -150 568 -101 q 520 -240 568 -206 q 396 -274 472 -274 m 328 771 l 471 1056 l 671 1056 l 467 771 l 328 771 z "},"ĉ":{"ha":664,"x_min":47,"x_max":653,"o":"m 413 -15 q 219 28 301 -15 q 92 153 136 72 q 47 343 47 233 q 92 532 47 453 q 219 653 136 611 q 413 696 301 696 q 544 676 478 696 q 653 621 611 657 l 594 476 q 517 520 560 504 q 433 536 474 536 q 306 485 351 536 q 261 342 261 435 q 306 198 261 250 q 433 146 351 146 q 516 161 472 146 q 594 206 560 176 l 653 61 q 544 5 611 25 q 413 -15 478 -15 m 154 771 l 308 1056 l 486 1056 l 640 771 l 510 771 l 397 942 l 285 771 l 154 771 z "},"ċ":{"ha":664,"x_min":47,"x_max":653,"o":"m 413 -15 q 219 28 301 -15 q 92 153 136 72 q 47 343 47 233 q 92 532 47 453 q 219 653 136 611 q 413 696 301 696 q 544 676 478 696 q 653 621 611 657 l 594 476 q 517 520 560 504 q 433 536 474 536 q 306 485 351 536 q 261 342 261 435 q 306 198 261 250 q 433 146 351 146 q 516 161 472 146 q 594 206 560 176 l 653 61 q 544 5 611 25 q 413 -15 478 -15 m 300 819 l 300 1004 l 494 1004 l 494 819 l 300 819 z "},"d":{"ha":847,"x_min":47,"x_max":767,"o":"m 346 -15 q 190 28 257 -15 q 85 152 122 72 q 47 342 47 232 q 85 531 47 451 q 190 653 122 610 q 346 696 257 696 q 471 667 414 696 q 557 589 528 638 l 557 979 l 767 979 l 767 0 l 561 0 l 561 103 q 476 17 533 49 q 346 -15 418 -15 m 408 142 q 517 190 475 142 q 560 342 560 239 q 517 491 560 443 q 408 539 475 539 q 300 491 342 539 q 258 342 258 443 q 300 190 258 239 q 408 142 342 142 z "},"ð":{"ha":824,"x_min":47,"x_max":779,"o":"m 400 -15 q 216 26 296 -15 q 92 140 136 67 q 47 308 47 213 q 90 472 47 400 q 207 583 132 543 q 379 622 282 622 q 485 607 438 622 q 568 554 533 592 q 510 670 549 619 q 422 757 471 721 l 189 649 l 140 753 l 296 825 q 239 845 269 836 q 172 861 208 854 l 210 994 q 354 957 289 981 q 471 906 419 933 l 664 994 l 713 890 l 579 831 q 728 634 676 746 q 779 403 779 522 q 681 97 779 208 q 400 -15 582 -15 m 408 144 q 519 189 479 144 q 558 307 558 233 q 519 424 558 381 q 407 468 481 468 q 298 424 338 468 q 258 307 258 381 q 298 188 258 231 q 408 144 338 144 z "},"ď":{"ha":847,"x_min":47,"x_max":949,"o":"m 346 -15 q 190 28 257 -15 q 85 152 122 72 q 47 342 47 232 q 85 531 47 451 q 190 653 122 610 q 346 696 257 696 q 471 667 414 696 q 557 589 528 638 l 557 979 l 767 979 l 767 0 l 561 0 l 561 103 q 476 17 533 49 q 346 -15 418 -15 m 408 142 q 517 190 475 142 q 560 342 560 239 q 517 491 560 443 q 408 539 475 539 q 300 491 342 539 q 258 342 258 443 q 300 190 258 239 q 408 142 342 142 m 817 710 l 817 979 l 949 979 l 910 710 l 817 710 z "},"đ":{"ha":847,"x_min":47,"x_max":885,"o":"m 346 -15 q 191 28 258 -15 q 85 149 124 71 q 47 336 47 228 q 85 524 47 446 q 190 645 122 603 q 346 688 257 688 q 472 658 415 688 q 557 579 529 628 l 557 747 l 299 747 l 299 892 l 557 892 l 557 979 l 767 979 l 767 892 l 885 892 l 885 747 l 767 747 l 767 0 l 561 0 l 561 100 q 475 16 532 47 q 346 -15 418 -15 m 410 142 q 519 190 476 142 q 561 336 561 239 q 519 483 561 435 q 410 531 476 531 q 300 483 342 531 q 258 336 258 435 q 300 190 258 239 q 410 142 342 142 z "},"ḍ":{"ha":847,"x_min":47,"x_max":767,"o":"m 346 -15 q 190 28 257 -15 q 85 152 122 72 q 47 342 47 232 q 85 531 47 451 q 190 653 122 610 q 346 696 257 696 q 471 667 414 696 q 557 589 528 638 l 557 979 l 767 979 l 767 0 l 561 0 l 561 103 q 476 17 533 49 q 346 -15 418 -15 m 408 142 q 517 190 475 142 q 560 342 560 239 q 517 491 560 443 q 408 539 475 539 q 300 491 342 539 q 258 342 258 443 q 300 190 258 239 q 408 142 342 142 m 328 -297 l 328 -112 l 522 -112 l 522 -297 l 328 -297 z "},"ɗ":{"ha":847,"x_min":47,"x_max":953,"o":"m 346 -15 q 190 28 257 -15 q 85 152 122 72 q 47 342 47 232 q 85 531 47 451 q 190 653 122 610 q 346 696 257 696 q 471 667 414 696 q 557 589 528 638 l 557 707 q 631 916 557 838 q 854 994 706 994 q 906 990 878 994 q 953 979 935 986 l 929 824 q 900 829 913 828 q 874 831 888 831 q 797 802 826 831 q 767 704 767 774 l 767 0 l 561 0 l 561 103 q 476 17 533 49 q 346 -15 418 -15 m 408 142 q 517 190 475 142 q 560 342 560 239 q 517 491 560 443 q 408 539 475 539 q 300 491 342 539 q 258 342 258 443 q 300 190 258 239 q 408 142 342 142 z "},"ḏ":{"ha":847,"x_min":47,"x_max":767,"o":"m 346 -15 q 190 28 257 -15 q 85 152 122 72 q 47 342 47 232 q 85 531 47 451 q 190 653 122 610 q 346 696 257 696 q 471 667 414 696 q 557 589 528 638 l 557 979 l 767 979 l 767 0 l 561 0 l 561 103 q 476 17 533 49 q 346 -15 418 -15 m 408 142 q 517 190 475 142 q 560 342 560 239 q 517 491 560 443 q 408 539 475 539 q 300 491 342 539 q 258 342 258 443 q 300 190 258 239 q 408 142 342 142 m 199 -236 l 199 -118 l 651 -118 l 651 -236 l 199 -236 z "},"ǆ":{"ha":1514,"x_min":47,"x_max":1481,"o":"m 346 -15 q 190 28 257 -15 q 85 152 122 72 q 47 342 47 232 q 85 531 47 451 q 190 653 122 610 q 346 696 257 696 q 471 667 414 696 q 557 589 528 638 l 557 979 l 767 979 l 767 0 l 561 0 l 561 103 q 476 17 533 49 q 346 -15 418 -15 m 408 142 q 517 190 475 142 q 560 342 560 239 q 517 491 560 443 q 408 539 475 539 q 300 491 342 539 q 258 342 258 443 q 300 190 258 239 q 408 142 342 142 z "},"e":{"ha":763,"x_min":47,"x_max":721,"o":"m 435 -15 q 227 28 314 -15 q 94 152 140 72 q 47 340 47 232 q 92 526 47 446 q 216 651 138 606 q 397 696 294 696 q 633 602 546 696 q 721 349 721 508 l 721 296 l 247 296 q 306 178 258 215 q 439 142 354 142 q 551 158 494 142 q 654 210 608 175 l 710 69 q 584 8 658 31 q 435 -15 510 -15 m 406 557 q 298 517 339 557 q 247 404 257 476 l 547 404 q 406 557 539 557 z "},"é":{"ha":763,"x_min":47,"x_max":721,"o":"m 435 -15 q 227 28 314 -15 q 94 152 140 72 q 47 340 47 232 q 92 526 47 446 q 216 651 138 606 q 397 696 294 696 q 633 602 546 696 q 721 349 721 508 l 721 296 l 247 296 q 306 178 258 215 q 439 142 354 142 q 551 158 494 142 q 654 210 608 175 l 710 69 q 584 8 658 31 q 435 -15 510 -15 m 406 557 q 298 517 339 557 q 247 404 257 476 l 547 404 q 406 557 539 557 m 329 771 l 472 1056 l 672 1056 l 468 771 l 329 771 z "},"ĕ":{"ha":763,"x_min":47,"x_max":721,"o":"m 435 -15 q 227 28 314 -15 q 94 152 140 72 q 47 340 47 232 q 92 526 47 446 q 216 651 138 606 q 397 696 294 696 q 633 602 546 696 q 721 349 721 508 l 721 296 l 247 296 q 306 178 258 215 q 439 142 354 142 q 551 158 494 142 q 654 210 608 175 l 710 69 q 584 8 658 31 q 435 -15 510 -15 m 406 557 q 298 517 339 557 q 247 404 257 476 l 547 404 q 406 557 539 557 m 399 767 q 227 840 293 767 q 158 1038 161 913 l 274 1049 q 311 930 279 971 q 399 889 343 889 q 486 930 454 889 q 524 1049 518 971 l 639 1038 q 571 840 636 913 q 399 767 506 767 z "},"ě":{"ha":763,"x_min":47,"x_max":721,"o":"m 435 -15 q 227 28 314 -15 q 94 152 140 72 q 47 340 47 232 q 92 526 47 446 q 216 651 138 606 q 397 696 294 696 q 633 602 546 696 q 721 349 721 508 l 721 296 l 247 296 q 306 178 258 215 q 439 142 354 142 q 551 158 494 142 q 654 210 608 175 l 710 69 q 584 8 658 31 q 435 -15 510 -15 m 406 557 q 298 517 339 557 q 247 404 257 476 l 547 404 q 406 557 539 557 m 310 771 l 156 1056 l 286 1056 l 399 885 l 511 1056 l 642 1056 l 488 771 l 310 771 z "},"ḝ":{"ha":763,"x_min":47,"x_max":721,"o":"m 435 -15 q 227 28 314 -15 q 94 152 140 72 q 47 340 47 232 q 92 526 47 446 q 216 651 138 606 q 397 696 294 696 q 633 602 546 696 q 721 349 721 508 l 721 296 l 247 296 q 306 178 258 215 q 439 142 354 142 q 551 158 494 142 q 654 210 608 175 l 710 69 q 584 8 658 31 q 435 -15 510 -15 m 406 557 q 298 517 339 557 q 247 404 257 476 l 547 404 q 406 557 539 557 m 397 -274 q 315 -266 354 -274 q 246 -243 275 -258 l 275 -154 q 325 -173 300 -167 q 378 -179 350 -179 q 450 -143 450 -179 q 399 -115 450 -115 q 374 -117 386 -115 q 346 -122 363 -118 l 318 -94 l 336 28 l 442 28 l 428 -47 q 436 -47 432 -47 q 534 -74 499 -47 q 569 -150 569 -101 q 522 -240 569 -206 q 397 -274 474 -274 m 399 767 q 227 840 293 767 q 158 1038 161 913 l 274 1049 q 311 930 279 971 q 399 889 343 889 q 486 930 454 889 q 524 1049 518 971 l 639 1038 q 571 840 636 913 q 399 767 506 767 z "},"ê":{"ha":763,"x_min":47,"x_max":721,"o":"m 435 -15 q 227 28 314 -15 q 94 152 140 72 q 47 340 47 232 q 92 526 47 446 q 216 651 138 606 q 397 696 294 696 q 633 602 546 696 q 721 349 721 508 l 721 296 l 247 296 q 306 178 258 215 q 439 142 354 142 q 551 158 494 142 q 654 210 608 175 l 710 69 q 584 8 658 31 q 435 -15 510 -15 m 406 557 q 298 517 339 557 q 247 404 257 476 l 547 404 q 406 557 539 557 m 156 771 l 310 1056 l 488 1056 l 642 771 l 511 771 l 399 942 l 286 771 l 156 771 z "},"ế":{"ha":763,"x_min":47,"x_max":843,"o":"m 435 -15 q 227 28 314 -15 q 94 152 140 72 q 47 340 47 232 q 92 526 47 446 q 216 651 138 606 q 397 696 294 696 q 633 602 546 696 q 721 349 721 508 l 721 296 l 247 296 q 306 178 258 215 q 439 142 354 142 q 551 158 494 142 q 654 210 608 175 l 710 69 q 584 8 658 31 q 435 -15 510 -15 m 406 557 q 298 517 339 557 q 247 404 257 476 l 547 404 q 406 557 539 557 m 561 921 l 676 1129 l 843 1129 l 676 921 l 561 921 m 156 771 l 310 1000 l 488 1000 l 642 771 l 511 771 l 399 892 l 286 771 l 156 771 z "},"ệ":{"ha":763,"x_min":47,"x_max":721,"o":"m 435 -15 q 227 28 314 -15 q 94 152 140 72 q 47 340 47 232 q 92 526 47 446 q 216 651 138 606 q 397 696 294 696 q 633 602 546 696 q 721 349 721 508 l 721 296 l 247 296 q 306 178 258 215 q 439 142 354 142 q 551 158 494 142 q 654 210 608 175 l 710 69 q 584 8 658 31 q 435 -15 510 -15 m 406 557 q 298 517 339 557 q 247 404 257 476 l 547 404 q 406 557 539 557 m 301 -297 l 301 -112 l 496 -112 l 496 -297 l 301 -297 m 156 771 l 310 1056 l 488 1056 l 642 771 l 511 771 l 399 942 l 286 771 l 156 771 z "},"ề":{"ha":763,"x_min":47,"x_max":731,"o":"m 435 -15 q 227 28 314 -15 q 94 152 140 72 q 47 340 47 232 q 92 526 47 446 q 216 651 138 606 q 397 696 294 696 q 633 602 546 696 q 721 349 721 508 l 721 296 l 247 296 q 306 178 258 215 q 439 142 354 142 q 551 158 494 142 q 654 210 608 175 l 710 69 q 584 8 658 31 q 435 -15 510 -15 m 406 557 q 298 517 339 557 q 247 404 257 476 l 547 404 q 406 557 539 557 m 615 921 l 449 1129 l 615 1129 l 731 921 l 615 921 m 156 771 l 310 1000 l 488 1000 l 642 771 l 511 771 l 399 892 l 286 771 l 156 771 z "},"ể":{"ha":763,"x_min":47,"x_max":757,"o":"m 435 -15 q 227 28 314 -15 q 94 152 140 72 q 47 340 47 232 q 92 526 47 446 q 216 651 138 606 q 397 696 294 696 q 633 602 546 696 q 721 349 721 508 l 721 296 l 247 296 q 306 178 258 215 q 439 142 354 142 q 551 158 494 142 q 654 210 608 175 l 710 69 q 584 8 658 31 q 435 -15 510 -15 m 406 557 q 298 517 339 557 q 247 404 257 476 l 547 404 q 406 557 539 557 m 561 917 q 576 965 561 947 q 607 995 592 982 q 622 1026 622 1008 q 610 1042 622 1038 q 581 1047 599 1047 q 542 1044 561 1047 q 503 1032 522 1040 l 478 1104 q 540 1124 507 1117 q 624 1131 574 1131 q 722 1112 688 1131 q 757 1060 757 1093 q 744 1018 757 1035 q 714 987 731 1001 q 684 956 697 972 q 671 917 671 940 l 561 917 m 156 767 l 310 996 l 488 996 l 642 767 l 511 767 l 399 888 l 286 767 l 156 767 z "},"ễ":{"ha":763,"x_min":47,"x_max":721,"o":"m 435 -15 q 227 28 314 -15 q 94 152 140 72 q 47 340 47 232 q 92 526 47 446 q 216 651 138 606 q 397 696 294 696 q 633 602 546 696 q 721 349 721 508 l 721 296 l 247 296 q 306 178 258 215 q 439 142 354 142 q 551 158 494 142 q 654 210 608 175 l 710 69 q 584 8 658 31 q 435 -15 510 -15 m 406 557 q 298 517 339 557 q 247 404 257 476 l 547 404 q 406 557 539 557 m 240 990 l 149 994 q 197 1111 153 1072 q 306 1150 242 1150 q 357 1142 332 1150 q 413 1119 382 1135 q 486 1096 463 1096 q 557 1151 546 1096 l 649 1146 q 601 1029 644 1068 q 493 990 557 990 q 439 999 465 990 q 383 1022 413 1008 q 341 1040 357 1035 q 313 1046 325 1046 q 264 1032 281 1046 q 240 990 247 1018 m 156 771 l 310 958 l 488 958 l 642 771 l 515 771 l 399 861 l 282 771 l 156 771 z "},"ȅ":{"ha":763,"x_min":47,"x_max":721,"o":"m 435 -15 q 227 28 314 -15 q 94 152 140 72 q 47 340 47 232 q 92 526 47 446 q 216 651 138 606 q 397 696 294 696 q 633 602 546 696 q 721 349 721 508 l 721 296 l 247 296 q 306 178 258 215 q 439 142 354 142 q 551 158 494 142 q 654 210 608 175 l 710 69 q 584 8 658 31 q 435 -15 510 -15 m 406 557 q 298 517 339 557 q 247 404 257 476 l 547 404 q 406 557 539 557 m 460 771 l 332 1056 l 503 1056 l 568 771 l 460 771 m 236 771 l 108 1056 l 279 1056 l 344 771 l 236 771 z "},"ë":{"ha":763,"x_min":47,"x_max":721,"o":"m 435 -15 q 227 28 314 -15 q 94 152 140 72 q 47 340 47 232 q 92 526 47 446 q 216 651 138 606 q 397 696 294 696 q 633 602 546 696 q 721 349 721 508 l 721 296 l 247 296 q 306 178 258 215 q 439 142 354 142 q 551 158 494 142 q 654 210 608 175 l 710 69 q 584 8 658 31 q 435 -15 510 -15 m 406 557 q 298 517 339 557 q 247 404 257 476 l 547 404 q 406 557 539 557 m 443 819 l 443 1003 l 628 1003 l 628 819 l 443 819 m 169 819 l 169 1003 l 354 1003 l 354 819 l 169 819 z "},"ė":{"ha":763,"x_min":47,"x_max":721,"o":"m 435 -15 q 227 28 314 -15 q 94 152 140 72 q 47 340 47 232 q 92 526 47 446 q 216 651 138 606 q 397 696 294 696 q 633 602 546 696 q 721 349 721 508 l 721 296 l 247 296 q 306 178 258 215 q 439 142 354 142 q 551 158 494 142 q 654 210 608 175 l 710 69 q 584 8 658 31 q 435 -15 510 -15 m 406 557 q 298 517 339 557 q 247 404 257 476 l 547 404 q 406 557 539 557 m 301 819 l 301 1004 l 496 1004 l 496 819 l 301 819 z "},"ẹ":{"ha":763,"x_min":47,"x_max":721,"o":"m 435 -15 q 227 28 314 -15 q 94 152 140 72 q 47 340 47 232 q 92 526 47 446 q 216 651 138 606 q 397 696 294 696 q 633 602 546 696 q 721 349 721 508 l 721 296 l 247 296 q 306 178 258 215 q 439 142 354 142 q 551 158 494 142 q 654 210 608 175 l 710 69 q 584 8 658 31 q 435 -15 510 -15 m 406 557 q 298 517 339 557 q 247 404 257 476 l 547 404 q 406 557 539 557 m 301 -297 l 301 -112 l 496 -112 l 496 -297 l 301 -297 z "},"è":{"ha":763,"x_min":47,"x_max":721,"o":"m 435 -15 q 227 28 314 -15 q 94 152 140 72 q 47 340 47 232 q 92 526 47 446 q 216 651 138 606 q 397 696 294 696 q 633 602 546 696 q 721 349 721 508 l 721 296 l 247 296 q 306 178 258 215 q 439 142 354 142 q 551 158 494 142 q 654 210 608 175 l 710 69 q 584 8 658 31 q 435 -15 510 -15 m 406 557 q 298 517 339 557 q 247 404 257 476 l 547 404 q 406 557 539 557 m 329 771 l 125 1056 l 326 1056 l 468 771 l 329 771 z "},"ẻ":{"ha":763,"x_min":47,"x_max":721,"o":"m 435 -15 q 227 28 314 -15 q 94 152 140 72 q 47 340 47 232 q 92 526 47 446 q 216 651 138 606 q 397 696 294 696 q 633 602 546 696 q 721 349 721 508 l 721 296 l 247 296 q 306 178 258 215 q 439 142 354 142 q 551 158 494 142 q 654 210 608 175 l 710 69 q 584 8 658 31 q 435 -15 510 -15 m 406 557 q 298 517 339 557 q 247 404 257 476 l 547 404 q 406 557 539 557 m 338 771 l 338 801 q 356 859 338 838 q 392 897 374 881 q 410 936 410 913 q 360 968 410 968 q 278 947 317 968 l 247 1032 q 408 1067 310 1067 q 524 1040 482 1067 q 565 964 565 1014 q 549 906 565 928 q 513 869 533 885 q 476 838 492 854 q 460 794 460 821 l 460 771 l 338 771 z "},"ȇ":{"ha":763,"x_min":47,"x_max":721,"o":"m 435 -15 q 227 28 314 -15 q 94 152 140 72 q 47 340 47 232 q 92 526 47 446 q 216 651 138 606 q 397 696 294 696 q 633 602 546 696 q 721 349 721 508 l 721 296 l 247 296 q 306 178 258 215 q 439 142 354 142 q 551 158 494 142 q 654 210 608 175 l 710 69 q 584 8 658 31 q 435 -15 510 -15 m 406 557 q 298 517 339 557 q 247 404 257 476 l 547 404 q 406 557 539 557 m 274 767 l 158 776 q 227 975 161 901 q 399 1049 293 1049 q 571 975 506 1049 q 639 776 636 901 l 524 767 q 486 884 518 843 q 399 925 454 925 q 311 884 343 925 q 274 767 279 843 z "},"ē":{"ha":763,"x_min":47,"x_max":721,"o":"m 435 -15 q 227 28 314 -15 q 94 152 140 72 q 47 340 47 232 q 92 526 47 446 q 216 651 138 606 q 397 696 294 696 q 633 602 546 696 q 721 349 721 508 l 721 296 l 247 296 q 306 178 258 215 q 439 142 354 142 q 551 158 494 142 q 654 210 608 175 l 710 69 q 584 8 658 31 q 435 -15 510 -15 m 406 557 q 298 517 339 557 q 247 404 257 476 l 547 404 q 406 557 539 557 m 172 849 l 172 967 l 625 967 l 625 849 l 172 849 z "},"ḗ":{"ha":763,"x_min":47,"x_max":721,"o":"m 435 -15 q 227 28 314 -15 q 94 152 140 72 q 47 340 47 232 q 92 526 47 446 q 216 651 138 606 q 397 696 294 696 q 633 602 546 696 q 721 349 721 508 l 721 296 l 247 296 q 306 178 258 215 q 439 142 354 142 q 551 158 494 142 q 654 210 608 175 l 710 69 q 584 8 658 31 q 435 -15 510 -15 m 406 557 q 298 517 339 557 q 247 404 257 476 l 547 404 q 406 557 539 557 m 335 953 l 426 1129 l 621 1129 l 463 953 l 335 953 m 172 783 l 172 901 l 625 901 l 625 783 l 172 783 z "},"ḕ":{"ha":763,"x_min":47,"x_max":721,"o":"m 435 -15 q 227 28 314 -15 q 94 152 140 72 q 47 340 47 232 q 92 526 47 446 q 216 651 138 606 q 397 696 294 696 q 633 602 546 696 q 721 349 721 508 l 721 296 l 247 296 q 306 178 258 215 q 439 142 354 142 q 551 158 494 142 q 654 210 608 175 l 710 69 q 584 8 658 31 q 435 -15 510 -15 m 406 557 q 298 517 339 557 q 247 404 257 476 l 547 404 q 406 557 539 557 m 335 953 l 178 1129 l 371 1129 l 463 953 l 335 953 m 172 783 l 172 901 l 625 901 l 625 783 l 172 783 z "},"ę":{"ha":763,"x_min":47,"x_max":721,"o":"m 435 -15 q 227 28 314 -15 q 94 152 140 72 q 47 340 47 232 q 92 526 47 446 q 216 651 138 606 q 397 696 294 696 q 633 602 546 696 q 721 349 721 508 l 721 296 l 247 296 q 306 178 258 215 q 439 142 354 142 q 551 158 494 142 q 654 210 608 175 l 710 69 q 584 8 658 31 q 435 -15 510 -15 m 406 557 q 298 517 339 557 q 247 404 257 476 l 547 404 q 406 557 539 557 m 496 -274 q 368 -233 414 -274 q 322 -124 322 -192 q 363 -12 322 -62 q 469 63 403 38 l 528 0 q 470 -41 492 -14 q 449 -100 449 -68 q 471 -149 449 -132 q 525 -167 493 -167 q 563 -162 546 -167 q 601 -151 581 -158 l 622 -249 q 496 -274 565 -274 z "},"ẽ":{"ha":763,"x_min":47,"x_max":721,"o":"m 435 -15 q 227 28 314 -15 q 94 152 140 72 q 47 340 47 232 q 92 526 47 446 q 216 651 138 606 q 397 696 294 696 q 633 602 546 696 q 721 349 721 508 l 721 296 l 247 296 q 306 178 258 215 q 439 142 354 142 q 551 158 494 142 q 654 210 608 175 l 710 69 q 584 8 658 31 q 435 -15 510 -15 m 406 557 q 298 517 339 557 q 247 404 257 476 l 547 404 q 406 557 539 557 m 217 807 l 118 813 q 173 973 125 915 q 294 1031 221 1031 q 353 1018 328 1031 q 413 983 379 1006 q 460 955 442 963 q 496 947 478 947 q 581 1036 565 947 l 679 1031 q 626 870 674 928 q 503 813 578 813 q 447 823 474 813 q 385 860 421 833 q 301 896 333 896 q 217 807 232 896 z "},"ə":{"ha":763,"x_min":42,"x_max":717,"o":"m 372 -15 q 129 76 217 -15 q 42 335 42 167 l 42 386 l 517 386 q 458 503 506 465 q 331 540 411 540 q 107 472 217 540 l 53 613 q 187 674 111 653 q 336 696 263 696 q 538 653 453 696 q 670 530 624 610 q 717 342 717 450 q 672 155 717 235 q 549 30 626 75 q 372 -15 471 -15 m 363 124 q 466 163 425 124 q 517 278 507 201 l 222 278 q 263 161 226 199 q 363 124 300 124 z "},"ʒ":{"ha":735,"x_min":7,"x_max":696,"o":"m 328 -265 q 7 -182 126 -265 l 65 -37 q 300 -107 163 -107 q 489 36 489 -107 q 300 172 489 172 l 171 172 l 171 269 l 422 522 l 42 522 l 42 682 l 653 682 l 653 542 l 421 310 q 623 233 550 301 q 696 50 696 165 q 651 -117 696 -46 q 523 -226 606 -187 q 328 -265 440 -265 z "},"ǯ":{"ha":735,"x_min":7,"x_max":696,"o":"m 328 -265 q 7 -182 126 -265 l 65 -37 q 300 -107 163 -107 q 489 36 489 -107 q 300 172 489 172 l 171 172 l 171 269 l 422 522 l 42 522 l 42 682 l 653 682 l 653 542 l 421 310 q 623 233 550 301 q 696 50 696 165 q 651 -117 696 -46 q 523 -226 606 -187 q 328 -265 440 -265 m 258 771 l 104 1056 l 235 1056 l 347 885 l 460 1056 l 590 1056 l 436 771 l 258 771 z "},"f":{"ha":531,"x_min":4,"x_max":554,"o":"m 133 0 l 133 525 l 4 525 l 4 682 l 133 682 q 217 899 136 826 q 465 982 299 972 l 542 988 l 554 835 l 489 831 q 376 797 408 826 q 343 706 343 767 l 343 682 l 521 682 l 521 525 l 343 525 l 343 0 l 133 0 z "},"g":{"ha":854,"x_min":47,"x_max":772,"o":"m 408 -265 q 224 -244 310 -265 q 75 -179 139 -224 l 132 -36 q 258 -90 188 -71 q 390 -108 328 -108 q 568 56 568 -108 l 568 133 q 481 49 540 81 q 350 17 421 17 q 190 59 258 17 q 85 178 122 101 q 47 357 47 254 q 85 535 47 458 q 190 653 122 611 q 350 696 258 696 q 482 664 424 696 q 568 579 540 632 l 568 682 l 772 682 l 772 79 q 679 -179 772 -93 q 408 -265 586 -265 m 413 174 q 524 222 482 174 q 567 357 567 271 q 524 491 567 443 q 413 539 482 539 q 300 491 342 539 q 258 357 258 443 q 300 222 258 271 q 413 174 342 174 z "},"ğ":{"ha":854,"x_min":47,"x_max":772,"o":"m 408 -265 q 224 -244 310 -265 q 75 -179 139 -224 l 132 -36 q 258 -90 188 -71 q 390 -108 328 -108 q 568 56 568 -108 l 568 133 q 481 49 540 81 q 350 17 421 17 q 190 59 258 17 q 85 178 122 101 q 47 357 47 254 q 85 535 47 458 q 190 653 122 611 q 350 696 258 696 q 482 664 424 696 q 568 579 540 632 l 568 682 l 772 682 l 772 79 q 679 -179 772 -93 q 408 -265 586 -265 m 413 174 q 524 222 482 174 q 567 357 567 271 q 524 491 567 443 q 413 539 482 539 q 300 491 342 539 q 258 357 258 443 q 300 222 258 271 q 413 174 342 174 m 426 767 q 255 840 321 767 q 186 1038 189 913 l 301 1049 q 339 930 307 971 q 426 889 371 889 q 514 930 482 889 q 551 1049 546 971 l 667 1038 q 599 840 664 913 q 426 767 533 767 z "},"ǧ":{"ha":854,"x_min":47,"x_max":772,"o":"m 408 -265 q 224 -244 310 -265 q 75 -179 139 -224 l 132 -36 q 258 -90 188 -71 q 390 -108 328 -108 q 568 56 568 -108 l 568 133 q 481 49 540 81 q 350 17 421 17 q 190 59 258 17 q 85 178 122 101 q 47 357 47 254 q 85 535 47 458 q 190 653 122 611 q 350 696 258 696 q 482 664 424 696 q 568 579 540 632 l 568 682 l 772 682 l 772 79 q 679 -179 772 -93 q 408 -265 586 -265 m 413 174 q 524 222 482 174 q 567 357 567 271 q 524 491 567 443 q 413 539 482 539 q 300 491 342 539 q 258 357 258 443 q 300 222 258 271 q 413 174 342 174 m 338 771 l 183 1056 l 314 1056 l 426 885 l 539 1056 l 669 1056 l 515 771 l 338 771 z "},"ĝ":{"ha":854,"x_min":47,"x_max":772,"o":"m 408 -265 q 224 -244 310 -265 q 75 -179 139 -224 l 132 -36 q 258 -90 188 -71 q 390 -108 328 -108 q 568 56 568 -108 l 568 133 q 481 49 540 81 q 350 17 421 17 q 190 59 258 17 q 85 178 122 101 q 47 357 47 254 q 85 535 47 458 q 190 653 122 611 q 350 696 258 696 q 482 664 424 696 q 568 579 540 632 l 568 682 l 772 682 l 772 79 q 679 -179 772 -93 q 408 -265 586 -265 m 413 174 q 524 222 482 174 q 567 357 567 271 q 524 491 567 443 q 413 539 482 539 q 300 491 342 539 q 258 357 258 443 q 300 222 258 271 q 413 174 342 174 m 183 771 l 338 1056 l 515 1056 l 669 771 l 539 771 l 426 942 l 314 771 l 183 771 z "},"ģ":{"ha":854,"x_min":47,"x_max":772,"o":"m 408 -265 q 224 -244 310 -265 q 75 -179 139 -224 l 132 -36 q 258 -90 188 -71 q 390 -108 328 -108 q 568 56 568 -108 l 568 133 q 481 49 540 81 q 350 17 421 17 q 190 59 258 17 q 85 178 122 101 q 47 357 47 254 q 85 535 47 458 q 190 653 122 611 q 350 696 258 696 q 482 664 424 696 q 568 579 540 632 l 568 682 l 772 682 l 772 79 q 679 -179 772 -93 q 408 -265 586 -265 m 413 174 q 524 222 482 174 q 567 357 567 271 q 524 491 567 443 q 413 539 482 539 q 300 491 342 539 q 258 357 258 443 q 300 222 258 271 q 413 174 342 174 m 322 781 l 322 879 q 341 990 322 940 q 407 1079 360 1039 l 481 1029 q 445 985 457 1007 q 431 939 433 963 l 529 939 l 529 781 l 322 781 z "},"ġ":{"ha":854,"x_min":47,"x_max":772,"o":"m 408 -265 q 224 -244 310 -265 q 75 -179 139 -224 l 132 -36 q 258 -90 188 -71 q 390 -108 328 -108 q 568 56 568 -108 l 568 133 q 481 49 540 81 q 350 17 421 17 q 190 59 258 17 q 85 178 122 101 q 47 357 47 254 q 85 535 47 458 q 190 653 122 611 q 350 696 258 696 q 482 664 424 696 q 568 579 540 632 l 568 682 l 772 682 l 772 79 q 679 -179 772 -93 q 408 -265 586 -265 m 413 174 q 524 222 482 174 q 567 357 567 271 q 524 491 567 443 q 413 539 482 539 q 300 491 342 539 q 258 357 258 443 q 300 222 258 271 q 413 174 342 174 m 329 819 l 329 1004 l 524 1004 l 524 819 l 329 819 z "},"ḡ":{"ha":854,"x_min":47,"x_max":772,"o":"m 408 -265 q 224 -244 310 -265 q 75 -179 139 -224 l 132 -36 q 258 -90 188 -71 q 390 -108 328 -108 q 568 56 568 -108 l 568 133 q 481 49 540 81 q 350 17 421 17 q 190 59 258 17 q 85 178 122 101 q 47 357 47 254 q 85 535 47 458 q 190 653 122 611 q 350 696 258 696 q 482 664 424 696 q 568 579 540 632 l 568 682 l 772 682 l 772 79 q 679 -179 772 -93 q 408 -265 586 -265 m 413 174 q 524 222 482 174 q 567 357 567 271 q 524 491 567 443 q 413 539 482 539 q 300 491 342 539 q 258 357 258 443 q 300 222 258 271 q 413 174 342 174 m 200 849 l 200 967 l 653 967 l 653 849 l 200 849 z "},"ǥ":{"ha":854,"x_min":47,"x_max":849,"o":"m 408 -265 q 224 -244 310 -265 q 75 -179 139 -224 l 132 -37 q 258 -97 188 -76 q 390 -117 328 -117 q 531 -68 486 -117 l 394 -68 l 394 40 l 568 40 l 568 47 l 568 182 q 481 99 540 131 q 351 68 422 68 q 192 108 261 68 q 85 219 124 149 q 47 382 47 290 q 85 544 47 474 q 192 656 124 615 q 351 696 261 696 q 481 665 422 696 q 568 582 540 635 l 568 682 l 772 682 l 772 79 q 771 40 772 58 l 849 40 l 849 -68 l 750 -68 q 408 -265 678 -265 m 413 224 q 523 267 481 224 q 565 381 565 310 q 523 496 565 453 q 413 539 481 539 q 301 496 343 539 q 258 381 258 453 q 301 266 258 308 q 413 224 344 224 z "},"h":{"ha":826,"x_min":81,"x_max":750,"o":"m 81 0 l 81 979 l 290 979 l 290 589 q 383 669 326 642 q 510 696 440 696 q 750 410 750 696 l 750 0 l 540 0 l 540 400 q 514 502 540 471 q 436 533 488 533 q 330 492 369 533 q 290 381 290 450 l 290 0 l 81 0 z "},"ħ":{"ha":826,"x_min":-36,"x_max":750,"o":"m 81 0 l 81 747 l -36 747 l -36 892 l 81 892 l 81 979 l 290 979 l 290 892 l 550 892 l 550 747 l 290 747 l 290 581 q 383 660 326 632 q 510 688 440 688 q 750 400 750 688 l 750 0 l 540 0 l 540 392 q 514 494 540 463 q 436 525 488 525 q 330 483 369 525 q 290 372 290 442 l 290 0 l 81 0 z "},"ḫ":{"ha":826,"x_min":81,"x_max":750,"o":"m 81 0 l 81 979 l 290 979 l 290 589 q 383 669 326 642 q 510 696 440 696 q 750 410 750 696 l 750 0 l 540 0 l 540 400 q 514 502 540 471 q 436 533 488 533 q 330 492 369 533 q 290 381 290 450 l 290 0 l 81 0 m 415 -299 q 244 -240 310 -299 q 175 -83 178 -182 l 290 -72 q 328 -151 296 -122 q 415 -179 360 -179 q 503 -151 471 -179 q 540 -72 535 -122 l 656 -83 q 588 -240 653 -182 q 415 -299 522 -299 z "},"ȟ":{"ha":826,"x_min":81,"x_max":750,"o":"m 81 0 l 81 979 l 290 979 l 290 589 q 383 669 326 642 q 510 696 440 696 q 750 410 750 696 l 750 0 l 540 0 l 540 400 q 514 502 540 471 q 436 533 488 533 q 330 492 369 533 q 290 381 290 450 l 290 0 l 81 0 m 328 1063 l 154 1306 l 297 1306 l 415 1174 l 533 1306 l 676 1306 l 503 1063 l 328 1063 z "},"ĥ":{"ha":826,"x_min":81,"x_max":750,"o":"m 81 0 l 81 979 l 290 979 l 290 589 q 383 669 326 642 q 510 696 440 696 q 750 410 750 696 l 750 0 l 540 0 l 540 400 q 514 502 540 471 q 436 533 488 533 q 330 492 369 533 q 290 381 290 450 l 290 0 l 81 0 m 154 1063 l 328 1306 l 503 1306 l 676 1063 l 533 1063 l 415 1194 l 297 1063 l 154 1063 z "},"ḥ":{"ha":826,"x_min":81,"x_max":750,"o":"m 81 0 l 81 979 l 290 979 l 290 589 q 383 669 326 642 q 510 696 440 696 q 750 410 750 696 l 750 0 l 540 0 l 540 400 q 514 502 540 471 q 436 533 488 533 q 330 492 369 533 q 290 381 290 450 l 290 0 l 81 0 m 318 -297 l 318 -112 l 513 -112 l 513 -297 l 318 -297 z "},"i":{"ha":372,"x_min":72,"x_max":299,"o":"m 72 814 l 72 1010 l 299 1010 l 299 814 l 72 814 m 81 0 l 81 682 l 290 682 l 290 0 l 81 0 z "},"ı":{"ha":372,"x_min":81,"x_max":290,"o":"m 81 0 l 81 682 l 290 682 l 290 0 l 81 0 z "},"í":{"ha":372,"x_min":81,"x_max":460,"o":"m 81 0 l 81 682 l 290 682 l 290 0 l 81 0 m 117 771 l 260 1056 l 460 1056 l 256 771 l 117 771 z "},"ĭ":{"ha":372,"x_min":-54,"x_max":426,"o":"m 81 0 l 81 682 l 290 682 l 290 0 l 81 0 m 186 767 q 15 840 81 767 q -54 1038 -51 913 l 61 1049 q 99 930 67 971 q 186 889 131 889 q 274 930 242 889 q 311 1049 306 971 l 426 1038 q 358 840 424 913 q 186 767 293 767 z "},"î":{"ha":372,"x_min":-57,"x_max":429,"o":"m 81 0 l 81 682 l 290 682 l 290 0 l 81 0 m -57 771 l 97 1056 l 275 1056 l 429 771 l 299 771 l 186 942 l 74 771 l -57 771 z "},"ȉ":{"ha":372,"x_min":-104,"x_max":356,"o":"m 81 0 l 81 682 l 290 682 l 290 0 l 81 0 m 247 771 l 119 1056 l 290 1056 l 356 771 l 247 771 m 24 771 l -104 1056 l 67 1056 l 132 771 l 24 771 z "},"ï":{"ha":372,"x_min":-43,"x_max":415,"o":"m 81 0 l 81 682 l 290 682 l 290 0 l 81 0 m 231 819 l 231 1003 l 415 1003 l 415 819 l 231 819 m -43 819 l -43 1003 l 142 1003 l 142 819 l -43 819 z "},"ḯ":{"ha":372,"x_min":-43,"x_max":415,"o":"m 81 0 l 81 682 l 290 682 l 290 0 l 81 0 m 122 953 l 214 1129 l 408 1129 l 250 953 l 122 953 m -43 771 l -43 906 l 142 906 l 142 771 l -43 771 m 231 771 l 231 906 l 415 906 l 415 771 l 231 771 z "},"ị":{"ha":372,"x_min":72,"x_max":299,"o":"m 72 814 l 72 1010 l 299 1010 l 299 814 l 72 814 m 81 0 l 81 682 l 290 682 l 290 0 l 81 0 m 89 -297 l 89 -112 l 283 -112 l 283 -297 l 89 -297 z "},"ì":{"ha":372,"x_min":-87,"x_max":290,"o":"m 81 0 l 81 682 l 290 682 l 290 0 l 81 0 m 117 771 l -87 1056 l 114 1056 l 256 771 l 117 771 z "},"ỉ":{"ha":372,"x_min":35,"x_max":353,"o":"m 81 0 l 81 682 l 290 682 l 290 0 l 81 0 m 125 771 l 125 801 q 143 859 125 838 q 179 897 161 881 q 197 936 197 913 q 147 968 197 968 q 65 947 104 968 l 35 1032 q 196 1067 97 1067 q 311 1040 269 1067 q 353 964 353 1014 q 337 906 353 928 q 300 869 321 885 q 263 838 279 854 q 247 794 247 821 l 247 771 l 125 771 z "},"ȋ":{"ha":372,"x_min":-54,"x_max":426,"o":"m 81 0 l 81 682 l 290 682 l 290 0 l 81 0 m 61 767 l -54 776 q 15 975 -51 901 q 186 1049 81 1049 q 358 975 293 1049 q 426 776 424 901 l 311 767 q 274 884 306 843 q 186 925 242 925 q 99 884 131 925 q 61 767 67 843 z "},"ī":{"ha":372,"x_min":-40,"x_max":413,"o":"m 81 0 l 81 682 l 290 682 l 290 0 l 81 0 m -40 849 l -40 967 l 413 967 l 413 849 l -40 849 z "},"į":{"ha":372,"x_min":38,"x_max":338,"o":"m 81 0 l 81 682 l 290 682 l 290 0 l 81 0 m 72 814 l 72 1010 l 300 1010 l 300 814 l 72 814 m 211 -274 q 83 -233 129 -274 q 38 -124 38 -192 q 78 -12 38 -62 q 185 63 118 38 l 243 0 q 185 -41 207 -14 q 164 -100 164 -68 q 186 -149 164 -132 q 240 -167 208 -167 q 278 -162 261 -167 q 317 -151 296 -158 l 338 -249 q 211 -274 281 -274 z "},"ĩ":{"ha":372,"x_min":-94,"x_max":467,"o":"m 81 0 l 81 682 l 290 682 l 290 0 l 81 0 m 4 807 l -94 813 q -40 973 -87 915 q 82 1031 8 1031 q 141 1018 115 1031 q 200 983 167 1006 q 247 955 229 963 q 283 947 265 947 q 368 1036 353 947 l 467 1031 q 413 870 461 928 q 290 813 365 813 q 235 823 261 813 q 172 860 208 833 q 89 896 121 896 q 4 807 19 896 z "},"j":{"ha":379,"x_min":-72,"x_max":304,"o":"m 78 814 l 78 1010 l 304 1010 l 304 814 l 78 814 m -58 -268 l -72 -118 l -7 -111 q 88 -3 88 -100 l 88 682 l 297 682 l 297 25 q 269 -132 297 -71 q 176 -225 240 -193 q 1 -264 111 -257 l -58 -268 z "},"ȷ":{"ha":379,"x_min":-72,"x_max":297,"o":"m -58 -268 l -72 -118 l -7 -111 q 88 -3 88 -100 l 88 682 l 297 682 l 297 25 q 269 -132 297 -71 q 176 -225 240 -193 q 1 -264 111 -257 l -58 -268 z "},"ĵ":{"ha":379,"x_min":-72,"x_max":435,"o":"m -58 -268 l -72 -118 l -7 -111 q 88 -3 88 -100 l 88 682 l 297 682 l 297 25 q 269 -132 297 -71 q 176 -225 240 -193 q 1 -264 111 -257 l -58 -268 m -51 771 l 103 1056 l 281 1056 l 435 771 l 304 771 l 192 942 l 79 771 l -51 771 z "},"k":{"ha":775,"x_min":81,"x_max":807,"o":"m 81 0 l 81 979 l 290 979 l 290 400 l 293 400 l 544 682 l 793 682 l 504 356 l 807 0 l 554 0 l 293 294 l 290 294 l 290 0 l 81 0 z "},"ǩ":{"ha":775,"x_min":81,"x_max":807,"o":"m 81 0 l 81 979 l 290 979 l 290 400 l 293 400 l 544 682 l 793 682 l 504 356 l 807 0 l 554 0 l 293 294 l 290 294 l 290 0 l 81 0 m 328 1063 l 154 1306 l 297 1306 l 415 1174 l 533 1306 l 676 1306 l 503 1063 l 328 1063 z "},"ķ":{"ha":775,"x_min":81,"x_max":807,"o":"m 81 0 l 81 979 l 290 979 l 290 400 l 293 400 l 544 682 l 793 682 l 504 356 l 807 0 l 554 0 l 293 294 l 290 294 l 290 0 l 81 0 m 407 -394 l 332 -344 q 369 -300 357 -322 q 383 -254 381 -278 l 283 -254 l 283 -96 l 490 -96 l 490 -194 q 472 -305 490 -256 q 407 -394 453 -354 z "},"ĸ":{"ha":775,"x_min":81,"x_max":807,"o":"m 81 0 l 81 682 l 290 682 l 290 400 l 293 400 l 544 682 l 793 682 l 504 356 l 807 0 l 554 0 l 293 294 l 290 294 l 290 0 l 81 0 z "},"l":{"ha":463,"x_min":81,"x_max":447,"o":"m 335 -15 q 142 53 203 -15 q 81 258 81 122 l 81 979 l 290 979 l 290 267 q 389 156 290 156 q 419 157 404 156 q 447 163 433 158 l 444 0 q 335 -15 392 -15 z "},"ĺ":{"ha":463,"x_min":81,"x_max":490,"o":"m 335 -15 q 142 53 203 -15 q 81 258 81 122 l 81 979 l 290 979 l 290 267 q 389 156 290 156 q 419 157 404 156 q 447 163 433 158 l 444 0 q 335 -15 392 -15 m 114 1063 l 278 1306 l 490 1306 l 260 1063 l 114 1063 z "},"ľ":{"ha":463,"x_min":81,"x_max":474,"o":"m 335 -15 q 142 53 203 -15 q 81 258 81 122 l 81 979 l 290 979 l 290 267 q 389 156 290 156 q 419 157 404 156 q 447 163 433 158 l 444 0 q 335 -15 392 -15 m 342 710 l 342 979 l 474 979 l 435 710 l 342 710 z "},"ļ":{"ha":463,"x_min":81,"x_max":447,"o":"m 335 -15 q 142 53 203 -15 q 81 258 81 122 l 81 979 l 290 979 l 290 267 q 389 156 290 156 q 419 157 404 156 q 447 163 433 158 l 444 0 q 335 -15 392 -15 m 290 -394 l 215 -344 q 252 -300 240 -322 q 267 -254 264 -278 l 167 -254 l 167 -96 l 374 -96 l 374 -194 q 355 -305 374 -256 q 290 -394 336 -354 z "},"ŀ":{"ha":575,"x_min":81,"x_max":586,"o":"m 335 -15 q 142 53 203 -15 q 81 258 81 122 l 81 979 l 290 979 l 290 267 q 389 156 290 156 q 419 157 404 156 q 447 163 433 158 l 444 0 q 335 -15 392 -15 m 360 399 l 360 593 l 586 593 l 586 399 l 360 399 z "},"ḷ":{"ha":463,"x_min":81,"x_max":447,"o":"m 335 -15 q 142 53 203 -15 q 81 258 81 122 l 81 979 l 290 979 l 290 267 q 389 156 290 156 q 419 157 404 156 q 447 163 433 158 l 444 0 q 335 -15 392 -15 m 174 -297 l 174 -112 l 368 -112 l 368 -297 l 174 -297 z "},"ǉ":{"ha":842,"x_min":81,"x_max":767,"o":"m 335 -15 q 142 53 203 -15 q 81 258 81 122 l 81 979 l 290 979 l 290 267 q 389 156 290 156 q 419 157 404 156 q 447 163 433 158 l 444 0 q 335 -15 392 -15 m 540 814 l 540 1010 l 767 1010 l 767 814 l 540 814 m 404 -268 l 390 -118 l 456 -111 q 550 -3 550 -100 l 550 682 l 760 682 l 760 25 q 731 -132 760 -71 q 638 -225 703 -193 q 464 -264 574 -257 l 404 -268 z "},"ḻ":{"ha":463,"x_min":44,"x_max":497,"o":"m 335 -15 q 142 53 203 -15 q 81 258 81 122 l 81 979 l 290 979 l 290 267 q 389 156 290 156 q 419 157 404 156 q 447 163 433 158 l 444 0 q 335 -15 392 -15 m 44 -236 l 44 -118 l 497 -118 l 497 -236 l 44 -236 z "},"ł":{"ha":463,"x_min":-65,"x_max":467,"o":"m 335 -15 q 142 53 203 -15 q 81 258 81 122 l 81 979 l 290 979 l 290 267 q 389 156 290 156 q 419 157 404 156 q 447 163 433 158 l 444 0 q 335 -15 392 -15 m 13 294 l -65 435 l 388 697 l 467 558 l 13 294 z "},"m":{"ha":1235,"x_min":83,"x_max":1154,"o":"m 83 0 l 83 682 l 289 682 l 289 583 q 373 666 319 636 q 497 696 426 696 q 620 664 569 696 q 697 567 671 632 q 790 662 729 628 q 924 696 850 696 q 1097 626 1040 696 q 1154 410 1154 556 l 1154 0 l 944 0 l 944 403 q 923 502 944 471 q 850 533 901 533 q 757 492 790 533 q 724 374 724 450 l 724 0 l 514 0 l 514 403 q 492 502 514 471 q 419 533 469 533 q 326 492 360 533 q 293 374 293 450 l 293 0 l 83 0 z "},"ṃ":{"ha":1235,"x_min":83,"x_max":1154,"o":"m 83 0 l 83 682 l 289 682 l 289 583 q 373 666 319 636 q 497 696 426 696 q 620 664 569 696 q 697 567 671 632 q 790 662 729 628 q 924 696 850 696 q 1097 626 1040 696 q 1154 410 1154 556 l 1154 0 l 944 0 l 944 403 q 923 502 944 471 q 850 533 901 533 q 757 492 790 533 q 724 374 724 450 l 724 0 l 514 0 l 514 403 q 492 502 514 471 q 419 533 469 533 q 326 492 360 533 q 293 374 293 450 l 293 0 l 83 0 m 522 -297 l 522 -112 l 717 -112 l 717 -297 l 522 -297 z "},"n":{"ha":826,"x_min":81,"x_max":750,"o":"m 81 0 l 81 682 l 286 682 l 286 582 q 379 667 321 638 q 510 696 438 696 q 690 626 631 696 q 750 410 750 556 l 750 0 l 540 0 l 540 400 q 514 502 540 471 q 436 533 488 533 q 330 492 369 533 q 290 381 290 450 l 290 0 l 81 0 z "},"ń":{"ha":826,"x_min":81,"x_max":750,"o":"m 81 0 l 81 682 l 286 682 l 286 582 q 379 667 321 638 q 510 696 438 696 q 690 626 631 696 q 750 410 750 556 l 750 0 l 540 0 l 540 400 q 514 502 540 471 q 436 533 488 533 q 330 492 369 533 q 290 381 290 450 l 290 0 l 81 0 m 346 771 l 489 1056 l 689 1056 l 485 771 l 346 771 z "},"ŉ":{"ha":826,"x_min":-47,"x_max":750,"o":"m 76 783 l 3 833 q 38 876 26 854 q 51 918 49 897 l -47 918 l -47 1079 l 160 1079 l 160 981 q 142 873 160 921 q 76 783 125 825 m 81 0 l 81 682 l 286 682 l 286 582 q 379 667 321 638 q 510 696 438 696 q 690 626 631 696 q 750 410 750 556 l 750 0 l 540 0 l 540 400 q 514 502 540 471 q 436 533 488 533 q 330 492 369 533 q 290 381 290 450 l 290 0 l 81 0 z "},"ň":{"ha":826,"x_min":81,"x_max":750,"o":"m 81 0 l 81 682 l 286 682 l 286 582 q 379 667 321 638 q 510 696 438 696 q 690 626 631 696 q 750 410 750 556 l 750 0 l 540 0 l 540 400 q 514 502 540 471 q 436 533 488 533 q 330 492 369 533 q 290 381 290 450 l 290 0 l 81 0 m 326 771 l 172 1056 l 303 1056 l 415 885 l 528 1056 l 658 1056 l 504 771 l 326 771 z "},"ņ":{"ha":826,"x_min":81,"x_max":750,"o":"m 81 0 l 81 682 l 286 682 l 286 582 q 379 667 321 638 q 510 696 438 696 q 690 626 631 696 q 750 410 750 556 l 750 0 l 540 0 l 540 400 q 514 502 540 471 q 436 533 488 533 q 330 492 369 533 q 290 381 290 450 l 290 0 l 81 0 m 435 -394 l 360 -344 q 397 -300 385 -322 q 411 -254 408 -278 l 311 -254 l 311 -96 l 518 -96 l 518 -194 q 499 -305 518 -256 q 435 -394 481 -354 z "},"ṅ":{"ha":826,"x_min":81,"x_max":750,"o":"m 81 0 l 81 682 l 286 682 l 286 582 q 379 667 321 638 q 510 696 438 696 q 690 626 631 696 q 750 410 750 556 l 750 0 l 540 0 l 540 400 q 514 502 540 471 q 436 533 488 533 q 330 492 369 533 q 290 381 290 450 l 290 0 l 81 0 m 318 819 l 318 1004 l 513 1004 l 513 819 l 318 819 z "},"ṇ":{"ha":826,"x_min":81,"x_max":750,"o":"m 81 0 l 81 682 l 286 682 l 286 582 q 379 667 321 638 q 510 696 438 696 q 690 626 631 696 q 750 410 750 556 l 750 0 l 540 0 l 540 400 q 514 502 540 471 q 436 533 488 533 q 330 492 369 533 q 290 381 290 450 l 290 0 l 81 0 m 318 -297 l 318 -112 l 513 -112 l 513 -297 l 318 -297 z "},"ŋ":{"ha":826,"x_min":81,"x_max":750,"o":"m 394 -268 l 381 -118 l 444 -111 q 540 -3 540 -100 l 540 400 q 514 502 540 471 q 436 533 488 533 q 330 492 369 533 q 290 381 290 450 l 290 0 l 81 0 l 81 682 l 286 682 l 286 582 q 379 667 321 638 q 510 696 438 696 q 690 626 631 696 q 750 410 750 556 l 750 25 q 722 -132 750 -71 q 628 -225 693 -193 q 456 -264 564 -257 l 394 -268 z "},"ǌ":{"ha":1206,"x_min":81,"x_max":1131,"o":"m 81 0 l 81 682 l 286 682 l 286 582 q 379 667 321 638 q 510 696 438 696 q 690 626 631 696 q 750 410 750 556 l 750 0 l 540 0 l 540 400 q 514 502 540 471 q 436 533 488 533 q 330 492 369 533 q 290 381 290 450 l 290 0 l 81 0 m 904 814 l 904 1010 l 1131 1010 l 1131 814 l 904 814 m 768 -268 l 754 -118 l 819 -111 q 914 -3 914 -100 l 914 682 l 1124 682 l 1124 25 q 1095 -132 1124 -71 q 1002 -225 1067 -193 q 828 -264 938 -257 l 768 -268 z "},"ṉ":{"ha":826,"x_min":81,"x_max":750,"o":"m 81 0 l 81 682 l 286 682 l 286 582 q 379 667 321 638 q 510 696 438 696 q 690 626 631 696 q 750 410 750 556 l 750 0 l 540 0 l 540 400 q 514 502 540 471 q 436 533 488 533 q 330 492 369 533 q 290 381 290 450 l 290 0 l 81 0 m 189 -236 l 189 -118 l 642 -118 l 642 -236 l 189 -236 z "},"ñ":{"ha":826,"x_min":81,"x_max":750,"o":"m 81 0 l 81 682 l 286 682 l 286 582 q 379 667 321 638 q 510 696 438 696 q 690 626 631 696 q 750 410 750 556 l 750 0 l 540 0 l 540 400 q 514 502 540 471 q 436 533 488 533 q 330 492 369 533 q 290 381 290 450 l 290 0 l 81 0 m 233 807 l 135 813 q 190 973 142 915 q 311 1031 238 1031 q 370 1018 344 1031 q 429 983 396 1006 q 476 955 458 963 q 513 947 494 947 q 597 1036 582 947 l 696 1031 q 642 870 690 928 q 519 813 594 813 q 464 823 490 813 q 401 860 438 833 q 318 896 350 896 q 233 807 249 896 z "},"o":{"ha":818,"x_min":47,"x_max":771,"o":"m 408 -15 q 217 28 299 -15 q 92 152 136 72 q 47 342 47 232 q 92 530 47 450 q 217 653 136 610 q 408 696 299 696 q 599 653 518 696 q 726 530 681 610 q 771 342 771 450 q 726 152 771 232 q 599 28 681 72 q 408 -15 518 -15 m 408 142 q 517 190 475 142 q 560 342 560 239 q 517 491 560 443 q 408 539 475 539 q 300 491 342 539 q 258 342 258 443 q 300 190 258 239 q 408 142 342 142 z "},"ó":{"ha":818,"x_min":47,"x_max":771,"o":"m 408 -15 q 217 28 299 -15 q 92 152 136 72 q 47 342 47 232 q 92 530 47 450 q 217 653 136 610 q 408 696 299 696 q 599 653 518 696 q 726 530 681 610 q 771 342 771 450 q 726 152 771 232 q 599 28 681 72 q 408 -15 518 -15 m 408 142 q 517 190 475 142 q 560 342 560 239 q 517 491 560 443 q 408 539 475 539 q 300 491 342 539 q 258 342 258 443 q 300 190 258 239 q 408 142 342 142 m 339 771 l 482 1056 l 682 1056 l 478 771 l 339 771 z "},"ŏ":{"ha":818,"x_min":47,"x_max":771,"o":"m 408 -15 q 217 28 299 -15 q 92 152 136 72 q 47 342 47 232 q 92 530 47 450 q 217 653 136 610 q 408 696 299 696 q 599 653 518 696 q 726 530 681 610 q 771 342 771 450 q 726 152 771 232 q 599 28 681 72 q 408 -15 518 -15 m 408 142 q 517 190 475 142 q 560 342 560 239 q 517 491 560 443 q 408 539 475 539 q 300 491 342 539 q 258 342 258 443 q 300 190 258 239 q 408 142 342 142 m 408 767 q 237 840 303 767 q 168 1038 171 913 l 283 1049 q 321 930 289 971 q 408 889 353 889 q 496 930 464 889 q 533 1049 528 971 l 649 1038 q 581 840 646 913 q 408 767 515 767 z "},"ô":{"ha":818,"x_min":47,"x_max":771,"o":"m 408 -15 q 217 28 299 -15 q 92 152 136 72 q 47 342 47 232 q 92 530 47 450 q 217 653 136 610 q 408 696 299 696 q 599 653 518 696 q 726 530 681 610 q 771 342 771 450 q 726 152 771 232 q 599 28 681 72 q 408 -15 518 -15 m 408 142 q 517 190 475 142 q 560 342 560 239 q 517 491 560 443 q 408 539 475 539 q 300 491 342 539 q 258 342 258 443 q 300 190 258 239 q 408 142 342 142 m 165 771 l 319 1056 l 497 1056 l 651 771 l 521 771 l 408 942 l 296 771 l 165 771 z "},"ố":{"ha":818,"x_min":47,"x_max":853,"o":"m 408 -15 q 217 28 299 -15 q 92 152 136 72 q 47 342 47 232 q 92 530 47 450 q 217 653 136 610 q 408 696 299 696 q 599 653 518 696 q 726 530 681 610 q 771 342 771 450 q 726 152 771 232 q 599 28 681 72 q 408 -15 518 -15 m 408 142 q 517 190 475 142 q 560 342 560 239 q 517 491 560 443 q 408 539 475 539 q 300 491 342 539 q 258 342 258 443 q 300 190 258 239 q 408 142 342 142 m 571 921 l 686 1129 l 853 1129 l 686 921 l 571 921 m 165 771 l 319 1000 l 497 1000 l 651 771 l 521 771 l 408 892 l 296 771 l 165 771 z "},"ộ":{"ha":818,"x_min":47,"x_max":771,"o":"m 408 -15 q 217 28 299 -15 q 92 152 136 72 q 47 342 47 232 q 92 530 47 450 q 217 653 136 610 q 408 696 299 696 q 599 653 518 696 q 726 530 681 610 q 771 342 771 450 q 726 152 771 232 q 599 28 681 72 q 408 -15 518 -15 m 408 142 q 517 190 475 142 q 560 342 560 239 q 517 491 560 443 q 408 539 475 539 q 300 491 342 539 q 258 342 258 443 q 300 190 258 239 q 408 142 342 142 m 311 -297 l 311 -112 l 506 -112 l 506 -297 l 311 -297 m 165 771 l 319 1056 l 497 1056 l 651 771 l 521 771 l 408 942 l 296 771 l 165 771 z "},"ồ":{"ha":818,"x_min":47,"x_max":771,"o":"m 408 -15 q 217 28 299 -15 q 92 152 136 72 q 47 342 47 232 q 92 530 47 450 q 217 653 136 610 q 408 696 299 696 q 599 653 518 696 q 726 530 681 610 q 771 342 771 450 q 726 152 771 232 q 599 28 681 72 q 408 -15 518 -15 m 408 142 q 517 190 475 142 q 560 342 560 239 q 517 491 560 443 q 408 539 475 539 q 300 491 342 539 q 258 342 258 443 q 300 190 258 239 q 408 142 342 142 m 625 921 l 458 1129 l 625 1129 l 740 921 l 625 921 m 165 771 l 319 1000 l 497 1000 l 651 771 l 521 771 l 408 892 l 296 771 l 165 771 z "},"ổ":{"ha":818,"x_min":47,"x_max":771,"o":"m 408 -15 q 217 28 299 -15 q 92 152 136 72 q 47 342 47 232 q 92 530 47 450 q 217 653 136 610 q 408 696 299 696 q 599 653 518 696 q 726 530 681 610 q 771 342 771 450 q 726 152 771 232 q 599 28 681 72 q 408 -15 518 -15 m 408 142 q 517 190 475 142 q 560 342 560 239 q 517 491 560 443 q 408 539 475 539 q 300 491 342 539 q 258 342 258 443 q 300 190 258 239 q 408 142 342 142 m 571 917 q 586 965 571 947 q 617 995 601 982 q 632 1026 632 1008 q 620 1042 632 1038 q 590 1047 608 1047 q 551 1044 571 1047 q 513 1032 532 1040 l 488 1104 q 550 1124 517 1117 q 633 1131 583 1131 q 732 1112 697 1131 q 767 1060 767 1093 q 753 1018 767 1035 q 724 987 740 1001 q 694 956 707 972 q 681 917 681 940 l 571 917 m 165 767 l 319 996 l 497 996 l 651 767 l 521 767 l 408 888 l 296 767 l 165 767 z "},"ỗ":{"ha":818,"x_min":47,"x_max":771,"o":"m 408 -15 q 217 28 299 -15 q 92 152 136 72 q 47 342 47 232 q 92 530 47 450 q 217 653 136 610 q 408 696 299 696 q 599 653 518 696 q 726 530 681 610 q 771 342 771 450 q 726 152 771 232 q 599 28 681 72 q 408 -15 518 -15 m 408 142 q 517 190 475 142 q 560 342 560 239 q 517 491 560 443 q 408 539 475 539 q 300 491 342 539 q 258 342 258 443 q 300 190 258 239 q 408 142 342 142 m 250 990 l 158 994 q 207 1111 163 1072 q 315 1150 251 1150 q 367 1142 342 1150 q 422 1119 392 1135 q 496 1096 472 1096 q 567 1151 556 1096 l 658 1146 q 610 1029 654 1068 q 503 990 567 990 q 449 999 475 990 q 393 1022 422 1008 q 351 1040 367 1035 q 322 1046 335 1046 q 274 1032 290 1046 q 250 990 257 1018 m 165 771 l 319 958 l 497 958 l 651 771 l 525 771 l 408 861 l 292 771 l 165 771 z "},"ȍ":{"ha":818,"x_min":47,"x_max":771,"o":"m 408 -15 q 217 28 299 -15 q 92 152 136 72 q 47 342 47 232 q 92 530 47 450 q 217 653 136 610 q 408 696 299 696 q 599 653 518 696 q 726 530 681 610 q 771 342 771 450 q 726 152 771 232 q 599 28 681 72 q 408 -15 518 -15 m 408 142 q 517 190 475 142 q 560 342 560 239 q 517 491 560 443 q 408 539 475 539 q 300 491 342 539 q 258 342 258 443 q 300 190 258 239 q 408 142 342 142 m 469 771 l 342 1056 l 513 1056 l 578 771 l 469 771 m 246 771 l 118 1056 l 289 1056 l 354 771 l 246 771 z "},"ö":{"ha":818,"x_min":47,"x_max":771,"o":"m 408 -15 q 217 28 299 -15 q 92 152 136 72 q 47 342 47 232 q 92 530 47 450 q 217 653 136 610 q 408 696 299 696 q 599 653 518 696 q 726 530 681 610 q 771 342 771 450 q 726 152 771 232 q 599 28 681 72 q 408 -15 518 -15 m 408 142 q 517 190 475 142 q 560 342 560 239 q 517 491 560 443 q 408 539 475 539 q 300 491 342 539 q 258 342 258 443 q 300 190 258 239 q 408 142 342 142 m 453 819 l 453 1003 l 638 1003 l 638 819 l 453 819 m 179 819 l 179 1003 l 364 1003 l 364 819 l 179 819 z "},"ȫ":{"ha":818,"x_min":47,"x_max":771,"o":"m 408 -15 q 217 28 299 -15 q 92 152 136 72 q 47 342 47 232 q 92 530 47 450 q 217 653 136 610 q 408 696 299 696 q 599 653 518 696 q 726 530 681 610 q 771 342 771 450 q 726 152 771 232 q 599 28 681 72 q 408 -15 518 -15 m 408 142 q 517 190 475 142 q 560 342 560 239 q 517 491 560 443 q 408 539 475 539 q 300 491 342 539 q 258 342 258 443 q 300 190 258 239 q 408 142 342 142 m 182 985 l 182 1103 l 635 1103 l 635 985 l 182 985 m 179 789 l 179 921 l 364 921 l 364 789 l 179 789 m 453 789 l 453 921 l 638 921 l 638 789 l 453 789 z "},"ȱ":{"ha":818,"x_min":47,"x_max":771,"o":"m 408 -15 q 217 28 299 -15 q 92 152 136 72 q 47 342 47 232 q 92 530 47 450 q 217 653 136 610 q 408 696 299 696 q 599 653 518 696 q 726 530 681 610 q 771 342 771 450 q 726 152 771 232 q 599 28 681 72 q 408 -15 518 -15 m 408 142 q 517 190 475 142 q 560 342 560 239 q 517 491 560 443 q 408 539 475 539 q 300 491 342 539 q 258 342 258 443 q 300 190 258 239 q 408 142 342 142 m 182 985 l 182 1103 l 635 1103 l 635 985 l 182 985 m 317 789 l 317 921 l 500 921 l 500 789 l 317 789 z "},"ọ":{"ha":818,"x_min":47,"x_max":771,"o":"m 408 -15 q 217 28 299 -15 q 92 152 136 72 q 47 342 47 232 q 92 530 47 450 q 217 653 136 610 q 408 696 299 696 q 599 653 518 696 q 726 530 681 610 q 771 342 771 450 q 726 152 771 232 q 599 28 681 72 q 408 -15 518 -15 m 408 142 q 517 190 475 142 q 560 342 560 239 q 517 491 560 443 q 408 539 475 539 q 300 491 342 539 q 258 342 258 443 q 300 190 258 239 q 408 142 342 142 m 311 -297 l 311 -112 l 506 -112 l 506 -297 l 311 -297 z "},"ò":{"ha":818,"x_min":47,"x_max":771,"o":"m 408 -15 q 217 28 299 -15 q 92 152 136 72 q 47 342 47 232 q 92 530 47 450 q 217 653 136 610 q 408 696 299 696 q 599 653 518 696 q 726 530 681 610 q 771 342 771 450 q 726 152 771 232 q 599 28 681 72 q 408 -15 518 -15 m 408 142 q 517 190 475 142 q 560 342 560 239 q 517 491 560 443 q 408 539 475 539 q 300 491 342 539 q 258 342 258 443 q 300 190 258 239 q 408 142 342 142 m 339 771 l 135 1056 l 336 1056 l 478 771 l 339 771 z "},"ỏ":{"ha":818,"x_min":47,"x_max":771,"o":"m 408 -15 q 217 28 299 -15 q 92 152 136 72 q 47 342 47 232 q 92 530 47 450 q 217 653 136 610 q 408 696 299 696 q 599 653 518 696 q 726 530 681 610 q 771 342 771 450 q 726 152 771 232 q 599 28 681 72 q 408 -15 518 -15 m 408 142 q 517 190 475 142 q 560 342 560 239 q 517 491 560 443 q 408 539 475 539 q 300 491 342 539 q 258 342 258 443 q 300 190 258 239 q 408 142 342 142 m 347 771 l 347 801 q 365 859 347 838 q 401 897 383 881 q 419 936 419 913 q 369 968 419 968 q 288 947 326 968 l 257 1032 q 418 1067 319 1067 q 533 1040 492 1067 q 575 964 575 1014 q 559 906 575 928 q 522 869 543 885 q 485 838 501 854 q 469 794 469 821 l 469 771 l 347 771 z "},"ơ":{"ha":818,"x_min":47,"x_max":803,"o":"m 408 -15 q 217 28 299 -15 q 92 152 136 72 q 47 342 47 232 q 92 530 47 450 q 217 653 136 610 q 408 696 299 696 q 599 653 518 696 q 726 530 681 610 q 771 342 771 450 q 726 152 771 232 q 599 28 681 72 q 408 -15 518 -15 m 408 142 q 517 190 475 142 q 560 342 560 239 q 517 491 560 443 q 408 539 475 539 q 300 491 342 539 q 258 342 258 443 q 300 190 258 239 q 408 142 342 142 m 619 581 l 496 657 l 496 682 q 591 710 560 682 q 622 822 622 738 l 622 856 l 803 856 l 803 797 q 752 650 803 710 q 619 581 701 590 z "},"ớ":{"ha":818,"x_min":47,"x_max":803,"o":"m 408 -15 q 217 28 299 -15 q 92 152 136 72 q 47 342 47 232 q 92 530 47 450 q 217 653 136 610 q 408 696 299 696 q 599 653 518 696 q 726 530 681 610 q 771 342 771 450 q 726 152 771 232 q 599 28 681 72 q 408 -15 518 -15 m 408 142 q 517 190 475 142 q 560 342 560 239 q 517 491 560 443 q 408 539 475 539 q 300 491 342 539 q 258 342 258 443 q 300 190 258 239 q 408 142 342 142 m 619 581 l 496 657 l 496 682 q 591 710 560 682 q 622 822 622 738 l 622 856 l 803 856 l 803 797 q 752 650 803 710 q 619 581 701 590 m 339 771 l 482 1056 l 682 1056 l 478 771 l 339 771 z "},"ợ":{"ha":818,"x_min":47,"x_max":803,"o":"m 408 -15 q 217 28 299 -15 q 92 152 136 72 q 47 342 47 232 q 92 530 47 450 q 217 653 136 610 q 408 696 299 696 q 599 653 518 696 q 726 530 681 610 q 771 342 771 450 q 726 152 771 232 q 599 28 681 72 q 408 -15 518 -15 m 408 142 q 517 190 475 142 q 560 342 560 239 q 517 491 560 443 q 408 539 475 539 q 300 491 342 539 q 258 342 258 443 q 300 190 258 239 q 408 142 342 142 m 619 581 l 496 657 l 496 682 q 591 710 560 682 q 622 822 622 738 l 622 856 l 803 856 l 803 797 q 752 650 803 710 q 619 581 701 590 m 311 -297 l 311 -112 l 506 -112 l 506 -297 l 311 -297 z "},"ờ":{"ha":818,"x_min":47,"x_max":803,"o":"m 408 -15 q 217 28 299 -15 q 92 152 136 72 q 47 342 47 232 q 92 530 47 450 q 217 653 136 610 q 408 696 299 696 q 599 653 518 696 q 726 530 681 610 q 771 342 771 450 q 726 152 771 232 q 599 28 681 72 q 408 -15 518 -15 m 408 142 q 517 190 475 142 q 560 342 560 239 q 517 491 560 443 q 408 539 475 539 q 300 491 342 539 q 258 342 258 443 q 300 190 258 239 q 408 142 342 142 m 619 581 l 496 657 l 496 682 q 591 710 560 682 q 622 822 622 738 l 622 856 l 803 856 l 803 797 q 752 650 803 710 q 619 581 701 590 m 339 771 l 135 1056 l 336 1056 l 478 771 l 339 771 z "},"ở":{"ha":818,"x_min":47,"x_max":803,"o":"m 408 -15 q 217 28 299 -15 q 92 152 136 72 q 47 342 47 232 q 92 530 47 450 q 217 653 136 610 q 408 696 299 696 q 599 653 518 696 q 726 530 681 610 q 771 342 771 450 q 726 152 771 232 q 599 28 681 72 q 408 -15 518 -15 m 408 142 q 517 190 475 142 q 560 342 560 239 q 517 491 560 443 q 408 539 475 539 q 300 491 342 539 q 258 342 258 443 q 300 190 258 239 q 408 142 342 142 m 619 581 l 496 657 l 496 682 q 591 710 560 682 q 622 822 622 738 l 622 856 l 803 856 l 803 797 q 752 650 803 710 q 619 581 701 590 m 347 771 l 347 801 q 365 859 347 838 q 401 897 383 881 q 419 936 419 913 q 369 968 419 968 q 288 947 326 968 l 257 1032 q 418 1067 319 1067 q 533 1040 492 1067 q 575 964 575 1014 q 559 906 575 928 q 522 869 543 885 q 485 838 501 854 q 469 794 469 821 l 469 771 l 347 771 z "},"ỡ":{"ha":818,"x_min":47,"x_max":803,"o":"m 408 -15 q 217 28 299 -15 q 92 152 136 72 q 47 342 47 232 q 92 530 47 450 q 217 653 136 610 q 408 696 299 696 q 599 653 518 696 q 726 530 681 610 q 771 342 771 450 q 726 152 771 232 q 599 28 681 72 q 408 -15 518 -15 m 408 142 q 517 190 475 142 q 560 342 560 239 q 517 491 560 443 q 408 539 475 539 q 300 491 342 539 q 258 342 258 443 q 300 190 258 239 q 408 142 342 142 m 619 581 l 496 657 l 496 682 q 591 710 560 682 q 622 822 622 738 l 622 856 l 803 856 l 803 797 q 752 650 803 710 q 619 581 701 590 m 229 807 l 129 813 q 180 974 135 918 q 292 1031 225 1031 q 342 1020 319 1031 q 400 983 365 1010 q 443 955 426 963 q 478 947 460 947 q 556 1036 542 947 l 654 1031 q 604 869 649 925 q 493 813 560 813 q 440 824 464 813 q 383 860 415 835 q 338 888 356 881 q 307 896 321 896 q 229 807 243 896 z "},"ő":{"ha":818,"x_min":47,"x_max":771,"o":"m 408 -15 q 217 28 299 -15 q 92 152 136 72 q 47 342 47 232 q 92 530 47 450 q 217 653 136 610 q 408 696 299 696 q 599 653 518 696 q 726 530 681 610 q 771 342 771 450 q 726 152 771 232 q 599 28 681 72 q 408 -15 518 -15 m 408 142 q 517 190 475 142 q 560 342 560 239 q 517 491 560 443 q 408 539 475 539 q 300 491 342 539 q 258 342 258 443 q 300 190 258 239 q 408 142 342 142 m 463 771 l 528 1056 l 699 1056 l 572 771 l 463 771 m 239 771 l 304 1056 l 475 1056 l 347 771 l 239 771 z "},"ȏ":{"ha":818,"x_min":47,"x_max":771,"o":"m 408 -15 q 217 28 299 -15 q 92 152 136 72 q 47 342 47 232 q 92 530 47 450 q 217 653 136 610 q 408 696 299 696 q 599 653 518 696 q 726 530 681 610 q 771 342 771 450 q 726 152 771 232 q 599 28 681 72 q 408 -15 518 -15 m 408 142 q 517 190 475 142 q 560 342 560 239 q 517 491 560 443 q 408 539 475 539 q 300 491 342 539 q 258 342 258 443 q 300 190 258 239 q 408 142 342 142 m 283 767 l 168 776 q 237 975 171 901 q 408 1049 303 1049 q 581 975 515 1049 q 649 776 646 901 l 533 767 q 496 884 528 843 q 408 925 464 925 q 321 884 353 925 q 283 767 289 843 z "},"ō":{"ha":818,"x_min":47,"x_max":771,"o":"m 408 -15 q 217 28 299 -15 q 92 152 136 72 q 47 342 47 232 q 92 530 47 450 q 217 653 136 610 q 408 696 299 696 q 599 653 518 696 q 726 530 681 610 q 771 342 771 450 q 726 152 771 232 q 599 28 681 72 q 408 -15 518 -15 m 408 142 q 517 190 475 142 q 560 342 560 239 q 517 491 560 443 q 408 539 475 539 q 300 491 342 539 q 258 342 258 443 q 300 190 258 239 q 408 142 342 142 m 182 849 l 182 967 l 635 967 l 635 849 l 182 849 z "},"ṓ":{"ha":818,"x_min":47,"x_max":771,"o":"m 408 -15 q 217 28 299 -15 q 92 152 136 72 q 47 342 47 232 q 92 530 47 450 q 217 653 136 610 q 408 696 299 696 q 599 653 518 696 q 726 530 681 610 q 771 342 771 450 q 726 152 771 232 q 599 28 681 72 q 408 -15 518 -15 m 408 142 q 517 190 475 142 q 560 342 560 239 q 517 491 560 443 q 408 539 475 539 q 300 491 342 539 q 258 342 258 443 q 300 190 258 239 q 408 142 342 142 m 344 953 l 436 1129 l 631 1129 l 472 953 l 344 953 m 182 783 l 182 901 l 635 901 l 635 783 l 182 783 z "},"ṑ":{"ha":818,"x_min":47,"x_max":771,"o":"m 408 -15 q 217 28 299 -15 q 92 152 136 72 q 47 342 47 232 q 92 530 47 450 q 217 653 136 610 q 408 696 299 696 q 599 653 518 696 q 726 530 681 610 q 771 342 771 450 q 726 152 771 232 q 599 28 681 72 q 408 -15 518 -15 m 408 142 q 517 190 475 142 q 560 342 560 239 q 517 491 560 443 q 408 539 475 539 q 300 491 342 539 q 258 342 258 443 q 300 190 258 239 q 408 142 342 142 m 344 953 l 188 1129 l 381 1129 l 472 953 l 344 953 m 182 783 l 182 901 l 635 901 l 635 783 l 182 783 z "},"ǫ":{"ha":818,"x_min":47,"x_max":771,"o":"m 408 -15 q 217 28 299 -15 q 92 152 136 72 q 47 342 47 232 q 92 530 47 450 q 217 653 136 610 q 408 696 299 696 q 599 653 518 696 q 726 530 681 610 q 771 342 771 450 q 726 152 771 232 q 599 28 681 72 q 408 -15 518 -15 m 408 142 q 517 190 475 142 q 560 342 560 239 q 517 491 560 443 q 408 539 475 539 q 300 491 342 539 q 258 342 258 443 q 300 190 258 239 q 408 142 342 142 m 458 -274 q 331 -233 376 -274 q 285 -124 285 -192 q 325 -12 285 -62 q 432 63 365 38 l 490 0 q 433 -41 454 -14 q 411 -100 411 -68 q 433 -149 411 -132 q 488 -167 456 -167 q 526 -162 508 -167 q 564 -151 543 -158 l 585 -249 q 458 -274 528 -274 z "},"ø":{"ha":818,"x_min":47,"x_max":771,"o":"m 226 -89 l 122 -28 l 172 57 q 80 175 113 103 q 47 342 47 247 q 92 530 47 450 q 217 653 136 610 q 408 696 299 696 q 536 678 478 696 l 592 772 l 696 711 l 646 624 q 738 506 704 578 q 771 342 771 435 q 726 152 771 232 q 599 28 681 72 q 408 -15 518 -15 q 281 3 340 -15 l 226 -89 m 247 342 q 269 224 247 271 l 456 540 q 408 546 433 546 q 292 495 336 546 q 247 342 247 444 m 410 136 q 526 187 482 136 q 569 342 569 238 q 549 458 569 411 l 363 142 q 410 136 383 136 z "},"ǿ":{"ha":818,"x_min":47,"x_max":771,"o":"m 226 -89 l 122 -28 l 172 57 q 80 175 113 103 q 47 342 47 247 q 92 530 47 450 q 217 653 136 610 q 408 696 299 696 q 536 678 478 696 l 592 772 l 696 711 l 646 624 q 738 506 704 578 q 771 342 771 435 q 726 152 771 232 q 599 28 681 72 q 408 -15 518 -15 q 281 3 340 -15 l 226 -89 m 247 342 q 269 224 247 271 l 456 540 q 408 546 433 546 q 292 495 336 546 q 247 342 247 444 m 410 136 q 526 187 482 136 q 569 342 569 238 q 549 458 569 411 l 363 142 q 410 136 383 136 m 339 771 l 482 1056 l 682 1056 l 478 771 l 339 771 z "},"õ":{"ha":818,"x_min":47,"x_max":771,"o":"m 408 -15 q 217 28 299 -15 q 92 152 136 72 q 47 342 47 232 q 92 530 47 450 q 217 653 136 610 q 408 696 299 696 q 599 653 518 696 q 726 530 681 610 q 771 342 771 450 q 726 152 771 232 q 599 28 681 72 q 408 -15 518 -15 m 408 142 q 517 190 475 142 q 560 342 560 239 q 517 491 560 443 q 408 539 475 539 q 300 491 342 539 q 258 342 258 443 q 300 190 258 239 q 408 142 342 142 m 226 807 l 128 813 q 183 973 135 915 q 304 1031 231 1031 q 363 1018 338 1031 q 422 983 389 1006 q 469 955 451 963 q 506 947 488 947 q 590 1036 575 947 l 689 1031 q 635 870 683 928 q 513 813 588 813 q 457 823 483 813 q 394 860 431 833 q 311 896 343 896 q 226 807 242 896 z "},"ṍ":{"ha":818,"x_min":47,"x_max":771,"o":"m 408 -15 q 217 28 299 -15 q 92 152 136 72 q 47 342 47 232 q 92 530 47 450 q 217 653 136 610 q 408 696 299 696 q 599 653 518 696 q 726 530 681 610 q 771 342 771 450 q 726 152 771 232 q 599 28 681 72 q 408 -15 518 -15 m 408 142 q 517 190 475 142 q 560 342 560 239 q 517 491 560 443 q 408 539 475 539 q 300 491 342 539 q 258 342 258 443 q 300 190 258 239 q 408 142 342 142 m 344 953 l 436 1129 l 631 1129 l 472 953 l 344 953 m 250 767 l 158 771 q 207 888 163 849 q 315 926 251 926 q 421 896 361 926 q 460 878 442 885 q 496 872 479 872 q 567 926 556 872 l 658 922 q 610 806 654 844 q 503 767 567 767 q 449 775 476 767 q 393 797 422 783 q 322 821 347 821 q 274 808 290 821 q 250 767 257 794 z "},"ṏ":{"ha":818,"x_min":47,"x_max":771,"o":"m 408 -15 q 217 28 299 -15 q 92 152 136 72 q 47 342 47 232 q 92 530 47 450 q 217 653 136 610 q 408 696 299 696 q 599 653 518 696 q 726 530 681 610 q 771 342 771 450 q 726 152 771 232 q 599 28 681 72 q 408 -15 518 -15 m 408 142 q 517 190 475 142 q 560 342 560 239 q 517 491 560 443 q 408 539 475 539 q 300 491 342 539 q 258 342 258 443 q 300 190 258 239 q 408 142 342 142 m 181 972 l 181 1106 l 363 1106 l 363 972 l 181 972 m 454 972 l 454 1106 l 638 1106 l 638 972 l 454 972 m 250 767 l 158 771 q 207 888 163 849 q 315 926 251 926 q 421 896 361 926 q 460 878 442 885 q 496 872 479 872 q 567 926 556 872 l 658 922 q 610 806 654 844 q 503 767 567 767 q 449 775 476 767 q 393 797 422 783 q 322 821 347 821 q 274 808 290 821 q 250 767 257 794 z "},"ȭ":{"ha":818,"x_min":47,"x_max":771,"o":"m 408 -15 q 217 28 299 -15 q 92 152 136 72 q 47 342 47 232 q 92 530 47 450 q 217 653 136 610 q 408 696 299 696 q 599 653 518 696 q 726 530 681 610 q 771 342 771 450 q 726 152 771 232 q 599 28 681 72 q 408 -15 518 -15 m 408 142 q 517 190 475 142 q 560 342 560 239 q 517 491 560 443 q 408 539 475 539 q 300 491 342 539 q 258 342 258 443 q 300 190 258 239 q 408 142 342 142 m 182 985 l 182 1103 l 635 1103 l 635 985 l 182 985 m 250 767 l 158 771 q 207 888 163 849 q 315 926 251 926 q 421 896 361 926 q 460 878 442 885 q 496 872 479 872 q 567 926 556 872 l 658 922 q 610 806 654 844 q 503 767 567 767 q 449 775 476 767 q 393 797 422 783 q 322 821 347 821 q 274 808 290 821 q 250 767 257 794 z "},"œ":{"ha":1274,"x_min":47,"x_max":1233,"o":"m 401 -15 q 213 29 293 -15 q 90 154 133 74 q 47 343 47 235 q 90 531 47 451 q 213 653 133 610 q 401 696 293 696 q 553 666 488 696 q 664 581 619 636 q 768 665 704 633 q 911 696 832 696 q 1147 603 1060 696 q 1233 349 1233 510 l 1233 296 l 768 296 q 824 179 779 217 q 954 142 869 142 q 1065 159 1010 142 q 1167 210 1119 176 l 1222 69 q 1097 8 1171 31 q 949 -15 1022 -15 q 663 107 753 -15 q 553 17 618 49 q 401 -15 488 -15 m 919 557 q 816 519 856 557 q 768 404 776 481 l 1060 404 q 1019 518 1056 479 q 919 557 983 557 m 410 142 q 518 192 476 142 q 560 342 560 242 q 517 490 560 442 q 408 539 475 539 q 300 490 342 539 q 258 342 258 442 q 300 192 258 242 q 410 142 342 142 z "},"p":{"ha":847,"x_min":81,"x_max":800,"o":"m 81 -250 l 81 682 l 286 682 l 286 581 q 372 665 314 633 q 501 696 429 696 q 658 653 590 696 q 763 531 725 610 q 800 342 800 451 q 763 152 800 232 q 658 28 725 72 q 501 -15 590 -15 q 377 14 433 -15 q 290 92 321 43 l 290 -250 l 81 -250 m 439 142 q 547 190 506 142 q 589 342 589 239 q 547 491 589 443 q 439 539 506 539 q 329 491 371 539 q 288 342 288 443 q 329 190 288 239 q 439 142 371 142 z "},"þ":{"ha":847,"x_min":81,"x_max":800,"o":"m 81 -250 l 81 979 l 290 979 l 290 589 q 377 667 321 639 q 501 696 433 696 q 658 653 590 696 q 763 531 725 610 q 800 342 800 451 q 763 152 800 232 q 658 28 725 72 q 501 -15 590 -15 q 377 14 433 -15 q 290 92 321 43 l 290 -250 l 81 -250 m 439 142 q 547 190 506 142 q 589 342 589 239 q 547 491 589 443 q 439 539 506 539 q 329 491 371 539 q 288 342 288 443 q 329 190 288 239 q 439 142 371 142 z "},"q":{"ha":847,"x_min":47,"x_max":767,"o":"m 557 -250 l 557 93 q 471 15 528 44 q 346 -15 414 -15 q 190 28 257 -15 q 85 152 122 72 q 47 342 47 232 q 85 531 47 451 q 190 653 122 610 q 346 696 257 696 q 476 664 418 696 q 561 579 533 632 l 561 682 l 767 682 l 767 -250 l 557 -250 m 408 142 q 517 190 475 142 q 560 342 560 239 q 517 491 560 443 q 408 539 475 539 q 300 491 342 539 q 258 342 258 443 q 300 190 258 239 q 408 142 342 142 z "},"r":{"ha":572,"x_min":81,"x_max":568,"o":"m 81 0 l 81 682 l 286 682 l 286 564 q 494 696 335 683 l 556 700 l 568 524 l 450 511 q 294 353 294 496 l 294 0 l 81 0 z "},"ŕ":{"ha":572,"x_min":81,"x_max":599,"o":"m 81 0 l 81 682 l 286 682 l 286 564 q 494 696 335 683 l 556 700 l 568 524 l 450 511 q 294 353 294 496 l 294 0 l 81 0 m 256 771 l 399 1056 l 599 1056 l 394 771 l 256 771 z "},"ř":{"ha":572,"x_min":81,"x_max":568,"o":"m 81 0 l 81 682 l 286 682 l 286 564 q 494 696 335 683 l 556 700 l 568 524 l 450 511 q 294 353 294 496 l 294 0 l 81 0 m 236 771 l 82 1056 l 213 1056 l 325 885 l 438 1056 l 568 1056 l 414 771 l 236 771 z "},"ŗ":{"ha":572,"x_min":81,"x_max":568,"o":"m 81 0 l 81 682 l 286 682 l 286 564 q 494 696 335 683 l 556 700 l 568 524 l 450 511 q 294 353 294 496 l 294 0 l 81 0 m 207 -394 l 132 -344 q 169 -300 157 -322 q 183 -254 181 -278 l 83 -254 l 83 -96 l 290 -96 l 290 -194 q 272 -305 290 -256 q 207 -394 253 -354 z "},"ȑ":{"ha":572,"x_min":35,"x_max":568,"o":"m 81 0 l 81 682 l 286 682 l 286 564 q 494 696 335 683 l 556 700 l 568 524 l 450 511 q 294 353 294 496 l 294 0 l 81 0 m 386 771 l 258 1056 l 429 1056 l 494 771 l 386 771 m 163 771 l 35 1056 l 206 1056 l 271 771 l 163 771 z "},"ṛ":{"ha":572,"x_min":81,"x_max":568,"o":"m 81 0 l 81 682 l 286 682 l 286 564 q 494 696 335 683 l 556 700 l 568 524 l 450 511 q 294 353 294 496 l 294 0 l 81 0 m 90 -297 l 90 -112 l 285 -112 l 285 -297 l 90 -297 z "},"ȓ":{"ha":572,"x_min":81,"x_max":568,"o":"m 81 0 l 81 682 l 286 682 l 286 564 q 494 696 335 683 l 556 700 l 568 524 l 450 511 q 294 353 294 496 l 294 0 l 81 0 m 200 767 l 85 776 q 153 975 88 901 q 325 1049 219 1049 q 497 975 432 1049 q 565 776 563 901 l 450 767 q 413 884 444 843 q 325 925 381 925 q 238 884 269 925 q 200 767 206 843 z "},"ṟ":{"ha":572,"x_min":-39,"x_max":568,"o":"m 81 0 l 81 682 l 286 682 l 286 564 q 494 696 335 683 l 556 700 l 568 524 l 450 511 q 294 353 294 496 l 294 0 l 81 0 m -39 -236 l -39 -118 l 414 -118 l 414 -236 l -39 -236 z "},"s":{"ha":683,"x_min":44,"x_max":644,"o":"m 342 -15 q 174 6 251 -15 q 44 63 96 26 l 94 199 q 212 148 146 167 q 343 129 278 129 q 429 148 401 129 q 457 197 457 167 q 386 258 457 246 l 240 285 q 107 347 153 300 q 61 471 61 394 q 100 590 61 540 q 207 668 139 640 q 364 696 275 696 q 507 677 438 696 q 626 618 576 658 l 574 483 q 474 533 532 514 q 367 553 417 553 q 276 533 304 553 q 249 482 249 513 q 314 421 249 433 l 460 394 q 597 334 550 379 q 644 211 644 289 q 561 44 644 104 q 342 -15 478 -15 z "},"ś":{"ha":683,"x_min":44,"x_max":644,"o":"m 342 -15 q 174 6 251 -15 q 44 63 96 26 l 94 199 q 212 148 146 167 q 343 129 278 129 q 429 148 401 129 q 457 197 457 167 q 386 258 457 246 l 240 285 q 107 347 153 300 q 61 471 61 394 q 100 590 61 540 q 207 668 139 640 q 364 696 275 696 q 507 677 438 696 q 626 618 576 658 l 574 483 q 474 533 532 514 q 367 553 417 553 q 276 533 304 553 q 249 482 249 513 q 314 421 249 433 l 460 394 q 597 334 550 379 q 644 211 644 289 q 561 44 644 104 q 342 -15 478 -15 m 285 771 l 428 1056 l 628 1056 l 424 771 l 285 771 z "},"ṥ":{"ha":683,"x_min":44,"x_max":644,"o":"m 342 -15 q 174 6 251 -15 q 44 63 96 26 l 94 199 q 212 148 146 167 q 343 129 278 129 q 429 148 401 129 q 457 197 457 167 q 386 258 457 246 l 240 285 q 107 347 153 300 q 61 471 61 394 q 100 590 61 540 q 207 668 139 640 q 364 696 275 696 q 507 677 438 696 q 626 618 576 658 l 574 483 q 474 533 532 514 q 367 553 417 553 q 276 533 304 553 q 249 482 249 513 q 314 421 249 433 l 460 394 q 597 334 550 379 q 644 211 644 289 q 561 44 644 104 q 342 -15 478 -15 m 172 1040 l 172 1174 l 356 1174 l 356 1040 l 172 1040 m 285 771 l 436 1056 l 638 1056 l 424 771 l 285 771 z "},"š":{"ha":683,"x_min":44,"x_max":644,"o":"m 342 -15 q 174 6 251 -15 q 44 63 96 26 l 94 199 q 212 148 146 167 q 343 129 278 129 q 429 148 401 129 q 457 197 457 167 q 386 258 457 246 l 240 285 q 107 347 153 300 q 61 471 61 394 q 100 590 61 540 q 207 668 139 640 q 364 696 275 696 q 507 677 438 696 q 626 618 576 658 l 574 483 q 474 533 532 514 q 367 553 417 553 q 276 533 304 553 q 249 482 249 513 q 314 421 249 433 l 460 394 q 597 334 550 379 q 644 211 644 289 q 561 44 644 104 q 342 -15 478 -15 m 265 771 l 111 1056 l 242 1056 l 354 885 l 467 1056 l 597 1056 l 443 771 l 265 771 z "},"ṧ":{"ha":683,"x_min":44,"x_max":644,"o":"m 342 -15 q 174 6 251 -15 q 44 63 96 26 l 94 199 q 212 148 146 167 q 343 129 278 129 q 429 148 401 129 q 457 197 457 167 q 386 258 457 246 l 240 285 q 107 347 153 300 q 61 471 61 394 q 100 590 61 540 q 207 668 139 640 q 364 696 275 696 q 507 677 438 696 q 626 618 576 658 l 574 483 q 474 533 532 514 q 367 553 417 553 q 276 533 304 553 q 249 482 249 513 q 314 421 249 433 l 460 394 q 597 334 550 379 q 644 211 644 289 q 561 44 644 104 q 342 -15 478 -15 m 263 1040 l 263 1175 l 446 1175 l 446 1040 l 263 1040 m 265 771 l 111 992 l 242 992 l 354 881 l 467 992 l 597 992 l 443 771 l 265 771 z "},"ş":{"ha":683,"x_min":44,"x_max":644,"o":"m 342 -15 q 174 6 251 -15 q 44 63 96 26 l 94 199 q 212 148 146 167 q 343 129 278 129 q 429 148 401 129 q 457 197 457 167 q 386 258 457 246 l 240 285 q 107 347 153 300 q 61 471 61 394 q 100 590 61 540 q 207 668 139 640 q 364 696 275 696 q 507 677 438 696 q 626 618 576 658 l 574 483 q 474 533 532 514 q 367 553 417 553 q 276 533 304 553 q 249 482 249 513 q 314 421 249 433 l 460 394 q 597 334 550 379 q 644 211 644 289 q 561 44 644 104 q 342 -15 478 -15 m 342 -274 q 259 -266 299 -274 q 190 -243 219 -258 l 219 -154 q 269 -173 244 -167 q 322 -179 294 -179 q 394 -143 394 -179 q 343 -115 394 -115 q 319 -117 331 -115 q 290 -122 307 -118 l 263 -94 l 281 28 l 386 28 l 372 -47 q 381 -47 376 -47 q 478 -74 443 -47 q 514 -150 514 -101 q 466 -240 514 -206 q 342 -274 418 -274 z "},"ŝ":{"ha":683,"x_min":44,"x_max":644,"o":"m 342 -15 q 174 6 251 -15 q 44 63 96 26 l 94 199 q 212 148 146 167 q 343 129 278 129 q 429 148 401 129 q 457 197 457 167 q 386 258 457 246 l 240 285 q 107 347 153 300 q 61 471 61 394 q 100 590 61 540 q 207 668 139 640 q 364 696 275 696 q 507 677 438 696 q 626 618 576 658 l 574 483 q 474 533 532 514 q 367 553 417 553 q 276 533 304 553 q 249 482 249 513 q 314 421 249 433 l 460 394 q 597 334 550 379 q 644 211 644 289 q 561 44 644 104 q 342 -15 478 -15 m 111 771 l 265 1056 l 443 1056 l 597 771 l 467 771 l 354 942 l 242 771 l 111 771 z "},"ș":{"ha":683,"x_min":44,"x_max":644,"o":"m 342 -15 q 174 6 251 -15 q 44 63 96 26 l 94 199 q 212 148 146 167 q 343 129 278 129 q 429 148 401 129 q 457 197 457 167 q 386 258 457 246 l 240 285 q 107 347 153 300 q 61 471 61 394 q 100 590 61 540 q 207 668 139 640 q 364 696 275 696 q 507 677 438 696 q 626 618 576 658 l 574 483 q 474 533 532 514 q 367 553 417 553 q 276 533 304 553 q 249 482 249 513 q 314 421 249 433 l 460 394 q 597 334 550 379 q 644 211 644 289 q 561 44 644 104 q 342 -15 478 -15 m 363 -394 l 288 -344 q 324 -300 313 -322 q 339 -254 336 -278 l 239 -254 l 239 -96 l 446 -96 l 446 -194 q 427 -305 446 -256 q 363 -394 408 -354 z "},"ṡ":{"ha":683,"x_min":44,"x_max":644,"o":"m 342 -15 q 174 6 251 -15 q 44 63 96 26 l 94 199 q 212 148 146 167 q 343 129 278 129 q 429 148 401 129 q 457 197 457 167 q 386 258 457 246 l 240 285 q 107 347 153 300 q 61 471 61 394 q 100 590 61 540 q 207 668 139 640 q 364 696 275 696 q 507 677 438 696 q 626 618 576 658 l 574 483 q 474 533 532 514 q 367 553 417 553 q 276 533 304 553 q 249 482 249 513 q 314 421 249 433 l 460 394 q 597 334 550 379 q 644 211 644 289 q 561 44 644 104 q 342 -15 478 -15 m 257 819 l 257 1004 l 451 1004 l 451 819 l 257 819 z "},"ṣ":{"ha":683,"x_min":44,"x_max":644,"o":"m 342 -15 q 174 6 251 -15 q 44 63 96 26 l 94 199 q 212 148 146 167 q 343 129 278 129 q 429 148 401 129 q 457 197 457 167 q 386 258 457 246 l 240 285 q 107 347 153 300 q 61 471 61 394 q 100 590 61 540 q 207 668 139 640 q 364 696 275 696 q 507 677 438 696 q 626 618 576 658 l 574 483 q 474 533 532 514 q 367 553 417 553 q 276 533 304 553 q 249 482 249 513 q 314 421 249 433 l 460 394 q 597 334 550 379 q 644 211 644 289 q 561 44 644 104 q 342 -15 478 -15 m 246 -297 l 246 -112 l 440 -112 l 440 -297 l 246 -297 z "},"ṩ":{"ha":683,"x_min":44,"x_max":644,"o":"m 342 -15 q 174 6 251 -15 q 44 63 96 26 l 94 199 q 212 148 146 167 q 343 129 278 129 q 429 148 401 129 q 457 197 457 167 q 386 258 457 246 l 240 285 q 107 347 153 300 q 61 471 61 394 q 100 590 61 540 q 207 668 139 640 q 364 696 275 696 q 507 677 438 696 q 626 618 576 658 l 574 483 q 474 533 532 514 q 367 553 417 553 q 276 533 304 553 q 249 482 249 513 q 314 421 249 433 l 460 394 q 597 334 550 379 q 644 211 644 289 q 561 44 644 104 q 342 -15 478 -15 m 246 -297 l 246 -112 l 440 -112 l 440 -297 l 246 -297 m 257 819 l 257 1004 l 451 1004 l 451 819 l 257 819 z "},"ß":{"ha":939,"x_min":81,"x_max":914,"o":"m 632 -15 q 480 8 556 -15 q 350 72 404 31 l 407 211 q 523 158 461 176 q 636 139 585 139 q 701 156 678 139 q 725 204 725 172 q 699 249 725 232 q 603 288 674 267 q 449 367 493 319 q 404 483 404 414 q 424 569 404 528 q 500 668 443 610 q 544 724 532 700 q 557 774 557 747 q 533 825 557 806 q 461 844 510 844 q 334 794 378 844 q 290 654 290 744 l 290 0 l 81 0 l 81 619 q 180 897 81 800 q 464 994 279 994 q 678 940 601 994 q 754 792 754 885 q 735 703 754 744 q 667 615 715 661 q 609 552 624 574 q 594 510 594 531 q 621 466 594 485 q 724 425 647 447 q 869 344 825 396 q 914 218 914 293 q 838 48 914 111 q 632 -15 761 -15 z "},"t":{"ha":561,"x_min":-1,"x_max":564,"o":"m 415 -15 q 128 264 128 -15 l 128 525 l -1 525 l -1 682 l 128 682 l 128 882 l 338 882 l 338 682 l 539 682 l 539 525 l 338 525 l 338 272 q 365 185 338 214 q 451 156 392 156 q 490 160 469 156 q 533 171 510 164 l 564 18 q 494 -6 535 3 q 415 -15 454 -15 z "},"ŧ":{"ha":561,"x_min":-1,"x_max":564,"o":"m 415 -15 q 128 264 128 -15 l 128 525 l -1 525 l -1 682 l 128 682 l 128 882 l 338 882 l 338 682 l 539 682 l 539 525 l 338 525 l 338 272 q 365 185 338 214 q 451 156 392 156 q 490 160 469 156 q 533 171 510 164 l 564 18 q 494 -6 535 3 q 415 -15 454 -15 m 35 296 l 35 418 l 489 418 l 489 296 l 35 296 z "},"ť":{"ha":561,"x_min":-1,"x_max":564,"o":"m 415 -15 q 128 264 128 -15 l 128 525 l -1 525 l -1 682 l 128 682 l 128 882 l 338 882 l 338 682 l 539 682 l 539 525 l 338 525 l 338 272 q 365 185 338 214 q 451 156 392 156 q 490 160 469 156 q 533 171 510 164 l 564 18 q 494 -6 535 3 q 415 -15 454 -15 m 404 736 l 404 979 l 536 979 l 497 736 l 404 736 z "},"ţ":{"ha":561,"x_min":-1,"x_max":564,"o":"m 415 -15 q 128 264 128 -15 l 128 525 l -1 525 l -1 682 l 128 682 l 128 882 l 338 882 l 338 682 l 539 682 l 539 525 l 338 525 l 338 272 q 365 185 338 214 q 451 156 392 156 q 490 160 469 156 q 533 171 510 164 l 564 18 q 494 -6 535 3 q 415 -15 454 -15 m 329 -274 q 247 -266 286 -274 q 178 -243 207 -258 l 207 -154 q 257 -173 232 -167 q 310 -179 282 -179 q 382 -143 382 -179 q 331 -115 382 -115 q 306 -117 318 -115 q 278 -122 294 -118 l 250 -94 l 268 28 l 374 28 l 360 -47 q 368 -47 364 -47 q 466 -74 431 -47 q 501 -150 501 -101 q 453 -240 501 -206 q 329 -274 406 -274 z "},"ț":{"ha":561,"x_min":-1,"x_max":564,"o":"m 415 -15 q 128 264 128 -15 l 128 525 l -1 525 l -1 682 l 128 682 l 128 882 l 338 882 l 338 682 l 539 682 l 539 525 l 338 525 l 338 272 q 365 185 338 214 q 451 156 392 156 q 490 160 469 156 q 533 171 510 164 l 564 18 q 494 -6 535 3 q 415 -15 454 -15 m 350 -394 l 275 -344 q 312 -300 300 -322 q 326 -254 324 -278 l 226 -254 l 226 -96 l 433 -96 l 433 -194 q 415 -305 433 -256 q 350 -394 396 -354 z "},"ẗ":{"ha":561,"x_min":-1,"x_max":564,"o":"m 415 -15 q 128 264 128 -15 l 128 525 l -1 525 l -1 682 l 128 682 l 128 882 l 338 882 l 338 682 l 539 682 l 539 525 l 338 525 l 338 272 q 365 185 338 214 q 451 156 392 156 q 490 160 469 156 q 533 171 510 164 l 564 18 q 494 -6 535 3 q 415 -15 454 -15 m 278 988 l 278 1171 l 463 1171 l 463 988 l 278 988 m 4 988 l 4 1171 l 189 1171 l 189 988 l 4 988 z "},"ṭ":{"ha":561,"x_min":-1,"x_max":564,"o":"m 415 -15 q 128 264 128 -15 l 128 525 l -1 525 l -1 682 l 128 682 l 128 882 l 338 882 l 338 682 l 539 682 l 539 525 l 338 525 l 338 272 q 365 185 338 214 q 451 156 392 156 q 490 160 469 156 q 533 171 510 164 l 564 18 q 494 -6 535 3 q 415 -15 454 -15 m 233 -297 l 233 -112 l 428 -112 l 428 -297 l 233 -297 z "},"ṯ":{"ha":561,"x_min":-1,"x_max":564,"o":"m 415 -15 q 128 264 128 -15 l 128 525 l -1 525 l -1 682 l 128 682 l 128 882 l 338 882 l 338 682 l 539 682 l 539 525 l 338 525 l 338 272 q 365 185 338 214 q 451 156 392 156 q 490 160 469 156 q 533 171 510 164 l 564 18 q 494 -6 535 3 q 415 -15 454 -15 m 104 -236 l 104 -118 l 557 -118 l 557 -236 l 104 -236 z "},"u":{"ha":819,"x_min":78,"x_max":738,"o":"m 332 -15 q 140 57 201 -15 q 78 274 78 129 l 78 682 l 288 682 l 288 268 q 392 147 288 147 q 490 190 451 147 q 528 301 528 232 l 528 682 l 738 682 l 738 0 l 533 0 l 533 93 q 332 -15 465 -15 z "},"ú":{"ha":819,"x_min":78,"x_max":738,"o":"m 332 -15 q 140 57 201 -15 q 78 274 78 129 l 78 682 l 288 682 l 288 268 q 392 147 288 147 q 490 190 451 147 q 528 301 528 232 l 528 682 l 738 682 l 738 0 l 533 0 l 533 93 q 332 -15 465 -15 m 339 772 l 482 1057 l 682 1057 l 478 772 l 339 772 z "},"ŭ":{"ha":819,"x_min":78,"x_max":738,"o":"m 332 -15 q 140 57 201 -15 q 78 274 78 129 l 78 682 l 288 682 l 288 268 q 392 147 288 147 q 490 190 451 147 q 528 301 528 232 l 528 682 l 738 682 l 738 0 l 533 0 l 533 93 q 332 -15 465 -15 m 408 768 q 237 841 303 768 q 168 1039 171 914 l 283 1050 q 321 931 289 972 q 408 890 353 890 q 496 931 464 890 q 533 1050 528 972 l 649 1039 q 581 841 646 914 q 408 768 515 768 z "},"ǔ":{"ha":819,"x_min":78,"x_max":738,"o":"m 332 -15 q 140 57 201 -15 q 78 274 78 129 l 78 682 l 288 682 l 288 268 q 392 147 288 147 q 490 190 451 147 q 528 301 528 232 l 528 682 l 738 682 l 738 0 l 533 0 l 533 93 q 332 -15 465 -15 m 319 772 l 165 1057 l 296 1057 l 408 886 l 521 1057 l 651 1057 l 497 772 l 319 772 z "},"û":{"ha":819,"x_min":78,"x_max":738,"o":"m 332 -15 q 140 57 201 -15 q 78 274 78 129 l 78 682 l 288 682 l 288 268 q 392 147 288 147 q 490 190 451 147 q 528 301 528 232 l 528 682 l 738 682 l 738 0 l 533 0 l 533 93 q 332 -15 465 -15 m 165 772 l 319 1057 l 497 1057 l 651 772 l 521 772 l 408 943 l 296 772 l 165 772 z "},"ȕ":{"ha":819,"x_min":78,"x_max":738,"o":"m 332 -15 q 140 57 201 -15 q 78 274 78 129 l 78 682 l 288 682 l 288 268 q 392 147 288 147 q 490 190 451 147 q 528 301 528 232 l 528 682 l 738 682 l 738 0 l 533 0 l 533 93 q 332 -15 465 -15 m 469 772 l 342 1057 l 513 1057 l 578 772 l 469 772 m 246 772 l 118 1057 l 289 1057 l 354 772 l 246 772 z "},"ü":{"ha":819,"x_min":78,"x_max":738,"o":"m 332 -15 q 140 57 201 -15 q 78 274 78 129 l 78 682 l 288 682 l 288 268 q 392 147 288 147 q 490 190 451 147 q 528 301 528 232 l 528 682 l 738 682 l 738 0 l 533 0 l 533 93 q 332 -15 465 -15 m 453 821 l 453 1004 l 638 1004 l 638 821 l 453 821 m 179 821 l 179 1004 l 364 1004 l 364 821 l 179 821 z "},"ụ":{"ha":819,"x_min":78,"x_max":738,"o":"m 332 -15 q 140 57 201 -15 q 78 274 78 129 l 78 682 l 288 682 l 288 268 q 392 147 288 147 q 490 190 451 147 q 528 301 528 232 l 528 682 l 738 682 l 738 0 l 533 0 l 533 93 q 332 -15 465 -15 m 311 -297 l 311 -112 l 506 -112 l 506 -297 l 311 -297 z "},"ù":{"ha":819,"x_min":78,"x_max":738,"o":"m 332 -15 q 140 57 201 -15 q 78 274 78 129 l 78 682 l 288 682 l 288 268 q 392 147 288 147 q 490 190 451 147 q 528 301 528 232 l 528 682 l 738 682 l 738 0 l 533 0 l 533 93 q 332 -15 465 -15 m 339 772 l 135 1057 l 336 1057 l 478 772 l 339 772 z "},"ủ":{"ha":819,"x_min":78,"x_max":738,"o":"m 332 -15 q 140 57 201 -15 q 78 274 78 129 l 78 682 l 288 682 l 288 268 q 392 147 288 147 q 490 190 451 147 q 528 301 528 232 l 528 682 l 738 682 l 738 0 l 533 0 l 533 93 q 332 -15 465 -15 m 347 772 l 347 803 q 365 860 347 839 q 401 898 383 882 q 419 938 419 914 q 369 969 419 969 q 288 949 326 969 l 257 1033 q 418 1068 319 1068 q 533 1042 492 1068 q 575 965 575 1015 q 559 908 575 929 q 522 871 543 886 q 485 839 501 856 q 469 796 469 822 l 469 772 l 347 772 z "},"ư":{"ha":819,"x_min":78,"x_max":893,"o":"m 332 -15 q 140 57 201 -15 q 78 274 78 129 l 78 682 l 288 682 l 288 268 q 392 147 288 147 q 490 190 451 147 q 528 301 528 232 l 528 682 l 738 682 l 738 0 l 533 0 l 533 93 q 332 -15 465 -15 m 710 581 l 586 657 l 586 682 q 681 710 650 682 q 713 822 713 738 l 713 856 l 893 856 l 893 797 q 842 650 893 710 q 710 581 792 590 z "},"ứ":{"ha":819,"x_min":78,"x_max":893,"o":"m 332 -15 q 140 57 201 -15 q 78 274 78 129 l 78 682 l 288 682 l 288 268 q 392 147 288 147 q 490 190 451 147 q 528 301 528 232 l 528 682 l 738 682 l 738 0 l 533 0 l 533 93 q 332 -15 465 -15 m 710 581 l 586 657 l 586 682 q 681 710 650 682 q 713 822 713 738 l 713 856 l 893 856 l 893 797 q 842 650 893 710 q 710 581 792 590 m 339 771 l 482 1056 l 682 1056 l 478 771 l 339 771 z "},"ự":{"ha":819,"x_min":78,"x_max":893,"o":"m 332 -15 q 140 57 201 -15 q 78 274 78 129 l 78 682 l 288 682 l 288 268 q 392 147 288 147 q 490 190 451 147 q 528 301 528 232 l 528 682 l 738 682 l 738 0 l 533 0 l 533 93 q 332 -15 465 -15 m 710 581 l 586 657 l 586 682 q 681 710 650 682 q 713 822 713 738 l 713 856 l 893 856 l 893 797 q 842 650 893 710 q 710 581 792 590 m 311 -297 l 311 -112 l 506 -112 l 506 -297 l 311 -297 z "},"ừ":{"ha":819,"x_min":78,"x_max":893,"o":"m 332 -15 q 140 57 201 -15 q 78 274 78 129 l 78 682 l 288 682 l 288 268 q 392 147 288 147 q 490 190 451 147 q 528 301 528 232 l 528 682 l 738 682 l 738 0 l 533 0 l 533 93 q 332 -15 465 -15 m 710 581 l 586 657 l 586 682 q 681 710 650 682 q 713 822 713 738 l 713 856 l 893 856 l 893 797 q 842 650 893 710 q 710 581 792 590 m 339 771 l 135 1056 l 336 1056 l 478 771 l 339 771 z "}}}
